<svg xmlns="http://www.w3.org/2000/svg" xmlns:xlink="http://www.w3.org/1999/xlink" viewBox="0 0 1058.333 595.313" xmlns:v="https://vecta.io/nano"><path d="M.122 265.826l28.915.023v12.852l36.92 1.002v10.961h8.882v-32.695h4.536v-6.236h4.536v-6.615h2.835v-7.182h3.401v-5.858h1.701v-6.615h2.268v-6.236h3.024v-4.536h2.457v-25.135h1.512v25.135h3.212v4.725h1.701v6.614h2.457v6.048h2.646v6.614h3.213v6.237h3.024v7.182h4.346v5.291h4.536v14.552h8.505v30.427h26.269v-78.808h43.467v143.82h4.725V192.957h73.705v32.506h26.081v47.436h17.198v-44.034h48.38V315.8h4.914v-69.17h41.767v34.018h29.293v-31.939h13.985v-7.938h35.341v99.408h21.922V263.45h9.072l-5.522-9.564 13.79-23.885 13.62 23.591-5.618 9.73h9.81v6.931h15.686v-47.814h36.286v26.837h36.852v154.815h4.084V283.553h25.658v19.51h16.705v-20.312h18.308V217.27h52.229v66.78h105.455v89.769h3.78v-134.56h9.827l8.623.756h15.19v-46.113h74.839v30.238h41.011v94.494h7.37v-50.837h29.323v327.516H-.001l.123-329.487z" fill="#159cdc"/><g fill="#d7f4ee"><use xlink:href="#B" paint-order="fill markers stroke"/><use xlink:href="#B" x="12.568" paint-order="fill markers stroke"/><use xlink:href="#B" x="25.325" paint-order="fill markers stroke"/><use xlink:href="#B" x="38.082" paint-order="fill markers stroke"/><use xlink:href="#B" x="50.649" paint-order="fill markers stroke"/><use xlink:href="#B" y="11.717" paint-order="fill markers stroke"/><use xlink:href="#B" x="12.568" y="11.717" paint-order="fill markers stroke"/><use xlink:href="#B" x="25.325" y="11.717" paint-order="fill markers stroke"/><use xlink:href="#B" x="38.082" y="11.717" paint-order="fill markers stroke"/><use xlink:href="#B" x="50.649" y="11.717" paint-order="fill markers stroke"/><use xlink:href="#B" y="23.435" paint-order="fill markers stroke"/><use xlink:href="#B" x="12.568" y="23.435" paint-order="fill markers stroke"/><use xlink:href="#B" x="25.325" y="23.435" paint-order="fill markers stroke"/><use xlink:href="#B" x="38.082" y="23.435" paint-order="fill markers stroke"/><use xlink:href="#B" x="50.649" y="23.435" paint-order="fill markers stroke"/><use xlink:href="#B" y="35.152" paint-order="fill markers stroke"/><use xlink:href="#B" x="12.568" y="35.152" paint-order="fill markers stroke"/><use xlink:href="#B" x="25.325" y="35.152" paint-order="fill markers stroke"/><use xlink:href="#B" x="38.082" y="35.152" paint-order="fill markers stroke"/><use xlink:href="#B" x="50.649" y="35.152" paint-order="fill markers stroke"/><use xlink:href="#B" y="46.869" paint-order="fill markers stroke"/><use xlink:href="#B" x="12.568" y="46.869" paint-order="fill markers stroke"/><use xlink:href="#B" x="25.325" y="46.869" paint-order="fill markers stroke"/><use xlink:href="#B" x="38.082" y="46.869" paint-order="fill markers stroke"/><use xlink:href="#B" x="50.649" y="46.869" paint-order="fill markers stroke"/><use xlink:href="#B" y="58.586" paint-order="fill markers stroke"/><use xlink:href="#B" x="12.568" y="58.586" paint-order="fill markers stroke"/><use xlink:href="#B" x="25.325" y="58.586" paint-order="fill markers stroke"/><use xlink:href="#B" x="38.082" y="58.586" paint-order="fill markers stroke"/><use xlink:href="#B" x="50.649" y="58.586" paint-order="fill markers stroke"/><use xlink:href="#B" y="70.304" paint-order="fill markers stroke"/><use xlink:href="#B" x="12.568" y="70.304" paint-order="fill markers stroke"/><use xlink:href="#B" x="25.325" y="70.304" paint-order="fill markers stroke"/><use xlink:href="#B" x="38.082" y="70.304" paint-order="fill markers stroke"/><use xlink:href="#B" x="50.649" y="70.304" paint-order="fill markers stroke"/><use xlink:href="#B" y="82.021" paint-order="fill markers stroke"/><use xlink:href="#B" x="12.568" y="82.021" paint-order="fill markers stroke"/><use xlink:href="#B" x="25.325" y="82.021" paint-order="fill markers stroke"/><use xlink:href="#B" x="38.082" y="82.021" paint-order="fill markers stroke"/><use xlink:href="#B" x="50.649" y="82.021" paint-order="fill markers stroke"/><use xlink:href="#B" y="93.738" paint-order="fill markers stroke"/><use xlink:href="#B" x="12.568" y="93.738" paint-order="fill markers stroke"/><use xlink:href="#B" x="25.325" y="93.738" paint-order="fill markers stroke"/><use xlink:href="#B" x="38.082" y="93.738" paint-order="fill markers stroke"/><use xlink:href="#B" x="50.649" y="93.738" paint-order="fill markers stroke"/><use xlink:href="#B" y="105.455" paint-order="fill markers stroke"/><use xlink:href="#B" x="12.568" y="105.455" paint-order="fill markers stroke"/><use xlink:href="#B" x="25.325" y="105.455" paint-order="fill markers stroke"/><use xlink:href="#B" x="38.082" y="105.455" paint-order="fill markers stroke"/><use xlink:href="#B" x="50.649" y="105.455" paint-order="fill markers stroke"/><use xlink:href="#B" y="117.173" paint-order="fill markers stroke"/><use xlink:href="#B" x="12.568" y="117.173" paint-order="fill markers stroke"/><use xlink:href="#B" x="25.325" y="117.173" paint-order="fill markers stroke"/><use xlink:href="#B" x="38.082" y="117.173" paint-order="fill markers stroke"/><use xlink:href="#B" x="50.649" y="117.173" paint-order="fill markers stroke"/><use xlink:href="#B" y="128.89" paint-order="fill markers stroke"/><use xlink:href="#B" x="12.568" y="128.89" paint-order="fill markers stroke"/><use xlink:href="#B" x="25.325" y="128.89" paint-order="fill markers stroke"/><use xlink:href="#B" x="38.082" y="128.89" paint-order="fill markers stroke"/><use xlink:href="#B" x="50.649" y="128.89" paint-order="fill markers stroke"/><use xlink:href="#B" y="140.607" paint-order="fill markers stroke"/><use xlink:href="#B" x="12.568" y="140.607" paint-order="fill markers stroke"/><use xlink:href="#B" x="25.325" y="140.607" paint-order="fill markers stroke"/><use xlink:href="#B" x="38.082" y="140.607" paint-order="fill markers stroke"/><use xlink:href="#B" x="50.649" y="140.607" paint-order="fill markers stroke"/><use xlink:href="#B" y="152.324" paint-order="fill markers stroke"/><use xlink:href="#B" x="12.568" y="152.324" paint-order="fill markers stroke"/><use xlink:href="#B" x="25.325" y="152.324" paint-order="fill markers stroke"/><use xlink:href="#B" x="38.082" y="152.324" paint-order="fill markers stroke"/><use xlink:href="#B" x="50.649" y="152.324" paint-order="fill markers stroke"/><use xlink:href="#B" y="164.042" paint-order="fill markers stroke"/><use xlink:href="#B" x="12.568" y="164.042" paint-order="fill markers stroke"/><use xlink:href="#B" x="25.325" y="164.042" paint-order="fill markers stroke"/><use xlink:href="#B" x="38.082" y="164.042" paint-order="fill markers stroke"/><use xlink:href="#B" x="50.649" y="164.042" paint-order="fill markers stroke"/><use xlink:href="#B" y="175.759" paint-order="fill markers stroke"/><use xlink:href="#B" x="12.568" y="175.759" paint-order="fill markers stroke"/><use xlink:href="#B" x="25.325" y="175.759" paint-order="fill markers stroke"/><use xlink:href="#B" x="38.082" y="175.759" paint-order="fill markers stroke"/><use xlink:href="#B" x="50.649" y="175.759" paint-order="fill markers stroke"/><use xlink:href="#B" y="187.476" paint-order="fill markers stroke"/><use xlink:href="#B" x="12.568" y="187.476" paint-order="fill markers stroke"/><use xlink:href="#B" x="25.325" y="187.476" paint-order="fill markers stroke"/><use xlink:href="#B" x="38.082" y="187.476" paint-order="fill markers stroke"/><use xlink:href="#B" x="50.649" y="187.476" paint-order="fill markers stroke"/><use xlink:href="#B" y="199.193" paint-order="fill markers stroke"/><use xlink:href="#B" x="12.568" y="199.193" paint-order="fill markers stroke"/><use xlink:href="#B" x="25.325" y="199.193" paint-order="fill markers stroke"/><use xlink:href="#B" x="38.082" y="199.193" paint-order="fill markers stroke"/><use xlink:href="#B" x="50.649" y="199.193" paint-order="fill markers stroke"/><g transform="matrix(.780505 0 0 1 162.37741 329.460377)"><use xlink:href="#B" y="-298.313" paint-order="fill markers stroke"/><use xlink:href="#B" x="12.568" y="-298.313" paint-order="fill markers stroke"/><use xlink:href="#B" x="25.325" y="-298.313" paint-order="fill markers stroke"/><use xlink:href="#B" x="38.082" y="-298.313" paint-order="fill markers stroke"/><use xlink:href="#B" y="-286.596" paint-order="fill markers stroke"/><use xlink:href="#B" x="12.568" y="-286.596" paint-order="fill markers stroke"/><use xlink:href="#B" x="25.325" y="-286.596" paint-order="fill markers stroke"/><use xlink:href="#B" x="38.082" y="-286.596" paint-order="fill markers stroke"/><use xlink:href="#B" y="-274.878" paint-order="fill markers stroke"/><use xlink:href="#B" x="12.568" y="-274.878" paint-order="fill markers stroke"/><use xlink:href="#B" x="25.325" y="-274.878" paint-order="fill markers stroke"/><use xlink:href="#B" x="38.082" y="-274.878" paint-order="fill markers stroke"/><use xlink:href="#B" y="-263.161" paint-order="fill markers stroke"/><use xlink:href="#B" x="12.568" y="-263.161" paint-order="fill markers stroke"/><use xlink:href="#B" x="25.325" y="-263.161" paint-order="fill markers stroke"/><use xlink:href="#B" x="38.082" y="-263.161" paint-order="fill markers stroke"/><use xlink:href="#B" y="-251.444" paint-order="fill markers stroke"/><use xlink:href="#B" x="12.568" y="-251.444" paint-order="fill markers stroke"/><use xlink:href="#B" x="25.325" y="-251.444" paint-order="fill markers stroke"/><use xlink:href="#B" x="38.082" y="-251.444" paint-order="fill markers stroke"/><use xlink:href="#B" y="-239.727" paint-order="fill markers stroke"/><use xlink:href="#B" x="12.568" y="-239.727" paint-order="fill markers stroke"/><use xlink:href="#B" x="25.325" y="-239.727" paint-order="fill markers stroke"/><use xlink:href="#B" x="38.082" y="-239.727" paint-order="fill markers stroke"/><use xlink:href="#B" y="-228.009" paint-order="fill markers stroke"/><use xlink:href="#B" x="12.568" y="-228.009" paint-order="fill markers stroke"/><use xlink:href="#B" x="25.325" y="-228.009" paint-order="fill markers stroke"/><use xlink:href="#B" x="38.082" y="-228.009" paint-order="fill markers stroke"/><use xlink:href="#B" y="-216.292" paint-order="fill markers stroke"/><use xlink:href="#B" x="12.568" y="-216.292" paint-order="fill markers stroke"/><use xlink:href="#B" x="25.325" y="-216.292" paint-order="fill markers stroke"/><use xlink:href="#B" x="38.082" y="-216.292" paint-order="fill markers stroke"/><use xlink:href="#B" y="-204.575" paint-order="fill markers stroke"/><use xlink:href="#B" x="12.568" y="-204.575" paint-order="fill markers stroke"/><use xlink:href="#B" x="25.325" y="-204.575" paint-order="fill markers stroke"/><use xlink:href="#B" x="38.082" y="-204.575" paint-order="fill markers stroke"/><use xlink:href="#B" y="-192.858" paint-order="fill markers stroke"/><use xlink:href="#B" x="12.568" y="-192.858" paint-order="fill markers stroke"/><use xlink:href="#B" x="25.325" y="-192.858" paint-order="fill markers stroke"/><use xlink:href="#B" x="38.082" y="-192.858" paint-order="fill markers stroke"/><use xlink:href="#B" y="-181.14" paint-order="fill markers stroke"/><use xlink:href="#B" x="12.568" y="-181.14" paint-order="fill markers stroke"/><use xlink:href="#B" x="25.325" y="-181.14" paint-order="fill markers stroke"/><use xlink:href="#B" x="38.082" y="-181.14" paint-order="fill markers stroke"/><use xlink:href="#B" y="-169.423" paint-order="fill markers stroke"/><use xlink:href="#B" x="12.568" y="-169.423" paint-order="fill markers stroke"/><use xlink:href="#B" x="25.325" y="-169.423" paint-order="fill markers stroke"/><use xlink:href="#B" x="38.082" y="-169.423" paint-order="fill markers stroke"/><use xlink:href="#B" y="-157.706" paint-order="fill markers stroke"/><use xlink:href="#B" x="12.568" y="-157.706" paint-order="fill markers stroke"/><use xlink:href="#B" x="25.325" y="-157.706" paint-order="fill markers stroke"/><use xlink:href="#B" x="38.082" y="-157.706" paint-order="fill markers stroke"/><use xlink:href="#B" y="-145.989" paint-order="fill markers stroke"/><use xlink:href="#B" x="12.568" y="-145.989" paint-order="fill markers stroke"/><use xlink:href="#B" x="25.325" y="-145.989" paint-order="fill markers stroke"/><use xlink:href="#B" x="38.082" y="-145.989" paint-order="fill markers stroke"/><use xlink:href="#B" y="-134.271" paint-order="fill markers stroke"/><use xlink:href="#B" x="12.568" y="-134.271" paint-order="fill markers stroke"/><use xlink:href="#B" x="25.325" y="-134.271" paint-order="fill markers stroke"/><use xlink:href="#B" x="38.082" y="-134.271" paint-order="fill markers stroke"/><use xlink:href="#B" y="-122.554" paint-order="fill markers stroke"/><use xlink:href="#B" x="12.568" y="-122.554" paint-order="fill markers stroke"/><use xlink:href="#B" x="25.325" y="-122.554" paint-order="fill markers stroke"/><use xlink:href="#B" x="38.082" y="-122.554" paint-order="fill markers stroke"/><use xlink:href="#B" y="-110.837" paint-order="fill markers stroke"/><use xlink:href="#B" x="12.568" y="-110.837" paint-order="fill markers stroke"/><use xlink:href="#B" x="25.325" y="-110.837" paint-order="fill markers stroke"/><use xlink:href="#B" x="38.082" y="-110.837" paint-order="fill markers stroke"/><use xlink:href="#B" y="-99.12" paint-order="fill markers stroke"/><use xlink:href="#B" x="12.568" y="-99.12" paint-order="fill markers stroke"/><use xlink:href="#B" x="25.325" y="-99.12" paint-order="fill markers stroke"/><use xlink:href="#B" x="38.082" y="-99.12" paint-order="fill markers stroke"/></g><g transform="matrix(.938321 0 0 1 712.01258 297.37652)"><use xlink:href="#B" y="-298.313" paint-order="fill markers stroke"/><use xlink:href="#B" x="12.568" y="-298.313" paint-order="fill markers stroke"/><use xlink:href="#B" x="25.325" y="-298.313" paint-order="fill markers stroke"/><use xlink:href="#B" x="38.082" y="-298.313" paint-order="fill markers stroke"/><use xlink:href="#B" x="50.649" y="-298.313" paint-order="fill markers stroke"/><use xlink:href="#B" y="-286.596" paint-order="fill markers stroke"/><use xlink:href="#B" x="12.568" y="-286.596" paint-order="fill markers stroke"/><use xlink:href="#B" x="25.325" y="-286.596" paint-order="fill markers stroke"/><use xlink:href="#B" x="38.082" y="-286.596" paint-order="fill markers stroke"/><use xlink:href="#B" x="50.649" y="-286.596" paint-order="fill markers stroke"/><use xlink:href="#B" y="-274.878" paint-order="fill markers stroke"/><use xlink:href="#B" x="12.568" y="-274.878" paint-order="fill markers stroke"/><use xlink:href="#B" x="25.325" y="-274.878" paint-order="fill markers stroke"/><use xlink:href="#B" x="38.082" y="-274.878" paint-order="fill markers stroke"/><use xlink:href="#B" x="50.649" y="-274.878" paint-order="fill markers stroke"/><use xlink:href="#B" y="-263.161" paint-order="fill markers stroke"/><use xlink:href="#B" x="12.568" y="-263.161" paint-order="fill markers stroke"/><use xlink:href="#B" x="25.325" y="-263.161" paint-order="fill markers stroke"/><use xlink:href="#B" x="38.082" y="-263.161" paint-order="fill markers stroke"/><use xlink:href="#B" x="50.649" y="-263.161" paint-order="fill markers stroke"/><use xlink:href="#B" y="-251.444" paint-order="fill markers stroke"/><use xlink:href="#B" x="12.568" y="-251.444" paint-order="fill markers stroke"/><use xlink:href="#B" x="25.325" y="-251.444" paint-order="fill markers stroke"/><use xlink:href="#B" x="38.082" y="-251.444" paint-order="fill markers stroke"/><use xlink:href="#B" x="50.649" y="-251.444" paint-order="fill markers stroke"/><use xlink:href="#B" y="-239.727" paint-order="fill markers stroke"/><use xlink:href="#B" x="12.568" y="-239.727" paint-order="fill markers stroke"/><use xlink:href="#B" x="25.325" y="-239.727" paint-order="fill markers stroke"/><use xlink:href="#B" x="38.082" y="-239.727" paint-order="fill markers stroke"/><use xlink:href="#B" x="50.649" y="-239.727" paint-order="fill markers stroke"/><use xlink:href="#B" y="-228.009" paint-order="fill markers stroke"/><use xlink:href="#B" x="12.568" y="-228.009" paint-order="fill markers stroke"/><use xlink:href="#B" x="25.325" y="-228.009" paint-order="fill markers stroke"/><use xlink:href="#B" x="38.082" y="-228.009" paint-order="fill markers stroke"/><use xlink:href="#B" x="50.649" y="-228.009" paint-order="fill markers stroke"/><use xlink:href="#B" y="-216.292" paint-order="fill markers stroke"/><use xlink:href="#B" x="12.568" y="-216.292" paint-order="fill markers stroke"/><use xlink:href="#B" x="25.325" y="-216.292" paint-order="fill markers stroke"/><use xlink:href="#B" x="38.082" y="-216.292" paint-order="fill markers stroke"/><use xlink:href="#B" x="50.649" y="-216.292" paint-order="fill markers stroke"/><use xlink:href="#B" y="-204.575" paint-order="fill markers stroke"/><use xlink:href="#B" x="12.568" y="-204.575" paint-order="fill markers stroke"/><use xlink:href="#B" x="25.325" y="-204.575" paint-order="fill markers stroke"/><use xlink:href="#B" x="38.082" y="-204.575" paint-order="fill markers stroke"/><use xlink:href="#B" x="50.649" y="-204.575" paint-order="fill markers stroke"/><use xlink:href="#B" y="-192.858" paint-order="fill markers stroke"/><use xlink:href="#B" x="12.568" y="-192.858" paint-order="fill markers stroke"/><use xlink:href="#B" x="25.325" y="-192.858" paint-order="fill markers stroke"/><use xlink:href="#B" x="38.082" y="-192.858" paint-order="fill markers stroke"/><use xlink:href="#B" x="50.649" y="-192.858" paint-order="fill markers stroke"/><use xlink:href="#B" y="-181.14" paint-order="fill markers stroke"/><use xlink:href="#B" x="12.568" y="-181.14" paint-order="fill markers stroke"/><use xlink:href="#B" x="25.325" y="-181.14" paint-order="fill markers stroke"/><use xlink:href="#B" x="38.082" y="-181.14" paint-order="fill markers stroke"/><use xlink:href="#B" x="50.649" y="-181.14" paint-order="fill markers stroke"/><use xlink:href="#B" y="-169.423" paint-order="fill markers stroke"/><use xlink:href="#B" x="12.568" y="-169.423" paint-order="fill markers stroke"/><use xlink:href="#B" x="25.325" y="-169.423" paint-order="fill markers stroke"/><use xlink:href="#B" x="38.082" y="-169.423" paint-order="fill markers stroke"/><use xlink:href="#B" x="50.649" y="-169.423" paint-order="fill markers stroke"/><use xlink:href="#B" y="-157.706" paint-order="fill markers stroke"/><use xlink:href="#B" x="12.568" y="-157.706" paint-order="fill markers stroke"/><use xlink:href="#B" x="25.325" y="-157.706" paint-order="fill markers stroke"/><use xlink:href="#B" x="38.082" y="-157.706" paint-order="fill markers stroke"/><use xlink:href="#B" x="50.649" y="-157.706" paint-order="fill markers stroke"/><use xlink:href="#B" y="-145.989" paint-order="fill markers stroke"/><use xlink:href="#B" x="12.568" y="-145.989" paint-order="fill markers stroke"/><use xlink:href="#B" x="25.325" y="-145.989" paint-order="fill markers stroke"/><use xlink:href="#B" x="38.082" y="-145.989" paint-order="fill markers stroke"/><use xlink:href="#B" x="50.649" y="-145.989" paint-order="fill markers stroke"/><use xlink:href="#B" y="-134.271" paint-order="fill markers stroke"/><use xlink:href="#B" x="12.568" y="-134.271" paint-order="fill markers stroke"/><use xlink:href="#B" x="25.325" y="-134.271" paint-order="fill markers stroke"/><use xlink:href="#B" x="38.082" y="-134.271" paint-order="fill markers stroke"/><use xlink:href="#B" x="50.649" y="-134.271" paint-order="fill markers stroke"/><use xlink:href="#B" y="-122.554" paint-order="fill markers stroke"/><use xlink:href="#B" x="12.568" y="-122.554" paint-order="fill markers stroke"/><use xlink:href="#B" x="25.325" y="-122.554" paint-order="fill markers stroke"/><use xlink:href="#B" x="38.082" y="-122.554" paint-order="fill markers stroke"/><use xlink:href="#B" x="50.649" y="-122.554" paint-order="fill markers stroke"/><use xlink:href="#B" y="-110.837" paint-order="fill markers stroke"/><use xlink:href="#B" x="12.568" y="-110.837" paint-order="fill markers stroke"/><use xlink:href="#B" x="25.325" y="-110.837" paint-order="fill markers stroke"/><use xlink:href="#B" x="38.082" y="-110.837" paint-order="fill markers stroke"/><use xlink:href="#B" x="50.649" y="-110.837" paint-order="fill markers stroke"/><use xlink:href="#B" y="-99.12" paint-order="fill markers stroke"/><use xlink:href="#B" x="12.568" y="-99.12" paint-order="fill markers stroke"/><use xlink:href="#B" x="25.325" y="-99.12" paint-order="fill markers stroke"/><use xlink:href="#B" x="38.082" y="-99.12" paint-order="fill markers stroke"/><use xlink:href="#B" x="50.649" y="-99.12" paint-order="fill markers stroke"/></g><g transform="matrix(.780505 0 0 1 549.77094 318.818202)"><use xlink:href="#B" y="-298.313" paint-order="fill markers stroke"/><use xlink:href="#B" x="12.568" y="-298.313" paint-order="fill markers stroke"/><use xlink:href="#B" x="25.325" y="-298.313" paint-order="fill markers stroke"/><use xlink:href="#B" x="38.082" y="-298.313" paint-order="fill markers stroke"/><use xlink:href="#B" y="-286.596" paint-order="fill markers stroke"/><use xlink:href="#B" x="12.568" y="-286.596" paint-order="fill markers stroke"/><use xlink:href="#B" x="25.325" y="-286.596" paint-order="fill markers stroke"/><use xlink:href="#B" x="38.082" y="-286.596" paint-order="fill markers stroke"/><use xlink:href="#B" y="-274.878" paint-order="fill markers stroke"/><use xlink:href="#B" x="12.568" y="-274.878" paint-order="fill markers stroke"/><use xlink:href="#B" x="25.325" y="-274.878" paint-order="fill markers stroke"/><use xlink:href="#B" x="38.082" y="-274.878" paint-order="fill markers stroke"/><use xlink:href="#B" y="-263.161" paint-order="fill markers stroke"/><use xlink:href="#B" x="12.568" y="-263.161" paint-order="fill markers stroke"/><use xlink:href="#B" x="25.325" y="-263.161" paint-order="fill markers stroke"/><use xlink:href="#B" x="38.082" y="-263.161" paint-order="fill markers stroke"/><use xlink:href="#B" y="-251.444" paint-order="fill markers stroke"/><use xlink:href="#B" x="12.568" y="-251.444" paint-order="fill markers stroke"/><use xlink:href="#B" x="25.325" y="-251.444" paint-order="fill markers stroke"/><use xlink:href="#B" x="38.082" y="-251.444" paint-order="fill markers stroke"/><use xlink:href="#B" y="-239.727" paint-order="fill markers stroke"/><use xlink:href="#B" x="12.568" y="-239.727" paint-order="fill markers stroke"/><use xlink:href="#B" x="25.325" y="-239.727" paint-order="fill markers stroke"/><use xlink:href="#B" x="38.082" y="-239.727" paint-order="fill markers stroke"/><use xlink:href="#B" y="-228.009" paint-order="fill markers stroke"/><use xlink:href="#B" x="12.568" y="-228.009" paint-order="fill markers stroke"/><use xlink:href="#B" x="25.325" y="-228.009" paint-order="fill markers stroke"/><use xlink:href="#B" x="38.082" y="-228.009" paint-order="fill markers stroke"/><use xlink:href="#B" y="-216.292" paint-order="fill markers stroke"/><use xlink:href="#B" x="12.568" y="-216.292" paint-order="fill markers stroke"/><use xlink:href="#B" x="25.325" y="-216.292" paint-order="fill markers stroke"/><use xlink:href="#B" x="38.082" y="-216.292" paint-order="fill markers stroke"/><use xlink:href="#B" y="-204.575" paint-order="fill markers stroke"/><use xlink:href="#B" x="12.568" y="-204.575" paint-order="fill markers stroke"/><use xlink:href="#B" x="25.325" y="-204.575" paint-order="fill markers stroke"/><use xlink:href="#B" x="38.082" y="-204.575" paint-order="fill markers stroke"/><use xlink:href="#B" y="-192.858" paint-order="fill markers stroke"/><use xlink:href="#B" x="12.568" y="-192.858" paint-order="fill markers stroke"/><use xlink:href="#B" x="25.325" y="-192.858" paint-order="fill markers stroke"/><use xlink:href="#B" x="38.082" y="-192.858" paint-order="fill markers stroke"/><use xlink:href="#B" y="-181.14" paint-order="fill markers stroke"/><use xlink:href="#B" x="12.568" y="-181.14" paint-order="fill markers stroke"/><use xlink:href="#B" x="25.325" y="-181.14" paint-order="fill markers stroke"/><use xlink:href="#B" x="38.082" y="-181.14" paint-order="fill markers stroke"/><use xlink:href="#B" y="-169.423" paint-order="fill markers stroke"/><use xlink:href="#B" x="12.568" y="-169.423" paint-order="fill markers stroke"/><use xlink:href="#B" x="25.325" y="-169.423" paint-order="fill markers stroke"/><use xlink:href="#B" x="38.082" y="-169.423" paint-order="fill markers stroke"/><use xlink:href="#B" y="-157.706" paint-order="fill markers stroke"/><use xlink:href="#B" x="12.568" y="-157.706" paint-order="fill markers stroke"/><use xlink:href="#B" x="25.325" y="-157.706" paint-order="fill markers stroke"/><use xlink:href="#B" x="38.082" y="-157.706" paint-order="fill markers stroke"/><use xlink:href="#B" y="-145.989" paint-order="fill markers stroke"/><use xlink:href="#B" x="12.568" y="-145.989" paint-order="fill markers stroke"/><use xlink:href="#B" x="25.325" y="-145.989" paint-order="fill markers stroke"/><use xlink:href="#B" x="38.082" y="-145.989" paint-order="fill markers stroke"/><use xlink:href="#B" y="-134.271" paint-order="fill markers stroke"/><use xlink:href="#B" x="12.568" y="-134.271" paint-order="fill markers stroke"/><use xlink:href="#B" x="25.325" y="-134.271" paint-order="fill markers stroke"/><use xlink:href="#B" x="38.082" y="-134.271" paint-order="fill markers stroke"/><use xlink:href="#B" y="-122.554" paint-order="fill markers stroke"/><use xlink:href="#B" x="12.568" y="-122.554" paint-order="fill markers stroke"/><use xlink:href="#B" x="25.325" y="-122.554" paint-order="fill markers stroke"/><use xlink:href="#B" x="38.082" y="-122.554" paint-order="fill markers stroke"/><use xlink:href="#B" y="-110.837" paint-order="fill markers stroke"/><use xlink:href="#B" x="12.568" y="-110.837" paint-order="fill markers stroke"/><use xlink:href="#B" x="25.325" y="-110.837" paint-order="fill markers stroke"/><use xlink:href="#B" x="38.082" y="-110.837" paint-order="fill markers stroke"/><use xlink:href="#B" y="-99.12" paint-order="fill markers stroke"/><use xlink:href="#B" x="12.568" y="-99.12" paint-order="fill markers stroke"/><use xlink:href="#B" x="25.325" y="-99.12" paint-order="fill markers stroke"/><use xlink:href="#B" x="38.082" y="-99.12" paint-order="fill markers stroke"/></g><use xlink:href="#C" paint-order="fill markers stroke"/><use xlink:href="#C" x="9.809" paint-order="fill markers stroke"/><use xlink:href="#C" x="19.765" paint-order="fill markers stroke"/><use xlink:href="#C" x="29.722" paint-order="fill markers stroke"/><use xlink:href="#C" y="12.218" paint-order="fill markers stroke"/><use xlink:href="#C" x="9.809" y="12.218" paint-order="fill markers stroke"/><use xlink:href="#C" x="19.765" y="12.218" paint-order="fill markers stroke"/><use xlink:href="#C" x="29.722" y="12.218" paint-order="fill markers stroke"/><use xlink:href="#C" y="24.436" paint-order="fill markers stroke"/><use xlink:href="#C" x="9.809" y="24.436" paint-order="fill markers stroke"/><use xlink:href="#C" x="19.765" y="24.436" paint-order="fill markers stroke"/><use xlink:href="#C" x="29.722" y="24.436" paint-order="fill markers stroke"/><use xlink:href="#C" y="36.654" paint-order="fill markers stroke"/><use xlink:href="#C" x="9.809" y="36.654" paint-order="fill markers stroke"/><use xlink:href="#C" x="19.765" y="36.654" paint-order="fill markers stroke"/><use xlink:href="#C" x="29.722" y="36.654" paint-order="fill markers stroke"/><use xlink:href="#C" y="48.872" paint-order="fill markers stroke"/><use xlink:href="#C" x="9.809" y="48.872" paint-order="fill markers stroke"/><use xlink:href="#C" x="19.765" y="48.872" paint-order="fill markers stroke"/><use xlink:href="#C" x="29.722" y="48.872" paint-order="fill markers stroke"/><use xlink:href="#C" y="61.09" paint-order="fill markers stroke"/><use xlink:href="#C" x="9.809" y="61.09" paint-order="fill markers stroke"/><use xlink:href="#C" x="19.765" y="61.09" paint-order="fill markers stroke"/><use xlink:href="#C" x="29.722" y="61.09" paint-order="fill markers stroke"/><use xlink:href="#C" y="73.309" paint-order="fill markers stroke"/><use xlink:href="#C" x="9.809" y="73.309" paint-order="fill markers stroke"/><use xlink:href="#C" x="19.765" y="73.309" paint-order="fill markers stroke"/><use xlink:href="#C" x="29.722" y="73.309" paint-order="fill markers stroke"/><use xlink:href="#C" y="85.527" paint-order="fill markers stroke"/><use xlink:href="#C" x="9.809" y="85.527" paint-order="fill markers stroke"/><use xlink:href="#C" x="19.765" y="85.527" paint-order="fill markers stroke"/><use xlink:href="#C" x="29.722" y="85.527" paint-order="fill markers stroke"/><use xlink:href="#C" y="97.745" paint-order="fill markers stroke"/><use xlink:href="#C" x="9.809" y="97.745" paint-order="fill markers stroke"/><use xlink:href="#C" x="19.765" y="97.745" paint-order="fill markers stroke"/><use xlink:href="#C" x="29.722" y="97.745" paint-order="fill markers stroke"/><use xlink:href="#C" y="109.963" paint-order="fill markers stroke"/><use xlink:href="#C" x="9.809" y="109.963" paint-order="fill markers stroke"/><use xlink:href="#C" x="19.765" y="109.963" paint-order="fill markers stroke"/><use xlink:href="#C" x="29.722" y="109.963" paint-order="fill markers stroke"/><use xlink:href="#C" y="122.181" paint-order="fill markers stroke"/><use xlink:href="#C" x="9.809" y="122.181" paint-order="fill markers stroke"/><use xlink:href="#C" x="19.765" y="122.181" paint-order="fill markers stroke"/><use xlink:href="#C" x="29.722" y="122.181" paint-order="fill markers stroke"/><use xlink:href="#C" y="134.399" paint-order="fill markers stroke"/><use xlink:href="#C" x="9.809" y="134.399" paint-order="fill markers stroke"/><use xlink:href="#C" x="19.765" y="134.399" paint-order="fill markers stroke"/><use xlink:href="#C" x="29.722" y="134.399" paint-order="fill markers stroke"/><use xlink:href="#C" y="146.617" paint-order="fill markers stroke"/><use xlink:href="#C" x="9.809" y="146.617" paint-order="fill markers stroke"/><use xlink:href="#C" x="19.765" y="146.617" paint-order="fill markers stroke"/><use xlink:href="#C" x="29.722" y="146.617" paint-order="fill markers stroke"/><use xlink:href="#C" y="158.835" paint-order="fill markers stroke"/><use xlink:href="#C" x="9.809" y="158.835" paint-order="fill markers stroke"/><use xlink:href="#C" x="19.765" y="158.835" paint-order="fill markers stroke"/><use xlink:href="#C" x="29.722" y="158.835" paint-order="fill markers stroke"/><use xlink:href="#C" y="171.053" paint-order="fill markers stroke"/><use xlink:href="#C" x="9.809" y="171.053" paint-order="fill markers stroke"/><use xlink:href="#C" x="19.765" y="171.053" paint-order="fill markers stroke"/><use xlink:href="#C" x="29.722" y="171.053" paint-order="fill markers stroke"/><use xlink:href="#C" y="183.271" paint-order="fill markers stroke"/><use xlink:href="#C" x="9.809" y="183.271" paint-order="fill markers stroke"/><use xlink:href="#C" x="19.765" y="183.271" paint-order="fill markers stroke"/><use xlink:href="#C" x="29.722" y="183.271" paint-order="fill markers stroke"/><use xlink:href="#C" y="195.489" paint-order="fill markers stroke"/><use xlink:href="#C" x="9.809" y="195.49" paint-order="fill markers stroke"/><use xlink:href="#C" x="19.765" y="195.489" paint-order="fill markers stroke"/><use xlink:href="#C" x="29.722" y="195.489" paint-order="fill markers stroke"/><use xlink:href="#C" y="207.708" paint-order="fill markers stroke"/><use xlink:href="#C" x="9.809" y="207.708" paint-order="fill markers stroke"/><use xlink:href="#C" x="19.765" y="207.708" paint-order="fill markers stroke"/><use xlink:href="#C" x="29.722" y="207.708" paint-order="fill markers stroke"/><use xlink:href="#C" x="-1.069" y="219.926" paint-order="fill markers stroke"/><use xlink:href="#C" x="8.74" y="219.926" paint-order="fill markers stroke"/><use xlink:href="#C" x="18.696" y="219.926" paint-order="fill markers stroke"/><use xlink:href="#C" x="28.653" y="219.926" paint-order="fill markers stroke"/><use xlink:href="#C" x="-1.069" y="232.144" paint-order="fill markers stroke"/><use xlink:href="#C" x="8.74" y="232.144" paint-order="fill markers stroke"/><use xlink:href="#C" x="18.696" y="232.144" paint-order="fill markers stroke"/><use xlink:href="#C" x="28.653" y="232.144" paint-order="fill markers stroke"/><use xlink:href="#C" x="-0.802" y="244.362" paint-order="fill markers stroke"/><use xlink:href="#C" x="9.007" y="244.362" paint-order="fill markers stroke"/><use xlink:href="#C" x="18.964" y="244.362" paint-order="fill markers stroke"/><use xlink:href="#C" x="28.92" y="244.362" paint-order="fill markers stroke"/></g><g fill="#159cdc"><use xlink:href="#D"/><path d="M765.696 138.11s-.275-2.542 1.409-3.699 3.875-.528 3.875-.528-.56-6.342 2.666-8.704 7.902-1.159 7.902-1.159 1.26-7.202 8.625-7.502 10.335 4.24 10.335 4.24 2.839-3.238 8.228-1.615 4.722 8.278 4.722 8.278 3.373-2.58 6.641.528.718 6.717.718 6.717 2.952-1.24 4.224.077.187 3.192.187 3.192z"/><use xlink:href="#D" x="-809.72" y="28.438"/><use xlink:href="#D" x="-252.944" y="-43.404"/><path d="M402.881 147.495s-.334-3.137 1.708-4.563 4.697-.652 4.697-.652-.679-7.825 3.231-10.74 9.578-1.43 9.578-1.43 1.528-8.885 10.456-9.257 12.527 5.231 12.527 5.231 3.441-3.995 9.973-1.993 5.724 10.214 5.724 10.214 4.088-3.183 8.05.651.871 8.289.871 8.289 3.579-1.531 5.12.095.227 3.937.227 3.937l-72.162.218z"/></g><defs ><path id="B" d="M215.824 203.068h10.016v8.032h-10.016z"/><path id="C" d="M602.803 254.851h7.818v8.032h-7.818z"/><path id="D" d="M877.888 108.744s-.414-3.819 2.117-5.556 5.821-.794 5.821-.794-.841-9.527 4.005-13.076 11.87-1.741 11.87-1.741 1.892-10.819 12.957-11.27 15.525 6.369 15.525 6.369 4.265-4.864 12.361-2.427 7.093 12.435 7.093 12.435 5.067-3.875 9.977.794 1.079 10.09 1.079 10.09 4.435-1.862 6.345.116.281 4.795.281 4.795z"/></defs></svg>