<svg xmlns="http://www.w3.org/2000/svg" xmlns:xlink="http://www.w3.org/1999/xlink" width="1600" height="1200" fill="none" xmlns:v="https://vecta.io/nano"><style><![CDATA[.B{fill:#000}.C{fill:#2980b9}.D{fill:#fff}.E{opacity:.15}.F{fill:#fc9d9d}.G{fill:#21252b}.H{stroke-miterlimit:10}.I{opacity:.2}.J{stroke-linecap:round}.K{fill:#3f4249}.L{opacity:.3}.M{stroke:#61656d}.N{stroke:#21252b}.O{stroke-width:.93}.P{stroke-width:.75}.Q{fill:#afb3b8}.R{fill:#d7dadc}]]></style><svg width="1600" height="1200"><path d="M1411.35 1083l39.35-382.4a59.23 59.23 0 0 0-2.7-24.3l-139.83-419.39c-7.33-22-27.18-38-51-41.08l-772.652-98.48c-10.535-1.388-21.249-.088-31.147 3.778s-18.657 10.172-25.463 18.332l-265.45 322.7c-9.473 11.423-14.234 26.029-13.31 40.84l36.09 579.15 1226.112.85z" fill="#f4f4f4"/><path d="M1061 741.041l-33-31H519.208l-23.22 31H1061z" class="C"/><path d="M1061 741.041l-33-31H519.208l-23.22 31H1061z" class="B I"/><path d="M1060.84 741.041H501.062V1081.67H1060.84V741.041Z" class="C"/><path d="M1060.84 741.041H501.062V1081.67H1060.84V741.041Z" class="B I"/><path d="M1035.62 369.041H517.211v601.99h518.409v-601.99z" class="D"/><g class="H"><path d="M1012.34 396.051H540.473v547.96h471.867v-547.96z" stroke="#b2b6bb" stroke-width="2.53"/><path d="M606.699 498.13c7.08 0 10.66-.35 14.2.07s7 2.24 14.09 2.24 10.48-2.45 14-2.87 7.2.53 14.27.53c4.718-.095 9.437.105 14.13.6 3.54.43 7.08 2 14.15 2a99.43 99.43 0 0 0 14.28-.95c4.633-.712 9.313-1.069 14-1.07 7.07 0 10.65-.87 14.19-.45s7 1.39 14.09 1.39c4.733.029 9.461-.278 14.15-.92a103.17 103.17 0 0 1 14.13-.83 97.81 97.81 0 0 1 14.12 1c3.53.42 7.1-.48 14.17-.48s10.62.75 14.15.33 7.06-2.13 14.13-2.13 10.81-.07 14.35.36 6.87 2 13.94 2 10.68.66 14.21.24c4.668-.61 9.373-.894 14.08-.85 7.07 0 10.6-.13 14.14.29s7.07 2.25 14.15 2.25a99.45 99.45 0 0 0 14.29-1c3.54-.43 6.92-2.24 14-2.24m-186.211 29.811c7.77 0 7.77 1.75 15.55 1.75s7.77-1.26 15.55-1.26 7.78 1.6 15.55 1.6 7.78-1.77 15.55-1.77 7.78 2.7 15.55 2.7 7.78-2.22 15.56-2.22 7.77 2.4 15.55 2.4 7.78-3.18 15.55-3.18 7.78 2.73 15.56 2.73 7.77-2.6 15.55-2.6 7.78 3.08 15.56 3.08 7.78-3.31 15.56-3.31m-339.405.798c4.67 0 4.67 2.15 9.34 2.15s4.67-2.24 9.34-2.24 4.67 2 9.34 2 4.67-1.36 9.35-1.36 4.67 1.48 9.34 1.48 4.67-1.93 9.34-1.93 4.67 1.33 9.34 1.33 4.67-1.4 9.34-1.4 4.68 1.14 9.35 1.14 4.67-1.65 9.34-1.65 4.68 2.36 9.35 2.36 4.68-2.1 9.35-2.1M674.27 557.48c5.68 0 8.43 2.11 11.27 2.53s5.77-1 11.45-1 8.7 2 11.54 1.62 5.5-2.34 11.18-2.34c3.821-.07 7.641.178 11.42.741 2.84.42 5.62-.061 11.3-.061s8.63 1.591 11.47 1.171 5.57-2.411 11.25-2.411 8.55 1.09 11.39 1.51 5.65-.279 11.33-.279 8.54 1 11.38.57 5.67-1.901 11.35-1.901 8.43 1.93 11.28 2.35a62.64 62.64 0 0 0 11.44 1.06c5.68 0 8.41-1.999 11.25-2.399 3.79-.674 7.632-1.009 11.48-1 5.68 0 8.4 2.15 11.24 2.57a73.82 73.82 0 0 0 11.48.639c5.69 0 8.54-1 11.38-1.37 3.737-.758 7.538-1.153 11.35-1.18a76.05 76.05 0 0 1 11.45.52 73.58 73.58 0 0 0 11.28.55c5.68 0 8.33-.89 11.17-1.31s5.88 1.521 11.56 1.521m-339.409-.891c4.24 0 4.24 1.41 8.48 1.41s4.24-1.69 8.48-1.69 4.24 1.89 8.47 1.89 4.25-1.86 8.49-1.86 4.24 1.69 8.48 1.69m203.272 29.071c6.72 0 6.72 1.91 13.45 1.91s6.72-1.7 13.44-1.7 6.73.82 13.45.82 6.73-1.44 13.46-1.44 6.72 1.88 13.45 1.88 6.73-1.31 13.45-1.31 6.73 1.51 13.46 1.51M725.332 589.5c7.78 0 7.78 1 15.56 1s7.77-1.32 15.55-1.32 7.78 1.2 15.55 1.2 7.78-1.8 15.56-1.8 7.78 1.94 15.56 1.94 7.78-1.8 15.56-1.8 7.78 1.44 15.56 1.44m-226.228-1.22c6.13 0 6.13 1.7 12.25 1.7s6.12-1.25 12.24-1.25 6.13 1.14 12.25 1.14 6.13-1.31 12.25-1.31 6.12 1.34 12.25 1.34 6.13-1.89 12.25-1.89 6.13 2.41 12.26 2.41m-85.363 27.52c7.07 0 10.53 1.89 14.06 2.32s7.15-.37 14.23-.37 10.69.79 14.22.37 7-1.37 14.06-1.37 10.46 1.42 14 1.84 7.21-.43 14.28-.43 10.43-1.81 14-2.24 7.25 1.41 14.32 1.41 10.45 1 14 1.37 7.22-1.23 14.29-1.23 10.44-1 14-1.47 7.24.28 14.31.28c4.736.026 9.464.42 14.14 1.18 3.53.42 7.08.12 14.15.12s10.7 1.06 14.24.64 7-1.33 14-1.33a97.42 97.42 0 0 1 14.09 1c4.691.806 9.44 1.23 14.2 1.27 7.07 0 10.55-1.74 14.09-2.16a90.3 90.3 0 0 1 14.2-1.19c4.767-.129 9.538.015 14.29.43 3.53.42 6.92 2.67 14 2.67s10.43-2.46 14-2.89 7.24 2.23 14.32 2.23m-338.643 30.261c7.07 0 10.62-1.28 14.16-.86s7.05 1.44 14.12 1.44 10.45-2.13 14-2.55 7.22-.36 14.29-.36 10.46 2.48 14 2.9c4.727.786 9.509 1.198 14.3 1.23 7.07 0 10.58-2.21 14.12-2.64 4.695-.559 9.422-.806 14.15-.74 7.07 0 10.52 1.18 14.06 1.6s7.15 0 14.22 0 10.65.06 14.19-.37 7-.21 14.1-.21 10.75-1.77 14.28-1.34 6.93 1.92 14 1.92c4.715-.063 9.417-.508 14.06-1.33 4.694-.814 9.446-1.249 14.21-1.3 4.771-.069 9.541.172 14.28.72 3.53.42 6.93 3.31 14 3.31s10.68-1.19 14.21-1.61a105.31 105.31 0 0 1 14.08-.71c7.07 0 10.74-1.39 14.28-1s6.94 3.44 14 3.44 10.64-1.65 14.17-2.07 7.05-1.66 14.12-1.66m-186.204 31.76c7.78 0 7.78.59 15.55.59s7.78-.66 15.55-.66 7.78.6 15.56.6 7.77-.58 15.55-.58 7.77 1.68 15.55 1.68 7.77-2.88 15.55-2.88 7.78 2.21 15.55 2.21 7.78-.93 15.55-.93 7.78.33 15.56.33 7.78-.65 15.56-.65 7.77 1.69 15.55 1.69 7.78-1.87 15.56-1.87m-339.414-.68c4.67 0 4.67 2.56 9.34 2.56s4.67-2.42 9.34-2.42 4.67 1.74 9.35 1.74 4.67-1 9.34-1 4.67.95 9.34.95 4.67-1.84 9.34-1.84 4.67 2 9.34 2 4.67-2 9.35-2 4.67 1.79 9.34 1.79 4.67-1.44 9.34-1.44 4.68 2 9.35 2 4.68-1.68 9.35-1.68m-44.979 29.279a63.11 63.11 0 0 1 11.46 1.05c3.73.518 7.495.735 11.26.65 5.68 0 8.59.92 11.43.5 3.719-.728 7.5-1.099 11.29-1.11 5.68 0 8.35 1.37 11.19 1.79a73.49 73.49 0 0 0 11.54.68c3.858.113 7.719-.064 11.55-.53 2.84-.42 5.49-2.17 11.17-2.17s8.4 1.22 11.24 1.64 5.8.22 11.48.22 8.63.16 11.47-.27 5.57-2.09 11.25-2.09a64.59 64.59 0 0 1 11.42 1c2.84.42 5.62 2 11.31 2s8.55-1 11.39-1.39 5.65.3 11.33.3c3.747-.118 7.497.045 11.22.49a68.76 68.76 0 0 0 11.51.84c5.68 0 8.49-1.61 11.33-2 3.769-.563 7.579-.811 11.39-.74 5.69 0 8.65-.32 11.49.11s5.56 1.9 11.24 1.9a62.11 62.11 0 0 0 11.37-1c2.84-.42 5.68.46 11.36.46m-339.409-1.65c5.3 0 5.3 1.73 10.6 1.73s5.3-1.61 10.6-1.61 5.3 1.8 10.6 1.8 5.3-1.71 10.6-1.71m203.272 30.741c6.73 0 6.73 1.42 13.45 1.42s6.72-1.78 13.45-1.78 6.72 1.26 13.45 1.26 6.72-1.48 13.45-1.48 6.72 1.83 13.45 1.83 6.73-1.58 13.46-1.58 6.73 1.52 13.46 1.52m-222.065-1.962c7.78 0 7.78 2.27 15.56 2.27s7.78-1.3 15.56-1.3 7.77.67 15.55.67 7.78-.85 15.56-.85 7.78 1.48 15.55 1.48 7.79-1.79 15.57-1.79 7.78 2.16 15.56 2.16m-226.265-1.909c6.13 0 6.13 1.35 12.25 1.35s6.12-1.76 12.25-1.76 6.12 1.92 12.24 1.92 6.13-1.87 12.25-1.87 6.13 1.57 12.25 1.57 6.13-1.33 12.26-1.33 6.12 1.79 12.25 1.79m-85.32 29.151c7.07 0 10.45.94 14 1.36a98.72 98.72 0 0 0 14.29 1 101.51 101.51 0 0 0 14.3-1c3.53-.43 6.91-3.14 14-3.14s10.65 1 14.19 1.45 7-.24 14.09-.24 10.53.39 14.07 0 7.14.45 14.21.45a102.45 102.45 0 0 1 14.07.82c3.53.42 7.14-.74 14.21-.74 4.686.002 9.366-.349 14-1.05a109.19 109.19 0 0 1 14.28-.74c7.07 0 10.64 1.16 14.18 1.58s7 2.42 14.1 2.42 10.42-3.28 14-3.71 7.26.4 14.34.4 10.46 2 14 2.4 7.21-.09 14.28-.09 10.71.14 14.24-.29c4.654-.419 9.328-.566 14-.44 7.07 0 10.54-.2 14.07.23s7.15 1.74 14.22 1.74 10.53-2.59 14.06-3 7.16-1.69 14.23-1.69M611.77 802.999c7.07 0 10.61-.81 14.14-.38s7.07-.13 14.14-.13 10.56.18 14.1-.25 7.11-.25 14.18-.25 10.76-1 14.29-.58 6.93 1.58 14 1.58 10.49-.87 14-1.3 7.18.71 14.25.71 10.6-.2 14.14.22 7.07 1.6 14.14 1.6c4.755.014 9.505-.32 14.21-1 3.53-.43 7-2.94 14.07-2.94s10.51 2.75 14 3.17c4.716.642 9.472.946 14.23.91 7.08 0 10.45-2.65 14-3.07s7.34 1.71 14.34 1.71 10.65-1.17 14.18-.75 7 2.26 14.11 2.26 10.62-1.38 14.16-1.81a102.87 102.87 0 0 1 14.12-.83c4.72.022 9.431.413 14.09 1.17 3.54.42 7.13 1.47 14.2 1.47s10.64-1.3 14.17-1.72a93.76 93.76 0 0 1 14.12-1.09M612.191 832.28c4.67 0 4.67 1.71 9.34 1.71s4.67-1.75 9.35-1.75 4.67 1.87 9.34 1.87 4.67-1.77 9.34-1.77 4.67 1.81 9.34 1.81 4.67-2.51 9.34-2.51 4.67 1.65 9.35 1.65 4.67-1.25 9.34-1.25 4.67 1.44 9.34 1.44 4.68-1.9 9.35-1.9 4.67 1.79 9.35 1.79 4.67-.92 9.35-.92" stroke="#3f4249" stroke-width="1.2" class="J"/></g><path d="M711.516 475.12c-1.451 0-2.631-.475-3.541-1.425-.911-.956-1.366-2.232-1.366-3.828v-.337c0-1.061.202-2.008.604-2.839.409-.837.976-1.49 1.701-1.958a4.28 4.28 0 0 1 2.375-.713c1.391 0 2.473.459 3.244 1.375s1.158 2.229 1.158 3.938v.761h-7.251c.026 1.056.333 1.91.92 2.562.593.647 1.345.97 2.255.97.646 0 1.194-.132 1.642-.396a4.13 4.13 0 0 0 1.177-1.048l1.118.87c-.897 1.379-2.242 2.068-4.036 2.068zm-.227-9.596a2.43 2.43 0 0 0-1.86.811c-.501.534-.811 1.286-.93 2.256h5.362v-.139c-.053-.93-.304-1.649-.752-2.156-.449-.515-1.055-.772-1.82-.772zm6.469 12.267l-1.038-.713c.62-.863.943-1.754.969-2.671v-1.652h1.791v1.435c0 .666-.165 1.332-.495 1.998-.323.666-.732 1.2-1.227 1.603zm52.188 343.817l4.708 11.753 4.709-11.753h2.464v14.404h-1.9v-5.609l.178-6.055-4.728 11.664h-1.455l-4.718-11.634.188 6.025v5.609h-1.9v-14.404h2.454zm16.936 14.404h-1.831v-10.704h1.831v10.704zm-1.979-13.543c0-.297.089-.548.267-.752.185-.205.455-.307.811-.307s.627.102.812.307a1.08 1.08 0 0 1 .277.752c0 .297-.093.544-.277.742s-.455.296-.812.296-.626-.098-.811-.296c-.178-.198-.267-.445-.267-.742zm8.419 10.862l2.493-8.023h1.958l-4.303 12.356c-.666 1.78-1.725 2.671-3.175 2.671l-.347-.03-.682-.129v-1.483l.494.039c.62 0 1.102-.125 1.445-.376.349-.25.636-.709.86-1.375l.406-1.088-3.819-10.585h1.999l2.671 8.023zm12.543 2.681c-.105-.211-.191-.587-.257-1.128-.851.884-1.866 1.326-3.047 1.326-1.055 0-1.922-.297-2.601-.891-.673-.6-1.009-1.358-1.009-2.275 0-1.115.422-1.979 1.266-2.592.851-.62 2.044-.93 3.581-.93h1.781v-.841c0-.639-.192-1.147-.574-1.523-.383-.383-.947-.574-1.692-.574-.653 0-1.2.165-1.642.495s-.663.728-.663 1.197h-1.84c0-.534.188-1.049.564-1.544.383-.501.897-.896 1.543-1.187.653-.29 1.369-.435 2.147-.435 1.233 0 2.199.31 2.899.93.699.613 1.061 1.461 1.088 2.542v4.927c0 .983.125 1.764.376 2.344v.159h-1.92zm-3.037-1.395c.574 0 1.118-.149 1.633-.445s.887-.683 1.118-1.158v-2.196h-1.435c-2.242 0-3.363.656-3.363 1.969 0 .574.191 1.022.573 1.345s.874.485 1.474.485z" class="B"/><path d="M502.633 1083.16l280.31-201.209 279.467 201.209H502.633z" class="C"/><path opacity=".5" d="M502.98 1082.49l279.83-201.619L1062 1083.04l-559.02-.55z" class="D"/><g class="C"><path d="M1060.41 744.35L799.57 923.57l260.84 156.82V744.35z"/><path d="M1060.41 1080.39V744.35L799.57 923.57"/></g><path opacity=".6" d="M1060.41 1080.39V744.35L799.57 923.57" class="D"/><g class="C"><path d="M501.062 744.35l260.84 179.22-260.84 156.82V744.35z"/><path d="M501.062 1080.39V744.35l260.84 179.22"/></g><path opacity=".6" d="M501.062 1080.39V744.35l260.84 179.22" class="D"/><path d="M158 1083.04H1442" stroke="#b2b6bb" stroke-width="2.01" class="H"/><g filter="url(#A)"><path d="M780.522 980.979c28.586 0 51.76-23.174 51.76-51.76s-23.174-51.76-51.76-51.76-51.76 23.174-51.76 51.76 23.174 51.76 51.76 51.76z" class="C"/><path d="M831.782 929.219c0 28.31-22.95 51.26-51.26 51.26s-51.26-22.95-51.26-51.26 22.95-51.26 51.26-51.26 51.26 22.95 51.26 51.26z" stroke="#000"/></g><path d="M834.998 929.22c0 5.58-6.2 10.12-7.84 15.15-1.69 5.23.6 12.53-2.56 16.87s-10.87 4.46-15.26 7.65-6.76 10.46-12 12.16c-5 1.63-11.26-2.8-16.84-2.8s-11.81 4.43-16.85 2.8c-5.22-1.7-7.63-9-12-12.16s-12.06-3.26-15.26-7.65-.87-11.64-2.56-16.87c-1.64-5-7.84-9.57-7.84-15.15s6.2-10.12 7.84-15.16c1.69-5.22-.6-12.53 2.56-16.87s10.87-4.46 15.26-7.65 6.76-10.46 12-12.16c5-1.63 11.25 2.8 16.84 2.8s11.8-4.43 16.84-2.8c5.22 1.7 7.63 9 12 12.16s12.06 3.26 15.26 7.65.87 11.65 2.56 16.87c1.65 5.04 7.85 9.57 7.85 15.16z" class="C"/><path d="M780.52 973.829c24.638 0 44.61-19.972 44.61-44.61s-19.972-44.61-44.61-44.61-44.61 19.973-44.61 44.61 19.973 44.61 44.61 44.61z" stroke="#fff" stroke-width="2.72" class="H"/><path d="M277.461 353.449v117.1h149.1v-117.1h-149.1z" class="D"/><path d="M292.461 369.049v85.95h119.1v-85.9l-119.1-.05z" fill="#ddd"/><path d="M429.9 353.469h-3.4v117h3.4v-117z" fill="#dadddf"/><path d="M354.202 416.37a18.6 18.6 0 0 0 17.184-11.482c1.408-3.399 1.776-7.139 1.058-10.747a18.6 18.6 0 0 0-14.614-14.614 18.6 18.6 0 0 0-10.746 1.059c-3.399 1.408-6.304 3.792-8.348 6.85a18.6 18.6 0 0 0 2.313 23.486c3.489 3.488 8.22 5.448 13.153 5.448z" class="C"/><g class="B"><path d="M305.301 447.369l30.3-19.37-30-19.3-.3 38.67zm52.988-45.301v40.2h40.2v-40.2h-40.2z" class="I"/></g><path d="M452.842 428.641a13.57 13.57 0 0 0 2.25-8.47c-.36-6.49-4.83-11.54-10.11-11.6-2.58-14-16-24.28-31.52-23.41-16.75.94-29.61 14.46-28.72 30.2.207 3.731 1.187 7.378 2.88 10.71a28.12 28.12 0 0 0-16.05 28.41 28.52 28.52 0 0 0 20.505 24.056 28.51 28.51 0 0 0 16.51-.266c5.356-1.714 10.086-4.975 13.595-9.37 3.335 4.424 7.969 7.696 13.254 9.359a26.6 26.6 0 0 0 16.226-.086c5.267-1.718 9.866-5.039 13.154-9.499a26.58 26.58 0 0 0 5.186-15.374 26.21 26.21 0 0 0-4.696-15.033c-3.069-4.411-7.421-7.772-12.464-9.627z" class="G"/><path d="M404.94 449.582s4.22 28.7-1.69 31.24l-8 2.11 5.91 20.26 23.64 12.67 23.64-10.14 2.11-24.9c-2.786-.442-5.406-1.608-7.6-3.38-3.38-4.22-3.38-18.58-3-32.51l-35.01 4.65z" class="F"/><path d="M422.24 459.291l1.51 3.77c-2.59-.13-6.83-.67-9.42-2.74a.83.83 0 0 0-.291-.153c-.106-.032-.218-.042-.328-.03s-.216.044-.314.097a.84.84 0 0 0-.252.211.82.82 0 0 0-.183.618c.011.11.044.217.097.314s.125.183.211.253c3.58 2.87 9.53 3.16 11.86 3.16h1a.81.81 0 0 0 .313-.076c.098-.047.185-.113.257-.194 8.17 2.6 12.57-.13 13.52 0l-.63-8.21-17.35 2.98z" class="B E"/><path d="M424.782 463.511c-5.599 0-10.968-2.225-14.927-6.183a21.11 21.11 0 0 1-6.183-14.927v-38.84h37.15l4.71 36.12c.434 2.969.221 5.997-.625 8.877a20.82 20.82 0 0 1-4.275 7.805c-1.97 2.264-4.407 4.074-7.143 5.308s-5.706 1.861-8.707 1.84z" class="F"/><path d="M445.889 419.601s-23.22 4.65-33.36-7.17c0 0 2.12 7.17-7.17 13.08 0 0 2.29 5.58.53 10.37a1 1 0 0 1-.864.57c-.182.008-.363-.035-.523-.123a1.01 1.01 0 0 1-.383-.377l-4.67-10.44v-23.64h42.21l4.23 17.73z" class="G"/><path d="M509.43 977.451l4.24 45.579c.28 5.34 1.66 8.65 3.22 10.86l16.57 33.7-4.6 6.35-18-9-16-29c0-5-.46-7.91-1.38-14.54l-7.98-49.199 23.93 5.25z" class="F"/><path d="M514.392 1040.12c-1.81-2.53-4.08-8.63-4.63-11.42l-5.45-16a2.62 2.62 0 0 0-.777-1.46 2.65 2.65 0 0 0-1.493-.72l-10.8-1.39-.18-2.27h21.06l1.82 18.83c.36 3.22 2.351 7.46 4.341 10.25l15.19 31.94-2.821 4.44-16.26-32.2z" class="B E"/><path d="M543.001 1073.39l-9.49-5.71c-3.368.54-6.819.2-10.013-.99-3.195-1.2-6.023-3.21-8.207-5.83l-20.59-24.86a45.49 45.49 0 0 0-3.77 25.41l2.95 20.62h2.39l.64-21.18c.014-.33.13-.66.332-.93a1.68 1.68 0 0 1 .8-.58 1.59 1.59 0 0 1 .988-.02 1.64 1.64 0 0 1 .83.53l12.52 15.29c1.772 2.15 3.994 3.88 6.508 5.07a18.96 18.96 0 0 0 8.042 1.83h19.52c.359.01.715-.07 1.033-.24a2.02 2.02 0 0 0 .781-.71c.195-.3.307-.65.328-1.01a2.08 2.08 0 0 0-.212-1.04 10.35 10.35 0 0 0-5.38-5.65zM426.382 1032c.927 2.85 1.294 5.85 1.08 8.84l.09 24.9a24.86 24.86 0 0 1-3.63 12.3l-.49.87c-.65 1.09-1.571 1.99-2.674 2.61a7.27 7.27 0 0 1-3.616.94h-7.27a7.19 7.19 0 0 1-4.459-1.48c-1.28-.97-2.199-2.34-2.611-3.9-.964-3.67-1.097-7.52-.39-11.25l6.19-26.72c.406-2.5 1.164-4.92 2.25-7.21h15.53v.1z" class="C"/><path d="M427.463 1020.73a188.76 188.76 0 0 0-1.38 27l.2 10.77c-.113 2.29-1.106 4.45-2.772 6.02a8.9 8.9 0 0 1-6.168 2.44h-1.57c-1.27.02-2.529-.23-3.692-.74s-2.201-1.27-3.042-2.22-1.467-2.07-1.832-3.29c-.366-1.21-.462-2.49-.284-3.75l2.56-12.78c1.297-6.48 1.758-13.11 1.37-19.71l-2.45-43.47 22.89.38-3.83 39.35z" class="F"/><path d="M429.317 1007.47l-2.95 28.21v.08c-.29 4.72-.49 9.35-.39 14.06l.2 9.6c-.2 4.12-3.93 7.38-8.55 7.55 4.23-2.83 3.83-7.46 3.93-10.89l.69-42.09a3 3 0 0 0-.806-1.9 2.98 2.98 0 0 0-1.844-.93l-10.22-1.63-.1-2 20.04-.06z" class="B E"/><path d="M488.94 1007.24h25.33s-3.55-289.999-16.12-333.719l-32-29.33h-80.21s-36.31-5.07 21.95 362.999h23.64l2.66-306.429c-.022-.78.112-1.556.394-2.283a5.84 5.84 0 0 1 1.253-1.95c.543-.559 1.194-1.004 1.912-1.307a5.83 5.83 0 0 1 6.089.964c1.06.919 1.753 2.188 1.952 3.576l43.15 307.479z" class="K"/><path d="M404.598 449.54s-11.77-.54-12.6-11.39 12.44-11.07 12.95-.2l.86 11.81-1.21-.22z" class="F"/><path d="M399.001 481.66c2.721 3.965 6.379 7.196 10.65 9.407s9.022 3.331 13.83 3.263c0 0 20.26 0 26.17-13.51l3.8.42v164.64h-41.34l-24.9-160 11.79-4.22z" class="D"/><g class="B"><path d="M395.899 433.561c.402-.319.865-.553 1.36-.689s1.012-.17 1.52-.101a3.51 3.51 0 0 1 1.36.67 3.5 3.5 0 0 1 .95 1.18c.678 1.102 1.063 2.358 1.12 3.65v1.06c0 .78-1.22 1-1.26.15v-1.07a7 7 0 0 0-.9-3.07 2.46 2.46 0 0 0-.617-.81 2.45 2.45 0 0 0-.893-.49c-.341-.038-.686-.008-1.016.088a2.61 2.61 0 0 0-.904.472.6.6 0 0 1-.226.102c-.081.019-.166.02-.248.006s-.16-.047-.23-.093a.61.61 0 0 1-.176-.175c-.21-.38-.13-.77.16-.88z" class="E"/><path d="M474.999 641h-82.8v7.52h82.8V641z"/><path d="M403.181 684.201s19.06 3 20.75-26.5c0 0 8.18-71.18-23.22-160.84l2.47 187.34z" class="E"/><path d="M440.001 694.852h-.78c-7 0-15.23 5.71-15.2 12.73l-2.88 299.658h10.42l2.66-306.428a5.83 5.83 0 0 1 3.535-5.487 5.82 5.82 0 0 1 2.245-.473zm49.788-14.351s4.21 26.15 16.41 326.739h8.07s-2.79-268.699-14.72-327.789l-9.76 1.05z" class="I"/></g><path d="M451.368 480.82l31.82 4.53a32.28 32.28 0 0 1 11.802 4.444c3.603 2.243 6.729 5.174 9.198 8.626 3.1 4.34 6.14 8.73 9.4 12.95l3.44 4.44v47l-28.06-25.54s-20.8 78.74 12 141.88c.066.145.097.303.089.462a.99.99 0 0 1-.132.451c-.079.138-.19.255-.323.342a1.01 1.01 0 0 1-.444.155l-22.6 1c-5.039.225-10.003-1.274-14.075-4.25a22.18 22.18 0 0 1-8.325-12.12c-7.29-26.79-21.08-83.84-3.79-184.37zm-54.879 1.692l-28.7 10.28s23.8 103.91 4.1 194.78a1 1 0 0 0 .255.846c.104.112.233.198.376.253a1.01 1.01 0 0 0 .449.061l28.65-4.24c4.703-.697 9.045-2.927 12.351-6.345a21.58 21.58 0 0 0 5.929-12.555c3.19-28.06 4.5-89.04-23.41-183.08z" class="C"/><g class="B"><path d="M418.768 587.831h-2.77l-25.76-55.38c-.06-.12-.77 0-.72.1l22.17 61.28 7.57-.28-.49-5.72zm3.263.021l.51 5.57 49.46-1.61v-1.68l-49.97-2.28zm60.97-57.331s-24.16 65.59 6.31 150.48l9.37-.41 1.78-.17c.228-.119.401-.322.483-.566a1.01 1.01 0 0 0-.043-.744c-32.76-63.11-11.9-142.3-11.9-142.3l-6-6.29z" class="E"/></g><path d="M423.688 434.461a2 2 0 0 0 1.847-1.235c.152-.365.192-.767.115-1.155a2 2 0 0 0-.547-1.024 2.01 2.01 0 0 0-1.025-.548c-.388-.077-.789-.037-1.155.114a2 2 0 0 0-1.235 1.848 2 2 0 0 0 .585 1.414c.375.375.885.586 1.415.586z" class="G"/><path d="M424.529 432.442c.101-.016.194-.067.261-.145a.43.43 0 0 0 0-.56.43.43 0 0 0-.261-.145c-.102.015-.194.067-.261.145a.43.43 0 0 0 0 .56.43.43 0 0 0 .261.145z" class="D"/><path d="M439.48 434.461a2 2 0 0 0 1.848-1.235c.152-.365.191-.767.114-1.155a2 2 0 0 0-.547-1.024c-.28-.28-.636-.47-1.024-.548s-.79-.037-1.156.114a2 2 0 0 0-1.235 1.848 2 2 0 0 0 2 2z" class="G"/><path d="M440.41 432.352c.083-.002.163-.029.231-.076s.12-.114.15-.19.037-.161.02-.242a.42.42 0 0 0-.117-.213c-.059-.057-.134-.097-.215-.112s-.165-.006-.241.026a.41.41 0 0 0-.187.154.42.42 0 0 0-.071.233c0 .056.012.111.033.163a.43.43 0 0 0 .094.137c.04.039.088.07.14.091a.43.43 0 0 0 .163.029z" class="D"/><path opacity=".09" d="M430.19 443.411h-1.77c-.078.002-.157-.011-.23-.04s-.14-.071-.196-.126a.6.6 0 0 1-.131-.195c-.029-.072-.044-.151-.043-.229a.59.59 0 0 1 .046-.228c.031-.073.075-.138.131-.193s.122-.098.195-.127.15-.044.228-.042h1.77a1.29 1.29 0 0 0 .52-.062c.167-.057.32-.147.45-.266s.234-.264.305-.425.108-.336.108-.512a1.27 1.27 0 0 0-.108-.512c-.071-.162-.175-.306-.305-.425a1.26 1.26 0 0 0-.45-.266c-.167-.057-.344-.078-.52-.062-.156 0-.306-.063-.417-.173s-.173-.261-.173-.417.063-.307.173-.418.261-.172.417-.172c.335-.022.67.026.985.139a2.45 2.45 0 0 1 .848.519c.244.229.439.506.572.813a2.45 2.45 0 0 1 .202.974c0 .335-.069.666-.202.973s-.328.584-.572.813-.533.406-.848.519-.65.161-.985.14z" class="B"/><path d="M402.44 445.06a1.34 1.34 0 0 0-.079-.518 1.33 1.33 0 0 0-.274-.447 1.32 1.32 0 0 0-.937-.425c-.357 0-.7.14-.954.391s-.4.592-.406.949c-.008.176.02.352.08.518a1.33 1.33 0 0 0 .274.447 1.32 1.32 0 0 0 .936.425 1.36 1.36 0 0 0 1.36-1.34z" class="C"/><path d="M401.559 446.201c-.186.001-.37-.038-.541-.112a1.33 1.33 0 0 1-.448-.323 1.31 1.31 0 0 1-.279-.476 1.33 1.33 0 0 1-.062-.549 2.09 2.09 0 0 1 .22-.77c-.175.128-.317.297-.413.492s-.143.41-.137.628c-.006.178.023.355.087.521a1.3 1.3 0 0 0 .286.445c.124.127.273.228.438.295s.341.102.519.099c.279.012.552-.076.77-.25h-.44z" class="B E"/><path d="M434.163 448.73c.06.002.118.019.17.048a.37.37 0 0 1 .16.462 5.8 5.8 0 0 1-2.14 2.401c-.925.583-1.997.892-3.09.892s-2.165-.309-3.09-.892a5.81 5.81 0 0 1-2.14-2.401c-.09-.25 0-.51.33-.51h9.8zm4.839-23.27a8.31 8.31 0 0 0-3.48 1.109c-1.064.622-1.976 1.473-2.67 2.491-1.652-.57-3.45-.553-5.09.05-.79-1.304-1.931-2.36-3.293-3.046s-2.889-.975-4.407-.834c-1.623.13-3.171.739-4.448 1.748a8.23 8.23 0 0 0-2.727 3.925 8.24 8.24 0 0 0 2.497 8.799 8.23 8.23 0 0 0 4.382 1.907c1.617.188 3.254-.107 4.703-.849s2.646-1.897 3.438-3.32a8.23 8.23 0 0 0 1.015-4.67 8.76 8.76 0 0 0-.66-2.64 6.32 6.32 0 0 1 4.08-.05 8.21 8.21 0 0 0-.872 3.651c-.005 1.268.284 2.519.844 3.657s1.376 2.13 2.383 2.899a8.22 8.22 0 0 0 3.425 1.536 8.21 8.21 0 0 0 3.75-.149 8.23 8.23 0 0 0 3.292-1.802 8.22 8.22 0 0 0 2.146-3.079c.468-1.179.657-2.449.552-3.713a8.17 8.17 0 0 0-.841-3.122 8.14 8.14 0 0 0-1.986-2.552c-.825-.71-1.784-1.248-2.82-1.582s-2.129-.458-3.213-.364zm-17.62 15.06c-1.42.114-2.841-.195-4.084-.889a7.21 7.21 0 0 1-2.902-3.007c-.649-1.267-.907-2.699-.743-4.113a7.19 7.19 0 0 1 1.668-3.832 7.21 7.21 0 0 1 3.515-2.261 7.2 7.2 0 0 1 7.613 2.454c.884 1.116 1.417 2.469 1.533 3.888a7.21 7.21 0 0 1-1.681 5.232c-1.229 1.454-2.983 2.363-4.879 2.528h-.04zm18.94.24a7.2 7.2 0 0 1-4.066-.929c-1.234-.704-2.232-1.758-2.868-3.028a7.2 7.2 0 0 1-.709-4.11c.175-1.409.762-2.736 1.689-3.813a7.2 7.2 0 0 1 3.52-2.237c1.368-.382 2.818-.351 4.169.089a7.2 7.2 0 0 1 3.421 2.386 7.21 7.21 0 0 1 1.524 3.882c.073.946-.04 1.897-.334 2.799s-.762 1.736-1.379 2.457a7.2 7.2 0 0 1-2.214 1.742c-.846.43-1.768.689-2.713.762h-.04z" class="D"/><path d="M504.52 588.72l12.53-9.89-.14 4-1 4.43-11.39 1.46z" class="F"/><path opacity=".1" d="M504.52 588.72l12.53-9.89-.14 4-1 4.43-11.39 1.46z" class="B"/><path d="M466.062 613.851l.441-22.29 28.829.11c1.117-.039 2.213-.323 3.21-.83l1.39-.7c.35-.08.687-.212 1-.39l15.53-7.11a16.61 16.61 0 0 1 5.23-1.61l21.19-2.77a1.76 1.76 0 0 1 1.94 1.27c.066.463-.046.934-.313 1.319a1.85 1.85 0 0 1-1.127.751l-19.469 4.4 20.719.28a1.66 1.66 0 0 1 .697.118 1.68 1.68 0 0 1 .587.396c.164.173.29.379.369.604s.108.465.087.702a2.08 2.08 0 0 1-.553 1.26 2.07 2.07 0 0 1-1.216.64l-19.88 2.1 17.95-1.93c.226-.035.458-.023.68.034s.43.159.612.299a1.72 1.72 0 0 1 .443.517c.111.201.181.422.205.65.041.48-.092.958-.375 1.348s-.698.663-1.166.772l-17.389 3.77 14.939-3.22a1.36 1.36 0 0 1 .557-.036c.187.026.366.09.526.189a1.37 1.37 0 0 1 .408.383c.108.155.181.33.219.514a1.47 1.47 0 0 1 .026.583c-.03.194-.099.38-.203.546s-.239.312-.399.425a1.46 1.46 0 0 1-.533.236l-19.5 4c0 .38 0 0 0 0-9.69 3.18-19.65 4.21-23.84 5.38-1.92.54-3.831 1.13-5.771 1.57l-26.05 5.72z" class="F"/><g stroke="#000" stroke-width="1.09" class="H J"><path d="M542.721 589.811l-17.19.23m-.633 5.959l15.55-2" class="E"/></g><path opacity=".1" d="M542.001 596.551c-.022-.114-.055-.224-.1-.33l-15.71 2.2-26.83 4.39-33.16 7.52-.06 3.52 26.58-5.68c2-.42 3.93-1 5.89-1.56 4.27-1.18 14.48-2.47 24.36-5.7l17.93-3.44c.82-.19 1.25-.03 1.1-.92z" class="B"/><path d="M383.828 486.73l-17 6.29c-13.75 5.21-20.83 19.71-15.83 32.79l41.38 85.92c2.68 6.94 10.28 11.09 18.05 9.87l61.72-8.74-.15-22.05h-58l-24-56c-1.27-3.56-5-11.19-5.33-14.89-.94-10.92.1-22.27-.84-33.19z" class="C"/><g class="B"><path opacity=".023" d="M379 580.811l13.23 30.92c2.68 6.94 10.28 11.09 18 9.87l61.77-8.74v-4.05l-49 7c-8 1.19-11.88 2.19-15.89 2a14.21 14.21 0 0 1-7.047-2.135c-2.121-1.319-3.857-3.173-5.033-5.375L379 580.811z"/><path d="M405.318 452.531l1.679-3.72c-.665.309-1.354.566-2.059.77l.38 2.95z" class="E"/></g><path d="M285.641 863.502l-7.18 177.268m-44.949-100.219l31.86 37.45m42.298 7.001L279 1028.56m42.649-116.708l-39.54 45.2" class="H J N O"/><path d="M319 936.122c9.37-11 12.2-24 6.33-29s-18.27-.12-27.64 10.88-12.2 24-6.33 29 18.25.13 27.64-10.88z" class="C"/><path d="M325.68 907.57l-34.5 39.28c.12 0 .12.12.25.12 5.92 5 18.26.13 27.57-10.82 9.19-10.71 12.09-23.3 6.68-28.58z" class="B L"/><path d="M252.569 962.61c4.55-3.77 2.5-13.77-4.6-22.35s-16.53-12.47-21.08-8.7-2.5 13.77 4.59 22.34 16.52 12.47 21.09 8.71z" class="C"/><path d="M226.588 931.871l26.06 30.59-.13.13c-4.53 3.77-14-.13-21.15-8.69-6.8-8.31-8.94-18.13-4.78-22.03z" class="B L"/><path d="M238.301 991.291l33.61 26.189" class="H J N O"/><path d="M261.4 1009c3.69-4.61-.36-13.998-9-20.938s-18.72-8.84-22.41-4.22.36 14 9.05 20.938 18.67 8.84 22.36 4.22z" class="C"/><path d="M229.731 984.24l31.73 24.68-.12.13c-3.65 4.65-13.73 2.77-22.41-4.16-8.44-6.8-12.47-15.99-9.2-20.65z" class="B L"/><path d="M298.77 876.831c.66-14.45-4.95-26.44-12.52-26.79s-14.24 11.09-14.9 25.54 4.95 26.44 12.52 26.79 14.25-11.09 14.9-25.54z" class="C"/><path d="M271.408 875.711c.63-14.35 7.3-25.81 14.86-25.43l-2.4 52.25c-7.55-.53-13.09-12.46-12.46-26.82z" class="B L"/><path d="M310.732 1001.45c6.29-9.838 7-20.648 1.53-24.128s-15 1.67-21.26 11.51-7 20.638-1.53 24.128 14.96-1.67 21.26-11.51z" class="C"/><path d="M291.051 988.781c-6.17 9.56-6.92 20.139-1.89 23.789l23-35.249-1.38-.63c-5.38-2.02-13.94 3.02-19.73 12.09z" class="B L"/><path d="M275.312 1038.63l-19.64-122.378" class="H J N O"/><path d="M257.527 933.392c6.73-1.08 10.52-12.36 8.47-25.2s-9.18-22.38-15.91-21.3-10.52 12.36-8.46 25.2 9.17 22.37 15.9 21.3z" class="C"/><path d="M241.572 912.101c-2-12.84 1.76-24.18 8.44-25.31l7.42 46.59c-6.67 1.26-13.85-8.31-15.86-21.28z" class="B L"/><g fill="#868a91"><path d="M266.63 1082h23.54c1.044.01 2.077-.2 3.042-.59.965-.4 1.841-.99 2.578-1.73.737-.73 1.321-1.61 1.718-2.58a7.84 7.84 0 0 0 .592-3.04v-31.22h-39.53V1074c.024 2.13.883 4.16 2.391 5.65 1.508 1.5 3.544 2.34 5.669 2.35z"/><path d="M299.112 1038.63h-41.3a2.16 2.16 0 0 0-1.425.68c-.371.4-.578.92-.578 1.47a2.13 2.13 0 0 0 .578 1.46 2.16 2.16 0 0 0 1.425.68h41.3c.282 0 .562-.05.823-.16s.498-.27.697-.47.356-.43.463-.7c.106-.26.16-.54.157-.82-.039-.55-.278-1.08-.671-1.47s-.914-.63-1.469-.67z"/></g><path d="M298.23 1042.79h-36a2.11 2.11 0 0 1-1.514-.63c-.401-.4-.626-.94-.626-1.51s.225-1.11.626-1.51a2.15 2.15 0 0 1 1.514-.63h-4.41a2.15 2.15 0 0 0-1.514.63c-.401.4-.626.94-.626 1.51s.225 1.11.626 1.51a2.11 2.11 0 0 0 1.514.63h.88v31.1c-.003 1.04.201 2.08.599 3.04.398.97.983 1.84 1.721 2.58a7.91 7.91 0 0 0 2.579 1.72c.964.39 1.998.6 3.041.59h12.84a11.6 11.6 0 0 1-7.437-2.65c-2.093-1.72-3.516-4.12-4.023-6.79l-5.67-29.09h35.89l-.01-.5z" fill="#61656d"/><path d="M1314.09 596.51l61.67 18.17a156.24 156.24 0 0 1-21.44 72.78l-61.68-18.17c12.91-22.176 20.27-47.146 21.45-72.78z" class="D"/><g class="H"><path d="M1320.07 607.689l44.94 12.24m-44.94-6.24l44.94 12.24m-32.47-2.57l31.47 8.57m-44.94-12.24l10.47 2.85m-11.47 3.15l44.94 12.24" class="J M P"/><path d="M1351.02 640.939l10.99 2.99" class="M P"/><path d="M1332.54 635.9l15.73 4.29m-31.2-8.501l12.47 3.4m-14.47 2.6l44.94 12.24m-28.97-1.349l26.97 7.35m-44.94-12.241l14.28 3.89m-17.28 2.11l44.94 12.24m-32.47-2.029l29.47 8.03m-44.94-12.241l10 2.72m-13 3.28l44.94 12.24" class="M P J"/></g><path d="M840.598 296.91l-55.93 15.34c-.287-8.745-1.958-17.388-4.95-25.61-4.17-11.28-9.2-16.79-12.32-29.8a75.71 75.71 0 0 1-2-15l55.93-15.34c-.22 5.111.143 10.231 1.08 15.26 2.17 11.62 6.52 17.68 10.82 28.13 3.532 8.678 6.006 17.75 7.37 27.02z" class="D"/><path d="M775.688 248.06l36.959-10.14m-37.038 17.419l36.96-10.14m-33.178 16.361l36.96-10.14m-20.023 11.71l23.54-6.45m-36.958 10.14l10.3-2.83m-7.749 8.349l36.96-10.14m-7.472 8.272l10.02-2.75m-36.957 10.139l23.26-6.38m5.267 4.78l10.02-2.75m-25.469 6.98l12.74-3.49m-24.228 6.65l8.37-2.3m-5.824 7.819l36.96-10.14m-28.659 14.081l29.28-8.03m-36.959 10.14l5.589-1.54m-4.968 7.591l36.97-10.14" stroke-width=".5" class="H M"/><path d="M226.199 654.759l57.48 7.74a82.53 82.53 0 0 1 1.48-26c2.63-11.73 6.88-17.87 8.24-31.18.499-5.031.499-10.099 0-15.13l-57.48-7.74c.912 5.036 1.247 10.159 1 15.27-.6 11.81-4.11 18.4-7 29.33a116.8 116.8 0 0 0-3.72 27.71z" class="D"/><path d="M283.01 597.678l-37.99-5.11m39.04 12.32l-37.99-5.12m35.068 11.789l-37.99-5.119m21.413 8.941l-24.19-3.26m37.989 5.12l-10.59-1.43m8.802 7.238l-37.99-5.109m8.497 7.2l-10.29-1.39m37.982 5.111l-23.9-3.22m-4.593 5.44l-10.29-1.38m26.172 3.52l-13.09-1.76m24.901 3.349l-8.6-1.16m6.808 6.97l-37.98-5.11m30.282 10.13l-30.09-4.05m37.98 5.11l-5.75-.77m5.941 6.85l-37.98-5.11" stroke-width=".5" class="H M"/><g class="D"><path d="M1097.65 587.26l.8-9.1-.8 9.1zm6.7-81.401l.5-7.5-.5 7.5zm-3.9 50.002l.7-8.8-.7 8.8zm-9.4 97.3l1.4-12.6-1.4 12.6zm12.5-135.602l.9-11.7-.9 11.7zm-1.3 16.601l.7-8.4-.7 8.4zm54.9-32.6c1.4-29.5-1.6-50.1-1.6-50.1h.1l-3.2-1.4-4.1.9-27.8 6.2-8.9-13-3.8-.4 3.2.4c.4 15.5 8.8 109.2-7.8 228.8h53.8c-7.1-53.8-3.1-112.4-1.5-156.6l1.6-14.8zm-63.8 130.439l.9-8.8-.9 8.8zm2.2-22.14l1.3-13.5-1.3 13.5zm-1.3 13.4l.9-8.9-.9 8.9z"/><path d="M1099.65 564.759l.8-8.9-.8 8.9z"/><path d="M1098.45 578.26l1.2-13.5-1.2 13.5zm12.7-134.1l-3.2-.4c.1 5.7-1 26.5-3 54.5-.2 2.4-.4 4.9-.5 7.5l-.9 11.7-.6 8.2-.7 8.4-1 12.9-.7 8.8c-.2 3-.5 5.9-.8 8.9l-1.2 13.5-.8 9.1-.8 9.1-1.3 13.5c-.1 1.5-.3 3-.4 4.5l-.9 8.9-.9 8.8-.9 8.6-1.4 12.6-2.3 19.8h14.6c16.55-119.6 8.1-213.4 7.7-228.9z"/></g><path d="M1108.45 454.359l-.5-10.5c.1 5.7-1 26.5-3 54.5-.2 2.4-.4 4.9-.5 7.5l-.9 11.7-.6 8.2-.7 8.4-1 12.9-.7 8.8c-.2 3-.5 5.9-.8 8.9l-1.2 13.5-.8 9.1-.8 9.1-1.3 13.5c-.1 1.5-.3 3-.4 4.5l-.9 8.9-.9 8.8-.9 8.6-1.4 12.6-2.3 19.8h14.6c16.55-119.7 5.4-203.4 5-218.8z" class="B E"/><path d="M1058.55 663l7.4 366.4h33.5l18.7-310a6.8 6.8 0 0 1 2.15-4.562c1.27-1.189 2.95-1.845 4.7-1.832 1.74.012 3.41.693 4.67 1.901 1.25 1.208 2 2.852 2.08 4.593l17 309.9h33.5l10.3-366.4h-134z" class="G"/><path d="M1066.85 673l-1.6 36.4h22c2.82.052 5.57-.892 7.77-2.666 2.19-1.774 3.69-4.265 4.23-7.034 1.5-9 2.8-27.9 4.1-36.6h-36.5v9.9z" class="B L"/><path d="M1069.45 1050.36l-.9-29.2H1097l-1.3 30.1-26.25-.9z" class="F"/><path d="M1096.65 1029.36l-.9 21.9-6.8-.2.2-12.9c.01-1.01-.32-1.99-.94-2.79s-1.48-1.36-2.46-1.61l-17-4.4h27.9z" class="B E"/><path d="M1095.65 1076.76v-25.5c0-3.71-1.48-7.27-4.1-9.9-2.63-2.63-6.19-4.1-9.9-4.1h-.6c-3.06-.02-6.03 1.03-8.4 2.97a13.18 13.18 0 0 0-4.6 7.63c-.71 3.66-2.36 7.08-4.8 9.9l-4 4.7a22.19 22.19 0 0 0-5.3 14.3h41.7z" class="C"/><path d="M1071.55 1050.86c-.1 0-.2-.03-.29-.08s-.16-.13-.21-.22c-.1-.3-.1-.6.2-.7 2.35-1.33 5-2.03 7.7-2.03s5.35.7 7.7 2.03c.11.08.18.2.19.33.02.13-.01.26-.09.37s-.2.18-.33.19c-.13.02-.26-.01-.37-.09a14.45 14.45 0 0 0-14.3 0c0 .2-.1.2-.2.2zm-1.7 3.6a.49.49 0 0 1-.29-.08c-.09-.05-.16-.13-.21-.22-.1-.3-.1-.6.2-.7 2.35-1.33 5-2.03 7.7-2.03s5.35.7 7.7 2.03a.49.49 0 0 1 .19.33c.02.13-.01.26-.09.37a.5.5 0 0 1-.33.2c-.13.01-.27-.02-.37-.1a14.45 14.45 0 0 0-14.3 0c0 .2-.05.2-.2.2zm-1.8 3.8c-.1 0-.2-.03-.29-.08s-.16-.13-.21-.22c-.1-.3-.1-.6.2-.7 2.35-1.33 5-2.03 7.7-2.03s5.35.7 7.7 2.03c.11.08.18.2.19.33.02.13-.01.26-.09.37s-.2.18-.33.19c-.13.02-.26-.01-.37-.09a14.45 14.45 0 0 0-14.3 0c-.1.2-.2.2-.2.2z" class="D"/><path d="M1055.75 1082.06h38.1a1.8 1.8 0 0 0 .69-.13c.22-.09.42-.23.59-.39.16-.17.3-.37.39-.59a1.8 1.8 0 0 0 .13-.69v-3.4H1054v3.4c0 .47.18.92.51 1.26a1.79 1.79 0 0 0 1.24.54z" class="K"/><path d="M1065.25 1029.36l-.3-11.6h36l-.7 11.6h-35z" class="C"/><path d="M1101 1017.76l-.7 11.6h-35l-.3-11.6h36z" class="G"/><path opacity=".4" d="M1101 1017.76l-.7 11.6h-35l-.3-11.6h36z" class="B"/><path d="M1227.65 498.159a34.58 34.58 0 0 0-7.05-14.484 34.56 34.56 0 0 0-12.85-9.716l-52.1-22.6h-.1a6.12 6.12 0 0 1 0 1.6 14.45 14.45 0 0 1-.3 1.6c-.6 6.7-1.9 23.2-2.9 45.5l-.6 14c-1.5 42-1.7 131.7 4.3 186.7a9.3 9.3 0 0 0 3.06 5.934c1.72 1.532 3.94 2.375 6.24 2.366h27l1.6-75.7 1.6-76.8 1.3 4.7 42.2-9.9-11.4-53.2z" class="C"/><path d="M1196 555.88l-9.42-31.65c-.07-.215-.22-.399-.41-.521s-.42-.175-.65-.15a.99.99 0 0 0-.59.285c-.16.16-.27.37-.29.596L1171.08 708c-.01.137.01.274.05.404.05.13.12.248.22.349.09.1.2.18.33.235s.26.082.4.082h19c.26 0 .52-.106.71-.293a1.03 1.03 0 0 0 .29-.707l4-151.88a1.64 1.64 0 0 0-.08-.31z" class="B I"/><path d="M1149.13 407.079l-1-4.6c-2.58-31.58-43.13-4.48-43.13-4.48a434.52 434.52 0 0 0 2.17 23.65c0 2.68 2.43 4.6 2.94 6.65v8.82l-.77 17s6.66 8.88 21.66 8.88c0 0 16 0 25-12l-6.87-43.92z" class="F"/><g class="C"><path d="M1108 443.439l-20.3 3.56c-8.2 1.45-16.45 2.54-24.73 3.36-9.64.95-16.91 2.38-25.72 5.85l-1.25 1.37v52l13.75-3.07 1.6 12.4c6.6 49.8 8.8 90.1 6.5 140.4l-2.2 49.7h22a12.23 12.23 0 0 0 7.73-2.714c2.18-1.767 3.69-4.234 4.27-6.986 19.1-90.17 18.7-240.47 18.35-255.87z"/><path d="M1107.85 476.059l2.2-36.1-9.3 5.1-14.8 35 21.9-4z"/></g><path d="M1086.85 479.361l13.9-34.3-1.3.8-14.4 34.9 22.6 1.9.2-6.6-21 3.3z" class="B E"/><path d="M1154.65 444.66l7.7 9.7 8.7 37.3-17.3-9.8 1.6-25.6.1-.5c.3-1.379.4-2.793.3-4.2l-1.1-6.9z" class="C"/><g class="B"><path d="M1163.85 455l-1.6-.6 8.4 36.7-17-9.3-.6 7.6 19.2 3.6-8.4-38z" class="I"/><path d="M1036 493.999l.35 15.82 13.4-3-2-11.4c-.12-.686-.38-1.337-.78-1.91-.39-.572-.91-1.051-1.51-1.403a4.78 4.78 0 0 0-1.96-.637 4.8 4.8 0 0 0-2.05.25l-5.45 2.28z" class="E"/><path opacity=".4" d="M1125 713a6.78 6.78 0 0 0-4.67 1.848 6.77 6.77 0 0 0-2.13 4.552l-18 298.4h-10.7l4.3-285c.08-5.279 2.23-10.314 5.99-14.019A20.1 20.1 0 0 1 1113.9 713h11.1z"/><path d="M1100.25 1029.36l.7-11.6h-11.5l-.2 11.6h11z" class="I"/><path opacity=".4" d="M1191.55 709.359l-9.3 320.001h-3.2l.3-8.2H1167l4.4-311.801h20.15z"/></g><path d="M1178.45 1050.36l.9-29.2h-28.5l1.3 30.1 26.3-.9z" class="F"/><path d="M1179.05 1029.36l-.6 21-11.9.4.2-14.2a3.17 3.17 0 0 0-.56-1.84c-.38-.54-.92-.95-1.54-1.16l-13.4-4.3h27.8v.1z" class="B E"/><path d="M1152.15 1076.76v-25.5c0-3.71 1.48-7.27 4.1-9.9 2.63-2.63 6.19-4.1 9.9-4.1h.6c3.06-.02 6.03 1.03 8.4 2.97a13.18 13.18 0 0 1 4.6 7.63c.71 3.66 2.36 7.08 4.8 9.9l4 4.7a22.19 22.19 0 0 1 5.3 14.3h-41.7z" class="C"/><path d="M1176.35 1050.86c-.06.01-.11 0-.16-.02-.05-.01-.1-.04-.14-.08-2.17-1.28-4.64-1.95-7.15-1.95-2.52 0-4.98.67-7.15 1.95a.37.37 0 0 1-.18.08.41.41 0 0 1-.19.01c-.07-.01-.13-.03-.19-.06a.57.57 0 0 1-.14-.13c-.04-.05-.07-.11-.09-.18-.01-.06-.02-.13-.01-.19a.62.62 0 0 1 .07-.19.57.57 0 0 1 .13-.14 15.43 15.43 0 0 1 15.4 0c.3.1.3.5.2.7-.11.1-.25.17-.4.2zm1.65 3.6c-.05.01-.11 0-.16-.02-.05-.01-.1-.04-.14-.08-2.17-1.28-4.64-1.95-7.15-1.95s-4.98.67-7.15 1.95c-.05.04-.11.07-.18.09-.06.01-.13.02-.19.01-.07-.01-.13-.04-.19-.07a.57.57 0 0 1-.14-.13.37.37 0 0 1-.08-.18c-.02-.06-.02-.12-.02-.19.01-.06.04-.13.07-.18a.47.47 0 0 1 .13-.15 15.42 15.42 0 0 1 15.4 0c.3.1.3.5.2.7s-.25.2-.4.2zm1.85 3.8c-.06.01-.11 0-.16-.02-.05-.01-.1-.04-.14-.08-2.17-1.28-4.64-1.95-7.15-1.95-2.52 0-4.98.67-7.15 1.95a.37.37 0 0 1-.18.08.41.41 0 0 1-.19.01c-.07 0-.13-.03-.19-.06a.57.57 0 0 1-.14-.13c-.04-.05-.07-.11-.09-.18-.01-.06-.02-.13-.01-.19a.62.62 0 0 1 .07-.19.57.57 0 0 1 .13-.14 15.43 15.43 0 0 1 15.4 0c.3.1.3.5.2.7a.49.49 0 0 1-.18.14.43.43 0 0 1-.22.06z" class="D"/><path d="M1192.05 1082.06H1154a1.8 1.8 0 0 1-.69-.13c-.22-.09-.42-.23-.59-.39-.16-.17-.3-.37-.39-.59a1.8 1.8 0 0 1-.13-.69v-3.4h41.8v3.4a1.89 1.89 0 0 1-.6 1.3c-.37.34-.85.52-1.35.5z" class="K"/><path d="M1147.25 1017.76l.7 11.6h35l.2-11.6h-35.9z" class="G"/><g class="B"><path opacity=".4" d="M1147.25 1017.76l.7 11.6h35l.2-11.6h-35.9z"/><path d="M1167 1017.76v11.6h16l.2-11.6H1167z" class="I"/></g><path d="M1096.71 400.819c-3.35-.148-6.5-1.615-8.77-4.081s-3.46-5.729-3.33-9.077a12.64 12.64 0 0 1 4.04-8.786c2.45-2.279 5.71-3.493 9.06-3.376.38 0 1.41-.25 1.28.13-2.79 11 .53 25.19-2.28 25.19z" class="G"/><path d="M1098.88 360.93s-14.45 74.54 19.95 78.12c29.79 3.07 31.71-43.35 31.71-43.35l-2.31-29.91-23.14-8.44-26.21 3.58z" class="F"/><path d="M1108.73 378.7c3.45-4.86 9.2-8.44 15.34-8.31 6.9.13 12.53 5.62 11.89 13.68l-.13 1.79c-.06.811.2 1.613.73 2.233a3.09 3.09 0 0 0 2.08 1.087 5.76 5.76 0 0 1 2.2.479c.69.304 1.32.741 1.84 1.288a5.92 5.92 0 0 1 1.21 1.898c.27.706.4 1.459.38 2.215l-.13 5.25a1.32 1.32 0 0 0 .08.442c.06.14.15.268.25.375a1.21 1.21 0 0 0 .38.249 1.13 1.13 0 0 0 .44.084s1.54.25 1.79-1l.77-5.62-5.37-31.71-26.34-6.9-11 9.33 3.59 13.14z" class="G"/><path d="M1149.13 407.21s-2.05-.13-3.71-2.81l4.09 7-.38-4.19z" class="B E"/><path d="M1111.92 419.1l13.68-3.19a6.76 6.76 0 0 1-5.11 6.9c-6.49 1.66-8.57-3.71-8.57-3.71z" class="D"/><path d="M1124.07 401.46c.56.002 1.1-.161 1.57-.47.46-.309.83-.748 1.04-1.264.22-.515.27-1.082.17-1.63a2.87 2.87 0 0 0-.77-1.446 2.85 2.85 0 0 0-1.45-.775c-.54-.109-1.11-.054-1.63.159a2.83 2.83 0 0 0-1.26 1.039c-.31.464-.48 1.009-.48 1.567a2.85 2.85 0 0 0 .21 1.079 2.82 2.82 0 0 0 .61.915 2.79 2.79 0 0 0 .91.611c.34.142.71.215 1.08.215z" class="G"/><path d="M1122.79 398.391c.1 0 .2-.03.28-.086.09-.056.15-.136.19-.229s.05-.195.03-.294a.53.53 0 0 0-.14-.262.5.5 0 0 0-.26-.139c-.1-.02-.2-.01-.3.029-.09.039-.17.104-.22.188-.06.084-.09.182-.09.283 0 .135.05.265.15.361.09.095.22.149.36.149z" class="D"/><path d="M1102.2 402.22c.55 0 1.1-.165 1.56-.474a2.8 2.8 0 0 0 1.03-1.261 2.74 2.74 0 0 0 .16-1.624c-.1-.545-.37-1.045-.76-1.438a2.86 2.86 0 0 0-1.44-.769c-.55-.109-1.11-.053-1.63.16-.51.212-.95.572-1.26 1.034a2.8 2.8 0 0 0-.47 1.562c0 .745.29 1.46.82 1.987s1.24.823 1.99.823z" class="G"/><path d="M1101.05 398.999c.07.001.13-.011.2-.036.06-.025.12-.062.17-.11a.78.78 0 0 0 .11-.167c.03-.062.04-.129.04-.197 0-.103-.03-.205-.08-.292-.06-.086-.14-.155-.23-.196-.1-.04-.2-.052-.31-.033a.48.48 0 0 0-.41.406.52.52 0 0 0 .03.302.5.5 0 0 0 .19.235c.09.057.19.088.29.088z" class="D"/><path opacity=".09" d="M1112.18 414.879l3.58.13a.85.85 0 0 0 .61-.197c.16-.144.27-.348.28-.568a.83.83 0 0 0-.19-.606.85.85 0 0 0-.57-.289l-3.58-.13c-.9-.13-1.67-.89-1.54-1.66s.9-1.66 1.66-1.54a1.08 1.08 0 0 0 .56-.248c.16-.135.28-.313.34-.512.13-.39-.39-.77-.77-.9a3.35 3.35 0 0 0-3.45 3.07c-.03.43.02.862.16 1.271a3.03 3.03 0 0 0 .64 1.108 3.15 3.15 0 0 0 1.03.767 3.18 3.18 0 0 0 1.24.304z" class="B"/><path d="M1090.31 396.6l.13 3.07a10.8 10.8 0 0 0 3.41 7.498 10.83 10.83 0 0 0 7.71 2.912c2.85-.084 5.56-1.293 7.52-3.363a10.81 10.81 0 0 0 2.97-7.687l-.13-3.07c.02-.443-.05-.887-.2-1.304-.16-.417-.39-.799-.69-1.126l4.22-.13c-.29.333-.5.719-.63 1.137a3.15 3.15 0 0 0-.14 1.293l.13 3.07a10.77 10.77 0 0 0 3.39 7.544c2.08 1.965 4.86 3.021 7.73 2.936 2.86-.084 5.58-1.304 7.54-3.389 1.97-2.085 3.02-4.866 2.94-7.731l-.12-3.07c-.05-1.046-.5-2.034-1.26-2.75a4.01 4.01 0 0 0-2.83-1.08l-13.56.38h-.13l-10.48.26h-1.66l-12 .38c-1.06.086-2.04.569-2.76 1.352s-1.11 1.808-1.1 2.868zm27.88-3.2l13.68-.38a2.4 2.4 0 0 1 1.68.657c.45.43.72 1.019.75 1.643l.12 3.071a9.16 9.16 0 0 1-.56 3.591 9.09 9.09 0 0 1-1.9 3.098c-.83.896-1.83 1.617-2.95 2.121a9.16 9.16 0 0 1-3.54.815c-1.22.034-2.44-.176-3.58-.618a9.19 9.19 0 0 1-3.06-1.955 9.16 9.16 0 0 1-2.07-2.987c-.48-1.124-.74-2.332-.75-3.556l-.12-3.07c.05-.604.31-1.171.73-1.612a2.73 2.73 0 0 1 1.57-.818zm-26.34 3.2a2.39 2.39 0 0 1 .66-1.681c.42-.454 1.01-.723 1.64-.749l12-.38h1.66a2.4 2.4 0 0 1 1.68.657c.45.43.72 1.019.75 1.643l.13 3.07c.05 1.223-.13 2.443-.56 3.592a9.09 9.09 0 0 1-1.9 3.098c-.83.896-1.83 1.617-2.95 2.121a9.16 9.16 0 0 1-3.54.815c-1.22.034-2.44-.176-3.58-.618a9.19 9.19 0 0 1-3.06-1.955 9.16 9.16 0 0 1-2.07-2.987c-.48-1.124-.74-2.332-.75-3.556l-.11-3.07zm65.33-21.6c-1-8.05-5.24-14.06-12.27-15.6-2.99-.596-6.07-.463-9 .39-.26.085-.54.115-.81.09a2.02 2.02 0 0 1-.78-.24c-.24-.132-.45-.312-.61-.529-.17-.217-.29-.466-.36-.731a12.31 12.31 0 0 0-4.34-6.705 12.33 12.33 0 0 0-7.55-2.625c-1.92-.023-3.82.42-5.53 1.291a11.91 11.91 0 0 0-4.31 3.709 1.99 1.99 0 0 1-.6.57c-.24.146-.51.24-.78.277-.28.037-.56.015-.83-.064s-.52-.213-.73-.393c0 0-8.19-6.52-18.93.12a17.44 17.44 0 0 0-7.35 10.16c-1.11 4.181-.63 8.624 1.35 12.47 4.35 8.57 15.6 11.13 22.51 4.61 2.43-2.3 4.34-5.76 4.73-10.87a20.6 20.6 0 0 0-.77-8.44h3.58c4.22-.25 10.87-1 17.13-.13-.13.13-.25.13-.38.26l11.12 3.71s3.45 29.4 5.25 29.15c7.83-1.69 11.29-13.2 10.26-20.48z" class="G"/><path d="M1147.85 392.249s1.15-5.5 7-3.83c6.65 1.91 5.5 15.34-3.32 18.41-5.5 1.15-4.73-2.18-4.35-6.65l.67-7.93z" class="F"/><g class="B"><path d="M1155.65 392.12a3.67 3.67 0 0 0-1.56-.559c-.55-.066-1.11-.005-1.64.179a3.94 3.94 0 0 0-1.3.868 4.03 4.03 0 0 0-.87 1.302 6.79 6.79 0 0 0-.51 4V399c.03.169.13.319.28.414a.65.65 0 0 0 .49.096.63.63 0 0 0 .41-.28c.1-.144.13-.321.1-.49v-1.15a8.68 8.68 0 0 1 .38-3.32c.29-.653.78-1.193 1.41-1.54.68-.14 1.38-.048 2 .26a.79.79 0 0 0 .49.018.8.8 0 0 0 .41-.278c.26.03.17-.35-.09-.61zm-14.74 39.449c-3.91 4.879-9.52 8.096-15.71 9-4.55 3.2-10 4.871-15.56 4.77l.42-9.26 1.26.7c4.73 2.416 10.15 3.121 15.34 1.997a23.04 23.04 0 0 0 13.13-8.167c.14-.28.7-.28 1-.14.11.158.18.342.2.534s-.01.387-.08.566z" class="E"/></g><path d="M1183.15 758.149h-1.22c-6.35-.33-12.6-4.63-18.57-12.79l-.6-.82-6.23-8.37-62-80.49c-.34-.39-.6-.846-.76-1.34a3.79 3.79 0 0 1-.17-1.532c.05-.517.2-1.018.45-1.473.26-.455.6-.853 1.01-1.171s.88-.548 1.38-.676c.51-.128 1.03-.152 1.54-.07a3.7 3.7 0 0 1 1.44.547 3.78 3.78 0 0 1 1.11 1.075l62 80.5c2.16 2.81 4.28 5.71 6.33 8.51l.6.82c4.44 6.07 8.84 9.42 12.71 9.69.96.066 1.93-.068 2.84-.393s1.74-.835 2.44-1.497c.33-.369.74-.667 1.19-.88a3.74 3.74 0 0 1 1.43-.356 3.75 3.75 0 0 1 1.46.221 3.8 3.8 0 0 1 1.27.765c.74.684 1.19 1.634 1.23 2.643.05 1.01-.3 1.997-.98 2.747-2.62 2.669-6.17 4.223-9.9 4.34z" class="K"/><path d="M968.802 440.489a1.27 1.27 0 0 1-.517-.094c-.163-.067-.311-.168-.434-.296l-7.849-8.22a1.27 1.27 0 0 1-.329-.9c.012-.331.153-.645.394-.873a1.27 1.27 0 0 1 1.775.023l7.84 8.22a1.27 1.27 0 0 1 .324.64 1.28 1.28 0 0 1-.074.714 1.27 1.27 0 0 1-.45.56c-.2.139-.436.218-.68.226z" class="B"/><use xlink:href="#B" class="K"/><use xlink:href="#B" class="D E"/><use xlink:href="#C" class="K"/><use xlink:href="#C" class="D E"/><g class="B"><path d="M1048.37 514.359l85.53 98.54-85.53-98.54z" class="I"/><path d="M1045.09 510.57l3.28 3.79-3.28-3.79z" class="I"/></g><path d="M1097.48 639.04l35.27-27.03 4.75 5.16-36.24 27.21-3.78-5.34z" class="D"/><path d="M1076.75 603.659c-2 .26-3.61 1-3.88 2-.48 1.78 1.74 3.11 4.78 3.28l2.35.08-1.61.07c-.47.011-.93.129-1.35.346s-.79.526-1.07.904c-1.35 1.93.87 3.49 3 3.68 2.01.022 4.01.162 6 .42l-3.06-.32c-.39-.052-.78-.02-1.15.094a2.73 2.73 0 0 0-1.01.566c-1.43 1.36-.21 3.11 3.17 4.24 2.09.62 4.27.897 6.45.82l-2.53.15c-.82.028-1.62.24-2.35.62-1.91 1.06-1.74 2.57 2.43 3.41 4.35.87 39.85-.08 52.45-2.38l93.5-10.2a17.08 17.08 0 0 0 6.85-2.193c2.11-1.209 3.93-2.852 5.35-4.819a17.02 17.02 0 0 0 2.88-6.592 16.95 16.95 0 0 0-.08-7.196l-8.5-39.1-42.2 9.9 8.4 21.7-70.6 18.7-3.9.8c-1.3.3-2.5.4-3.4-.5l-.45-.45c-.97-1.003-2.08-1.856-3.3-2.53-.81-.423-1.67-.758-2.55-1l-14.65-5.45a24.09 24.09 0 0 0-3.81-1.05c-3.83-.858-7.53-2.23-11-4.08-.43-.246-.92-.391-1.41-.424a3.3 3.3 0 0 0-1.46.234 1.51 1.51 0 0 0-.65.48c-.4.58-.28 2.77.52 4.52.47.972 1.23 1.772 2.18 2.29 4.63 2.304 9.38 4.367 14.23 6.18-10.61 2.83-28.57 2.8-28.57 2.8z" class="F"/><path opacity=".1" d="M1087 622.999c5 0 28.55 0 38-3.58 5.12-1.901 10.41-3.308 15.8-4.2l87.8-15.6a7.6 7.6 0 0 0 4.84-3.379c.54-.857.9-1.813 1.07-2.813a7.62 7.62 0 0 0-.11-3.008l-8.2-35.6 13.3-3.1 8.5 39.1c.47 2.366.45 4.805-.06 7.163-.52 2.357-1.52 4.582-2.94 6.535a17.41 17.41 0 0 1-5.31 4.808 17.43 17.43 0 0 1-6.79 2.274l-93.5 10.2c-16.45 2-49.45 3.2-52.45 2.2 0 0-3.19-.16-3.6-2.08a7.16 7.16 0 0 0 3.65 1.08z" class="B"/><path d="M1135 602.06l3.7 20 6.3-.7-3.7-20.7-6.3 1.4z" fill="#001b34"/><path d="M1140.25 618.76c1.25 0 2.46-.369 3.5-1.062s1.84-1.676 2.32-2.827a6.3 6.3 0 0 0 .36-3.64c-.24-1.222-.84-2.345-1.73-3.226-.88-.881-2-1.481-3.22-1.724a6.3 6.3 0 0 0-6.47 2.679c-.69 1.036-1.06 2.254-1.06 3.5 0 1.671.66 3.273 1.84 4.455a6.33 6.33 0 0 0 4.46 1.845z" class="C"/><path d="M1140.25 617.76a5.28 5.28 0 0 0 2.94-.893c.88-.582 1.55-1.41 1.96-2.379.4-.968.5-2.034.3-3.062-.21-1.028-.71-1.972-1.45-2.713s-1.69-1.246-2.72-1.451a5.3 5.3 0 0 0-3.06.302 5.28 5.28 0 0 0-2.38 1.952c-.58.871-.89 1.896-.89 2.944 0 1.406.56 2.754 1.55 3.748 1 .994 2.34 1.552 3.75 1.552z" class="D"/><path d="M1143.75 613.001l-3.6-.2-2.6-1.9c-.1-.1-.2-.3-.1-.4s.3-.2.4-.1l2.4 1.8 3.4.2a.26.26 0 0 1 .12.013c.04.013.07.035.1.064s.05.064.07.102c.01.039.01.08.01.121.1.06.05.3-.2.3z" fill="#001b34"/><path opacity=".1" d="M1080.25 609.069s12.25.47 20.25-1.53m-18 7s13 0 20-2m-13.5 7.31a150.51 150.51 0 0 0 15.53-1.31" stroke="#000" class="H J"/><g fill="#61656d"><path d="M1351.61 861.64h-108a3.35 3.35 0 0 1-2.37-.982 3.34 3.34 0 0 1 0-4.737 3.35 3.35 0 0 1 2.37-.981h108c.44-.003.88.082 1.29.249.4.167.77.414 1.09.726a3.38 3.38 0 0 1 .72 1.089c.17.408.25.845.25 1.285-.01.884-.37 1.727-1 2.352-.62.625-1.46.983-2.35.999z"/><path d="M1347.11 861.639L1365 1082h-3.6l-26.91-220.381 12.62.02zm-99.64 0l-18 220.381h3.6L1260 861.639h-12.53z"/></g><path d="M1247.47 861.639l-.52 4.25h6.18L1231.51 1082h1.54L1260 861.639h-12.53zm104.53 84.44h-3.22l-14.29-84.44h12.62L1365 1082h-1.8L1352 946.079zm-62.43-84.44L1292.4 1082h3.6l6.18-220.381-12.61.02z" class="K"/><path d="M1286.11 851.641h-48.71v3.36h48.71v-3.36z" class="Q"/><path d="M1286.11 834.84h-48.71V855h48.71v-20.16z" class="R"/><g class="Q"><path d="M1237.39 834.84h116.22V855h-67.5v-16.8h-48.72v-3.36z"/><path d="M1237.39 834.84h116.22V855h-67.5v-16.8h-48.72v-3.36z"/><path d="M1286.11 851.641h-48.71v3.36h48.71v-3.36z"/></g><path d="M1325.9 841.83h-28.49V849h28.49v-7.17zm7.1 3.071a5.96 5.96 0 0 1 1-3.3c.65-.977 1.58-1.738 2.67-2.188 1.08-.449 2.28-.567 3.43-.338a5.94 5.94 0 0 1 3.04 1.626c.83.83 1.4 1.889 1.63 3.041a5.93 5.93 0 0 1-2.53 6.098c-.98.653-2.13 1.001-3.3 1.001-1.58 0-3.09-.626-4.2-1.74s-1.74-2.625-1.74-4.2zm2 0a3.88 3.88 0 0 0 .65 2.165c.42.642 1.03 1.145 1.74 1.445s1.49.384 2.24.241c.76-.142 1.46-.505 2.01-1.043a3.9 3.9 0 0 0 1.09-1.978 3.94 3.94 0 0 0-.18-2.253 3.91 3.91 0 0 0-3.55-2.477 3.9 3.9 0 0 0-1.52.273c-.48.191-.92.476-1.3.839a3.91 3.91 0 0 0-.87 1.275c-.2.479-.31.993-.31 1.513zM1294.52 818h-39.23v16.85h39.23V818z" class="R"/><g class="Q"><path d="M1255.29 818h93.59v16.85h-54.36v-14.19h-39.23V818z"/><path d="M1295.32 831.52h-40v3.32h40v-3.32z"/><path d="M1255.29 818h93.59v16.85h-54.36v-14.19h-39.23V818z"/><path d="M1294.52 831.52h-39.23v3.32h39.23v-3.32z"/></g><path d="M1326.57 823.619h-22.94v5.8h22.94v-5.8zm5.73 2.472c0-.946.28-1.87.81-2.656a4.76 4.76 0 0 1 2.14-1.761 4.79 4.79 0 0 1 2.76-.272c.93.185 1.78.64 2.45 1.309a4.81 4.81 0 0 1 1.31 2.447c.18.927.09 1.888-.27 2.762s-.98 1.62-1.76 2.145c-.79.525-1.71.806-2.66.806-1.27 0-2.48-.504-3.38-1.4s-1.4-2.113-1.4-3.38zm1.63 0a3.2 3.2 0 0 0 .53 1.75c.35.518.84.921 1.42 1.16.57.238 1.2.301 1.82.179a3.15 3.15 0 0 0 1.61-.862 3.14 3.14 0 0 0 .86-1.613 3.15 3.15 0 0 0-1.34-3.234 3.16 3.16 0 0 0-1.75-.53c-.41 0-.82.081-1.2.239a3.2 3.2 0 0 0-1.03.683 3.22 3.22 0 0 0-.68 1.022 3.12 3.12 0 0 0-.24 1.206z" class="R"/><path d="M1348.88 833.77h-93.59v1.07h93.59v-1.07z" class="B E"/><defs><filter id="A" x="724.762" y="877.459" width="111.52" height="111.52" filterUnits="userSpaceOnUse" color-interpolation-filters="sRGB"><feFlood flood-opacity="0" result="A"/><feColorMatrix in="SourceAlpha" values="0 0 0 0 0 0 0 0 0 0 0 0 0 0 0 0 0 0 127 0"/><feOffset dy="4"/><feGaussianBlur stdDeviation="2"/><feColorMatrix values="0 0 0 0 0 0 0 0 0 0 0 0 0 0 0 0 0 0 0.25 0"/><feBlend in2="A"/><feBlend in="SourceGraphic"/></filter><path id="B" d="M1221.86 728.809l-84.27-111.18-35.86 26.77 86.1 110.6c1.76 2.264 3.96 4.151 6.46 5.55a21.52 21.52 0 0 0 8.12 2.597c2.85.314 5.73.053 8.48-.768s5.31-2.183 7.52-4.009c4.29-3.524 7.04-8.572 7.69-14.084a21.47 21.47 0 0 0-4.24-15.476z"/><path id="C" d="M1133.9 612.9l4 4.62-36.36 27.26L972.001 462a30.64 30.64 0 0 1-5.7-19.84c.14-2 .51-3.71 1.54-4.64.688-.544 1.543-.834 2.42-.82 3.312-.102 6.604.546 9.631 1.895a21.99 21.99 0 0 1 7.849 5.895L1133.9 612.9z"/></defs></svg></svg>