<svg xmlns="http://www.w3.org/2000/svg" xmlns:xlink="http://www.w3.org/1999/xlink" width="1600" height="1200" fill="none" xmlns:v="https://vecta.io/nano"><style><![CDATA[.B{fill:#fff}.C{fill:#b2b6bb}.D{fill:#2980b9}.E{fill:#3f4249}.F{fill:#000}.G{opacity:.3}.H{fill:#dadddf}.I{opacity:.2}.J{fill:#fc9d9d}.K{fill:#61656d}.L{fill:#868a91}.M{fill:#242830}.N{opacity:.5}.O{fill:#21252b}.P{opacity:.15}]]></style><path d="M1346.1 1029.4l35.8-520.2c1-14.1-3.5-28-12.5-38.9l-231.1-279c-11.5-13.8-29-21.2-46.9-19.7L417 227.4c-21.6 1.8-40.2 16.1-47.4 36.6L222.1 683.4c-3 8.6-3.9 17.8-2.5 26.8l49.9 318.5 1076.6.7z" fill="#f4f4f4"/><path d="M471.4 691.4H370.3v62.8h101.1v-62.8z" class="C"/><path d="M471.4 691.4h-21.5v62.8h21.5v-62.8z" class="K"/><g class="E"><path d="M323.9 696.6l-16.3-80.4.5-.1 16.3 80.4-.5.1zm4.556-107.486l-2.141 104.479.5.011 2.141-104.48-.5-.01z"/><path d="M352.377 608.32l-24.908 31.3.392.311 24.908-31.3-.392-.311z"/></g><path d="M336.6 716.6l-2.5-3.7c-2.5-3.7-3.8-8.1-3.8-12.6v-8.9h-9.6v8.9c0 4.5-1.3 8.9-3.8 12.6l-2.5 3.7c-5.2 7.8-6.8 17.5-4.5 26.6l2.8 11h25.6l2.8-11c2.3-9.1.6-18.8-4.5-26.6z" class="L"/><path d="M336.6 716.6l-2.5-3.7c-2.5-3.7-3.8-8.1-3.8-12.6v-8.9h-2.8v8.1c0 5 1.5 9.9 4.2 14.1 4.2 7.7 4.2 16.5 2.7 23.7-.9 4.3-2.6 8.4-4.9 12.1l-1.9 3.1c-.7 1.1-1.9 1.8-3.2 1.8h14l2.8-11c2.2-9.2.5-18.9-4.6-26.7z" class="K"/><path d="M347.278 640.492l-29.63 24.586.32.385 29.629-24.586-.319-.385zM321.5 684.6l-26.2-24.8.3-.3 26.2 24.7-.3.4z" class="E"/><path d="M337.7 627.1l4.1-18c1.5-6.4 9.1-9.1 14.3-5 5.1 4.1 4.2 12.2-1.7 15l-16.7 8z" class="D"/><path d="M337.7 627.1l4.1-18c1.5-6.4 9.1-9.1 14.3-5 5.1 4.1 4.2 12.2-1.7 15l-16.7 8z" class="B G"/><path d="M359.4 611.2c0 3.2-1.8 6.4-5.1 7.9l-16.7 8 18.4-23a8.42 8.42 0 0 1 3.4 7.1zm-31.2 7.9l-11.8-24.4c-4.2-8.7 2.1-18.8 11.8-18.8 9.6 0 16 10.1 11.8 18.8l-11.8 24.4z" class="D"/><g class="B"><path d="M328.2 619.1l-11.8-24.4c-4.2-8.7 2.1-18.8 11.8-18.8 9.6 0 16 10.1 11.8 18.8l-11.8 24.4z" class="G"/><path d="M328.8 576l-.6 43.1 11.8-24.4c4.1-8.5-1.9-18.4-11.2-18.7z" class="G"/></g><path d="M315.1 651.6L298 631.2c-6.1-7.3-2.5-18.5 6.7-20.8s17.7 5.8 15.8 15.1l-5.4 26.1z" class="D"/><path d="M320.5 625.5c1.9-9.3-6.6-17.4-15.8-15.1l10.5 41.1 5.3-26z" class="B G"/><path d="M312.7 675.9l-7.8-19.5c-2.8-7-11.9-8.6-16.9-3.1-5.1 5.5-2.6 14.4 4.6 16.6l20.1 6z" class="D"/><g class="B"><path d="M312.7 675.9l-7.8-19.5c-2.8-7-11.9-8.6-16.9-3.1-5.1 5.5-2.6 14.4 4.6 16.6l20.1 6z" class="G"/><path d="M288.3 652.9l24.4 23-7.8-19.5c-2.7-6.8-11.5-8.5-16.6-3.5z" class="G"/></g><path d="M325.7 658.8l8.5-20.6c3-7.3 12.7-9 18-3.1s2.6 15.3-5.1 17.5l-21.4 6.2z" class="D"/><path d="M325.7 658.8l8.5-20.6c3-7.3 12.7-9 18-3.1s2.6 15.3-5.1 17.5l-21.4 6.2z" class="B G"/><path d="M326.7 684.1l-.3-.4 40.6-22.2.2.4-40.5 22.2z" class="E"/><path d="M333.2 680.2l14.7-20.1c5.2-7.2 16.2-6.4 20.3 1.4 4.2 7.8-1.3 17.3-10.1 17.7l-24.9 1z" class="D"/><path d="M333.2 680.2l14.7-20.1c5.2-7.2 16.2-6.4 20.3 1.4 4.2 7.8-1.3 17.3-10.1 17.7l-24.9 1z" class="B G"/><path d="M368.6 672.1c-1.8 3.9-5.6 6.9-10.5 7.1l-24.9 1 35-18.7c1.9 3.6 1.8 7.4.4 10.6z" class="D"/><path d="M334.2 638.2l-8.5 20.6 26.5-23.7c-5.3-5.8-14.9-4.2-18 3.1z" class="B G"/><g class="C"><path d="M498.2 760.9h67.1a3.37 3.37 0 1 0 0-6.8h-67.1v6.8z"/><path d="M556.6 757.6h-67.7v208.5h67.7V757.6z"/></g><path d="M491 757.6H283.9V966.1H491V757.6Z" class="H"/><path d="M480.5 950.2H293.6V786.6l186.9.2v163.4zm-185.4-1.5H479V788.3H295.1v160.4z" class="C"/><path d="M276.2 760.9h222.1a3.37 3.37 0 1 0 0-6.8H276.2a3.37 3.37 0 0 0-3.4 3.4c.1 1.9 1.6 3.4 3.4 3.4z" class="H"/><path d="M480.5 867.399H293.6v1.5h186.9v-1.5zM379 812.9a5.2 5.2 0 1 0 0-10.4 5.2 5.2 0 0 0 0 10.4z" class="C"/><use xlink:href="#B" class="F P"/><path d="M379 893.4a5.2 5.2 0 0 0 0-10.4 5.2 5.2 0 0 0 0 10.4z" class="C"/><use xlink:href="#B" y="80.5" class="F P"/><path d="M501.7 767.899l-10.7-7H283.9v3.2l217.8 3.8z" class="C"/><path d="M543.3 966.1l5.2 57.7c.4 2.1-1.2 4.1-3.3 4.1-1.4 0-2.7-.9-3.2-2.3l-15.1-59.5h16.4 0z" class="H"/><path d="M541.4 999.7l-6.3-1.5-8.1-32h16.4l5.2 57.7c.3 1.6-.6 3.2-2 3.8l-5.2-28z" class="C"/><path d="M484.4 966.1l5.2 57.7c.4 2.1-1.2 4.1-3.3 4.1-1.4 0-2.7-.9-3.2-2.3L468 966.1h16.4z" class="H"/><path d="M478.9 972.5l-9.4-1.8-1.6-4.6h16.4l5.2 57.7c.3 1.6-.6 3.2-2 3.8l-8.6-55.1z" class="C"/><path d="M354.6 966.1l-5.2 57.7c-.4 2.1 1.2 4.1 3.3 4.1 1.4 0 2.7-.9 3.2-2.3l15.1-59.5h-16.4 0z" class="H"/><path d="M357.5 996.8l-5.6-1.4 2.7-29.3H371l-15.1 59.5c-.5 1.4-1.8 2.3-3.2 2.3h-.2l5-31.1z" class="C"/><path d="M294.1 966.1l-5.2 57.7c-.4 2.1 1.2 4.1 3.3 4.1 1.4 0 2.7-.9 3.2-2.3l15.1-59.5h-16.4 0z" class="H"/><path d="M300.5 971.1l-7.2-1.3.8-3.7h16.4l-15.1 59.5c-.5 1.4-1.8 2.3-3.2 2.3h-.2l8.5-56.8z" class="C"/><path d="M382.7 886.1l-35.6 40.3 25.4 19.6 29.8-27.2-19.6-32.7z" class="J"/><path d="M351.9 919.8l-22.7 17.4c-2.5 1.9-3.2 5.4-1.7 8.1l43.6 80.5c.9 1.8 3 2.5 4.9 1.8 4-1.5 6.2-5.8 5-9.9l-.5-1.9c-2.5-8.8-3.8-17.8-3.9-27l-.6-42.5c0-2.6-1.9-4.9-4.4-5.5-8.3-1.9-14.5-8.9-15.5-17.4l-.2-2.1c-.4-1.7-2.6-2.6-4-1.5z" class="M"/><path d="M362.9 908.1l114.8-133.2-1.2-186.2h62.9l-9.3 199.4a31.52 31.52 0 0 1-9.8 22.5L387.2 932.7l-24.3-24.6z" class="E"/><g class="D"><path d="M551.5 427.599l-3.5 56.8-4.6-.7-4.1 105.3-133.6-.4-2.3-118-11.2-70.6 43.2-12.3 1.5-.4 5.5-1.6 23.4 20.1 24.9-20.4 6.6 2.1.8.2h.1l.3.1.3.1 32 10.2c12.9 4.1 21.3 16.2 20.7 29.5z"/><path d="M370.8 426.499l-7.8 110 50.6-20.2 11-124-31.2 7.5a29.61 29.61 0 0 0-22.6 26.7z"/></g><path d="M462.2 410.699l-8.4 133.1 11.4 12.2 10.7-12.2-6.1-133.7-4-2.7-3.6 3.3z" class="M"/><path d="M648.1 417.5l-72.6 114.2c-5.4 8.5-18.1 7.3-21.9-2l-19.2-47.9 15.1-66.1 22 62 42-60.2h34.6 0z" class="D"/><path d="M404.3 967.899l32.7.7-1.6 25.3-30.2 2.7-.9-28.7z" class="J"/><path d="M420.3 981.2c8.7 0 15.9 6.9 16.2 15.6l.1 4c.1 1.6.3 3.2.7 4.7l4.5 16.6a4.5 4.5 0 0 1-4.3 5.7h-37.2a4.51 4.51 0 0 1-4.2-6.2l6.4-16c.9-2.2 1.4-4.6 1.5-7l.1-1.9c.3-8.5 7.4-15.5 16.2-15.5z" class="M"/><g class="F"><path d="M542.7 502.199l-14.5-34.2c-.8-1.1-2.6-.7-2.7.7l-7.6 119.9 21.4.4 3.4-86.8z" class="I"/><path d="M517.9 588.7L506 788.8 403 899.6l-.3-29.9-5.4 6.4-2.1 31.9-15.7 16.9 7.7 7.8 133.6-122.6c5.9-5.6 9.3-13.3 9.3-21.4l9.3-200h-21.5 0z" class="I"/><path opacity=".04" d="M458.754 793.813l-4.131 75.387 1.498.082 4.131-75.387-1.498-.082z"/></g><path d="M496.8 490.6l6.1-9 1.5-9.6c.1-.4.4-.7.8-.8 2.7-.6 5.3 1.2 5.7 3.9l1.9 11.6 21.3-1.5c1.6 0 3 1.2 3.2 2.8.2 1.8-1.3 3.4-3.1 3.4h-1.7 1.8c1.8 0 3.4 1.4 3.5 3.2.2 1.9-1.2 3.7-3.2 3.8l-1.6.1 1.8-.2c1.8-.2 3.4 1.2 3.6 3s-1.2 3.4-3 3.6l-2.1.2 3-.3c1.3-.1 2.5.9 2.7 2.2.1 1.3-.8 2.4-2 2.6l-37.2 6-14.6 4.3 3.9-28.7 7.7-.6z" class="J"/><g class="F"><path d="M424.6 497.2c-6.4-3.4-10.7-9.8-11.4-17l-3-30.8c-.1-.7-1-.7-1.1 0l-5 50.2-11.3 1.3c-.4 0-.7.4-.6.8 0 .4.4.7.8.6l103.9-11.8 1.2-1.8-73.5 8.5z" class="I"/><path d="M539 507.1l-.1-.2c-.3-1.4-1.7-2.3-3-2l-.4.1-30.9 4.7-8.3-19.1H494l-8.6 1 2.6 27.7 15-4 2.7-.4 30.9-5c2.8-.6 2.4-2.8 2.4-2.8z" class="P"/><path opacity=".023" d="M525 491.4a.68.68 0 0 1 .7-.7l11.2-.9c-.5 1-1.5 1.7-2.6 1.7h-.1l-8.4.7c-.4-.1-.8-.4-.8-.8zm.5 7.5c0-.4.2-.7.6-.8l11.3-1.5c-.4 1-1.4 1.7-2.5 1.8h-.1l-8.6 1.2c-.3 0-.6-.3-.7-.7z"/><path d="M478.5 416.099l-.2-.2.2.2-12.2-3.3-11.7 3.4-19.2-28.4 1.5-.4 18.9 27.9 10.1-7.9 11.4 7.9 20.2-27.7.8.2h.1l.3.1.3.1-20.5 28.1z" class="I"/></g><path d="M366.5 506.2l122.6-14.9 4.2 26.2-116.2 33.9c-7.7 2.3-15.3-4.1-14.4-12.1l3.8-33.1z" class="D"/><path d="M492.6 513l-109.8 26.299c-9.8 2.1-19-5.799-18.2-15.899l.2-2.2-2 18.099c-.9 8 6.7 14.401 14.4 12.101l46.6-13.7 69.6-20.3-.8-4.4z" class="F I"/><g class="M"><path d="M491 491.2l5.1 25.7 5-1.2-4.8-25.1-5.3.6z"/><path d="M496.3 509.5a5.7 5.7 0 1 0 0-11.4 5.7 5.7 0 0 0 0 11.4z"/></g><path d="M499.9 509.5l-2.4-12.3c-.4-.1-.8-.1-1.3-.1-1.5 0-2.8.5-3.9 1.3l2.4 12.1c.5.1 1 .2 1.5.2 1.4-.2 2.7-.6 3.7-1.2z" class="F I"/><path d="M496.3 508.8a5 5 0 1 0 0-10 5 5 0 1 0 0 10z" class="B"/><path d="M405.7 588.7l-1.9 390.9h33l32.5-324.7c.1-1.9 1.6-3.3 3.5-3.3a3.51 3.51 0 0 1 3.5 3.3l.9 30 5.1-96.2h-76.6z" class="E"/><path d="M472.7 651.5c-19.8 0-37.1 16.1-37.1 35.9l-12.9 292.1h13.9l32.5-324.701c.2-1.8 1.8-3.299 3.6-3.299z" class="F I"/><path d="M538.9 600.6H405.6l.1-11.9h133.7l-.5 11.9z" class="M"/><path d="M442.7 588.7h-4.3v12.9h4.3v-12.9zm57.8 0h-4.3v12.9h4.3v-12.9z" class="E"/><path d="M480.2 600.6h-15.7c-1.6 0-2.9-1.3-2.9-2.9v-6.1c0-1.6 1.3-2.9 2.9-2.9h15.7c1.6 0 2.9 1.3 2.9 2.9v6.1c0 1.6-1.3 2.9-2.9 2.9z" class="C"/><g class="L"><use xlink:href="#C"/><path d="M413.4 1002c-.2 0-.5-.1-.6-.3a.78.78 0 0 1 .2-1c.1 0 7.3-4.8 14.4 0a.78.78 0 0 1 .2 1 .78.78 0 0 1-1 .2c-6.3-4.2-12.7 0-12.8 0s-.3.1-.4.1z"/><use xlink:href="#C" y="8.501"/><path d="M368.3 957.099c-.4 0-.7-.3-.7-.6-.1-.4.2-.8.6-.8l7.7-1.1c.4-.1.8.2.8.6.1.4-.2.8-.6.8l-7.8 1.1z"/><use xlink:href="#D"/><use xlink:href="#D" y="5.799"/></g><g class="F"><path opacity=".04" d="M405.5 634.799l10.3-34.5c.1-.4.5-.6.9-.5s.6.5.5.9l-11.7 39.3v-5.2zm131.7.7l-10.5-35.2c-.1-.4-.5-.6-.9-.5s-.6.5-.5.9l11.7 39.3.2-4.5zM477.3 777.2c-.2 0-.3-.1-.5-.2-.3-.3-.3-.7-.1-1l13.3-15.5c.3-.3.7-.3 1-.1.3.3.3.7.1 1l-13.3 15.5c0 .2-.2.3-.5.3z"/><path d="M567 483.3l4.5-5.6-5.5-15.5-3.1 19.4c-.2 1.9 2.9 3.2 4.1 1.7zm5.2 51.799c2.3-1.5 3.5-3.6 5.5-7l4-6.199v-58.4l-9.5 71.599z" class="I"/></g><g class="J"><path d="M465.8 407.4l25.1-22-3.7-49.8h-41.6l-3.1 50.2 23.3 21.6z"/><path d="M492.8 318.1s5.2 57-26.1 57.4c-30.6.4-28.1-56.7-28.1-56.7l.1-16.4 39.6-4.6 9.6 5.7 4.9 14.6z"/></g><g class="O"><path d="M486.2 304.899s10.3-6 14.3 5.5c3.4 9.7-3.9 19.7-3.9 19.7l-5.7-.9c-2.4-.2-4-1.4-4.1-3.8l-.6-20.5z"/><path d="M493.7 298.5c.2 10.8-9.2 13.1-12.9 13.2l-31 .8c-2.5.1-4.5 2.1-4.5 4.6v9.8c0 1.3-1 2.5-2.4 2.6l-1.9.1-2.3 2.5c-11.9-3.6-14.9-38.2 7.7-43.8 2.4-.6 4.6-2.2 5.8-4.4 3.6-6.5 17-7.5 23.2.4 1.3 1.7 3 2.5 5.1 2.6 8.2.3 13.1 5.7 13.2 11.6z"/></g><path d="M440.8 333c-.2-4-4.8-6.3-8-4l-.1.1c-5.6 4.3-3 18.9 8.7 18.3l-.6-14.4zm58.6-4.2l-.1-.1c-3.3-2.3-7.8.1-7.9 4.1l-.2 13.8c11.8.3 13.8-13.7 8.2-17.8z" class="J"/><path d="M442.2 334.9c0 .7-.6 1.3-1.4 1.3s-1.4-.5-1.5-1.1l-.8-9.3 3.8.4-.1 8.7zm51.6-.8c0 .7-.6 1.3-1.4 1.3s-1.4-.501-1.5-1.101l-.8-9.299 3.8.4-.1 8.7z" class="O"/><path d="M480.8 313.1c-.9 0-1.5-.1-1.6-.1-.4 0-.6-.4-.6-.7 0-.4.4-.6.7-.6.1 0 6.2.7 9.1-3.3.2-.3.6-.4.9-.1.3.2.4.6.1.9-2.2 3.3-6.3 3.9-8.6 3.9z" class="J"/><path d="M456.1 341.9a2.7 2.7 0 1 0 0-5.4 2.7 2.7 0 0 0 0 5.4z" class="O"/><path d="M454.8 339.499a.6.6 0 1 0 0-1.2.6.6 0 1 0 0 1.2z" class="B"/><path d="M477 341.6a2.7 2.7 0 1 0 0-5.4 2.7 2.7 0 1 0 0 5.4z" class="O"/><path d="M475.7 339.2a.6.6 0 1 0 0-1.2.6.6 0 1 0 0 1.2z" class="B"/><path opacity=".09" d="M467.1 352.7h2.2c.4 0 .8-.4.8-.8s-.4-.8-.8-.8h-2.2a1.58 1.58 0 0 1-1.6-1.6c0-.9.7-1.7 1.6-1.7.4 0 .8-.4.8-.8s-.4-.8-.8-.8c-1.8 0-3.2 1.5-3.2 3.2 0 1.9 1.4 3.4 3.2 3.3z" class="F"/><path d="M485 332.1h-11.8-1.6-10.3-.1-13.3a3.84 3.84 0 0 0-3.9 3.9v3c0 5.8 4.7 10.6 10.6 10.6 5.8 0 10.6-4.7 10.6-10.6v-3c0-.9-.3-1.7-.8-2.4h4.1c-.5.7-.8 1.5-.8 2.3v3c0 5.8 4.7 10.6 10.6 10.6 5.8 0 10.6-4.7 10.6-10.6v-3c0-2-1.7-3.8-3.9-3.8zm-21.4 3.9v3c0 5-4.1 9-9.1 9s-9-4.1-9-9.1v-3c0-1.3 1.1-2.3 2.4-2.3h13.3.1c1.3 0 2.4 1.1 2.3 2.4zm23.7 3c0 5-4.1 9-9.1 9s-9-4.1-9-9.1v-3c0-1.3 1.1-2.3 2.4-2.3h1.6H485c1.3 0 2.3 1.1 2.3 2.4v3z" class="O"/><path d="M460.2 356.599l13.3-.2c.3 0 .6.3.5.7-2.3 6.7-11.6 6.9-14.2.3v-.1c-.2-.3.1-.7.4-.7z" class="B"/><g class="F"><path opacity=".09" d="M437.4 340.299c-.4 0-.8-.3-.8-.7l-.1-1.7c-.1-1.8-.5-2.999-1.3-3.699-.6-.5-1.2-.5-1.3-.5-.4 0-.8-.301-.8-.701s.3-.8.7-.9c.1 0 1.3-.1 2.4.8s1.7 2.601 1.8 4.801l.1 1.699c.1.5-.2.8-.7.9h0zm57.7-.799c.4 0 .8-.3.8-.7l.1-1.7c0-1.8.4-3.1 1.1-3.7.6-.6 1.2-.5 1.2-.5.4 0 .8-.3.8-.7s-.3-.8-.7-.8c-.1 0-1.3-.1-2.4.9s-1.7 2.6-1.7 4.9l-.1 1.7c.1.2.4.5.9.6z"/><path d="M488.8 357.1l.1-.3c-3.4 9.7-9.8 17.5-20 18.6h.1c-.7.1-1.5.1-2.2.1-8.2.1-14.7-4.1-19.3-12.4-.2-.3-.6-.5-1-.3-.3.2-.5.6-.3 1 4.9 8.8 11.8 13.2 20.6 13.1 1.9 0 3.7-.3 5.4-.7 5.4 1.1 11.6.1 17.7-3.8l-1.1-15.3z" class="P"/><path opacity=".8" d="M327.4 945.3l43.6 80.5c.9 1.8 3 2.5 4.9 1.8.4-.1.8-.3 1.1-.5l-47.9-90c-2.5 2-3.2 5.4-1.7 8.2zm72.9 82.6h37.2c2.9 0 5-2.7 4.4-5.5h-46c-.6 2.8 1.5 5.5 4.4 5.5z"/></g><path d="M496.5 505l-3.1-1 .1-.5 2.7.9 1.9-3.2.5.3-2.1 3.5z" class="M"/><path d="M1243.2 693.9h-55.9v118h55.9v-118z" class="H"/><path d="M1221.2 693.9h23.9v11.4h-1.9v106.6h-18.4V705.3h-3.6v-11.4z" class="C"/><path d="M1220.6 693.9h-33.3v11.4h33.3v-11.4z" class="H"/><path d="M1231.3 705.3h-44v1.5h44v-1.5z" class="C"/><path d="M1265 605.5h-9.7H1033v9.6h222.3v196.8H1033v9.6h222.3v206.4h9.7V605.5z" class="B"/><path d="M896.8 278.8c0-26.7 20.2-48.7 46.2-51.6v-.3h5.7c28.7 0 51.9 23.2 51.9 51.9s-23.2 51.9-51.9 51.9H943v-.3c-26-2.9-46.2-24.9-46.2-51.6z" class="C"/><path d="M943 330.7c28.664 0 51.9-23.237 51.9-51.9s-23.236-51.9-51.9-51.9-51.9 23.236-51.9 51.9 23.236 51.9 51.9 51.9z" class="L"/><use xlink:href="#E" class="B"/><use xlink:href="#E" class="L"/><use xlink:href="#E" opacity=".9" class="B"/><path d="M943 232.6l2.5.1c-24.4 1.3-43.7 21.4-43.7 46.1s19.4 44.8 43.7 46.1c-.8 0-1.6.1-2.5.1-25.5 0-46.2-20.7-46.2-46.2s20.7-46.2 46.2-46.2z" class="C"/><path d="M942.5 282.4l15.3-30.5c.6-1.2.1-2.6-1.1-3.2s-2.6-.1-3.2 1.1L940.4 276l-17.6-8.6c-1.2-.6-2.6-.1-3.2 1.1s-.1 2.6 1.1 3.2l21.8 10.7z" class="D"/><g class="B"><path d="M903.4 302.6a46 46 0 0 1-6.6-23.8c0-25.5 20.7-46.2 46.2-46.2 1.3 0 2.5.1 3.8.2l-43.4 69.8zm50.3-68.7c2.2.5 4.4 1.2 6.5 2.1l-47.8 77.5c-1.9-1.6-3.6-3.5-5.2-5.4l46.5-74.2z" class="N"/></g><use xlink:href="#F" class="D"/><use xlink:href="#F" class="B N"/><use xlink:href="#F" x="-9.8" class="D"/><use xlink:href="#F" x="-9.8" opacity=".7" class="B"/><path d="M614.9 412.3c0 2.7 2.2 4.8 4.8 4.8h6.6l1.6 16a2.48 2.48 0 0 0 2.4 2.2c1.3 0 2.3-1 2.4-2.3l1-15.3c0-.2.2-.4.5-.4.2 0 .4.2.5.4l1 15.1c.1 1.4 1.2 2.5 2.6 2.5s2.6-1.1 2.6-2.6l.5-15.3-.5 14.9c-.1 1.6 1.3 3 2.9 3 1.5 0 2.7-1.1 2.9-2.6l1.4-15.2-1 11.3c-.1 1.4 1 2.7 2.4 2.7 1.2 0 2.2-.8 2.4-2l1.9-9.6c.5-2.5-.4-5.1-2.3-6.7-7.7-6.7-18.7-8-27.7-3.1l-8.5 1.7c-.2-.1-.4.2-.4.5z" class="J"/><g class="F"><path opacity=".023" d="M640.782 417.423l-.469 14.091 1.399.047.469-14.092-1.399-.046zm6.504.885l-.946 11.361 1.395.117.946-11.362-1.395-.116z"/><path d="M626.3 417.2h-6.6l4-3.8c.8-.8 2.2-.3 2.3.9l.3 2.9z" class="I"/></g><use xlink:href="#G" class="D"/><g class="B"><use xlink:href="#G" class="N"/><path d="M853.7 693.8H657c-4.2 0-7.5-3.4-7.5-7.5V489.6c0-4.2 3.4-7.5 7.5-7.5h196.7c4.2 0 7.5 3.4 7.5 7.5v196.7c.1 4.2-3.3 7.5-7.5 7.5z"/></g><use xlink:href="#H" class="K"/><g class="C"><use xlink:href="#I"/><use xlink:href="#J"/></g><g class="D"><use xlink:href="#K"/><use xlink:href="#L"/></g><g class="B"><use xlink:href="#L" opacity=".4"/><use xlink:href="#M"/></g><use xlink:href="#N" class="D"/><g class="B"><use xlink:href="#N" class="N"/><path d="M1117.7 693.8H921.1c-4.2 0-7.5-3.4-7.5-7.5V489.6c0-4.2 3.4-7.5 7.5-7.5h196.7c4.2 0 7.5 3.4 7.5 7.5v196.7c0 4.2-3.4 7.5-7.6 7.5z"/></g><use xlink:href="#O" class="K"/><g class="C"><use xlink:href="#P"/><use xlink:href="#J" x="264"/></g><g class="D"><use xlink:href="#K" x="264"/><use xlink:href="#Q"/></g><g class="B"><use xlink:href="#Q" opacity=".4"/><use xlink:href="#R"/></g><use xlink:href="#S" class="D"/><g class="B"><use xlink:href="#S" class="N"/><path d="M853.7 971.6H657c-4.2 0-7.5-3.4-7.5-7.5V767.4c0-4.2 3.4-7.5 7.5-7.5h196.7c4.2 0 7.5 3.4 7.5 7.5v196.7c.1 4.1-3.3 7.5-7.5 7.5z"/></g><use xlink:href="#H" y="277.8" class="K"/><g class="C"><use xlink:href="#I" y="277.8"/><use xlink:href="#T"/></g><g class="D"><use xlink:href="#K" y="277.8"/><use xlink:href="#L" y="277.8"/></g><g class="B"><use xlink:href="#L" y="277.8" opacity=".4"/><use xlink:href="#M" y="277.801"/></g><use xlink:href="#U" class="D"/><g class="B"><use xlink:href="#U" class="N"/><path d="M1117.7 971.6H921.1c-4.2 0-7.5-3.4-7.5-7.5V767.4c0-4.2 3.4-7.5 7.5-7.5h196.7c4.2 0 7.5 3.4 7.5 7.5v196.7c0 4.1-3.4 7.5-7.6 7.5z"/></g><use xlink:href="#O" y="277.8" class="K"/><g class="C"><use xlink:href="#P" y="277.8"/><use xlink:href="#T" x="264"/></g><g class="D"><use xlink:href="#K" x="264" y="277.8"/><use xlink:href="#V"/></g><g class="B"><use xlink:href="#V" opacity=".4"/><use xlink:href="#R" y="277.8"/></g><path d="M981.8 1010.9c-7.4 0-13.4 6-13.4 13.4 0 1.6 1.3 2.9 2.9 2.9h21.5c2.4 0 4.6-1.4 5.6-3.7l28-62.8-31.4-36.3c.5 1.7-13.2 86.5-13.2 86.5zm155.1-51.7h-53.2l21.4 20.5a12.79 12.79 0 0 1 3.7 11.6l-3.8 19.6a12.76 12.76 0 0 0-12.8 12.8v.6c0 1.6 1.3 2.9 2.9 2.9h19.5c2.3 0 4.5-1.3 5.5-3.4l18.3-37.1c2.4-4.9 3-10.6 1.6-15.9l-3.1-11.6z" class="E"/><path d="M1165.8 917.2c11.2-3.4 32-15.4 41.6-27.7.7-1 .7-2.3 0-3.3-.8-1-2.2-1.2-3.3-.6-84.4 47.6-171-8.8-171-8.8-1.2-6.7-5.3-12.4-11.2-15.8-11.8-6.7-26.3-6.7-38.2-.1-4.1 2.3-9 2.8-13.5 1.2l-13.2-4.7c-2.3-.8-4.8.7-5 3.2l-.4 3.9c-1.3 11.6 2.8 23.2 11 31.5l56.6 57.4c6.4 6.5 9.3 15.6 8 24.6l-5 33c-7.4 0-13.4 6-13.4 13.4 0 1.6 1.3 2.9 2.9 2.9h21.5c2.4 0 4.6-1.4 5.6-3.7l28.5-64.3h56.5l21.4 20.5a12.79 12.79 0 0 1 3.7 11.6l-3.8 19.6a12.76 12.76 0 0 0-12.8 12.8c0 2 1.6 3.5 3.5 3.5h18.8c2.3 0 4.5-1.3 5.5-3.4l18.3-37.1c2.4-4.9 3-10.6 1.6-15.9l-14.2-53.7z" class="L"/><path d="M995.882 869.589c1.523-1.523 1.903-3.613.849-4.667s-3.144-.674-4.667.849-1.903 3.612-.849 4.666 3.144.675 4.667-.848zM1153.2 945c0 11.4 9.2 20.6 20.6 20.6 1.5 0 3-.2 4.5-.5l-10.3-39.8c-8.6 2.4-14.8 10.3-14.8 19.7zm-89.8 22.5l-3.7-1.5c-5-2-10.6-.8-14.4 3-3.1 3.2-4.4 7.7-3.5 12.1l.7 3c.5 2.4.4 4.9-.4 7.3l-.3.8c-2 5.8-.9 12.2 3.1 17l18.5-41.7zm-25-87.4l3.6 22.1c2 12.4 13.1 20.5 24.3 17.8l10.4-2.5c2.3-.6 4.8-.6 7.1-.2l22.3 4.3c10.9 2.1 21.8-3.3 27.6-13.6l1.8-3.2c-45.4 1.3-83.4-17.1-97.1-24.7zm141.2 16.6c2.1 1.6 4.7 2.5 7.6 2.5 6.5 0 11.9-4.9 12.6-11.2-6.8 3.5-13.5 6.4-20.2 8.7z" class="E"/><path d="M980.2 887.4c-3-4.1-4.2-9.2-3.6-14.2L978 863c-2.6.4-5.3.2-7.8-.7l-13.2-4.7c-2.3-.8-4.8.7-5 3.2l-.4 3.9c-1.3 11.6 2.8 23.2 11 31.5l16.6 16.8 2.4-4.4c3.6-6.8 3.1-15-1.4-21.2z" class="C"/><path d="M1030.4 880.7l10.3 25.9c2.6 6.1.1 14.2-5.4 17.8-6.5 4.3-15.3 4.6-23.9-3.7-11.7-11.2-6.8-36.1-.8-45.6m112.9 84.2l-11.3-12.3 9.5 20.7 1.8-8.4zM965 860.4l-7.9-2.8c-2.4-.9-5 .8-5.3 3.3l-.6 5.6c1 .2 2 .4 3 .4 4.7-.1 8.8-2.7 10.8-6.5z" class="E"/><path d="M1029.4 878.2l10.8 26.8c1.6 3.9.2 8.4-3.4 10.6-5.3 3.3-13.9 5.6-23.2-3.3-9.9-9.5-8.5-29.7-2.1-38.8" class="L"/><path d="M1027.2 919.2c-4.2 0-9-1.7-14-6.5-4.7-4.5-7.3-11.6-7.4-20.1-.1-7.5 1.9-15 5.2-19.7.2-.3.6-.4.9-.2s.4.6.2.9c-6 8.4-7.8 28.5 2 38 9 8.6 17.1 6.5 22.4 3.2 3.3-2.1 4.6-6.1 3.1-9.7l-10.8-26.8c-.1-.3 0-.7.4-.9.3-.1.7 0 .9.4l10.8 26.8c1.8 4.2.2 9-3.6 11.4-2.8 1.8-6.2 3.2-10.1 3.2z" class="E"/><path d="M1067 959.3s12-14.2 45.2-12.4l5.6 12.4H1067z" class="C"/><path d="M1165 913.8l.8 3.5s8.5-2.7 16.1-7.3l-16.9 3.8zm-201.8-33.4c-2.7 0-5-.8-6.8-2.3-5.7-4.8-4.8-15.3-4.8-15.8 0-.4.4-.6.7-.6.4 0 .6.4.6.7 0 .1-.9 10.3 4.3 14.6 2.5 2.1 6 2.5 10.5 1.3.4-.1.7.1.8.5s-.1.7-.5.8c-1.6.6-3.3.8-4.8.8z" class="E"/><g class="H"><path d="M1325.1 605.5H1265v422.4h60.1V605.5z"/><path d="M1377.2 1031H244.3c-.7 0-1.2-.5-1.2-1.2s.5-1.2 1.2-1.9h1132.8c1.2.2 1.2 1.2 1.2 1.9 0 .6-.5 1.2-1.1 1.2z"/></g><defs ><path id="B" d="M380.9 807.7c0-2.3-1.5-4.201-3.5-4.901.5-.2 1.1-.299 1.7-.299 2.9 0 5.2 2.3 5.2 5.2s-2.3 5.2-5.2 5.2c-.6 0-1.1-.101-1.7-.301 2-.7 3.5-2.599 3.5-4.899z"/><path id="C" d="M413.4 997.699c-.2 0-.5-.1-.6-.3a.78.78 0 0 1 .2-1c.1 0 7.3-4.8 14.4 0a.78.78 0 0 1 .2 1 .78.78 0 0 1-1 .2c-6.3-4.2-12.7 0-12.8 0-.1.1-.3.1-.4.1z"/><path id="D" d="M368.4 962.3c-.4 0-.7-.3-.7-.6-.1-.4.2-.8.6-.8l7.7-1.1c.4-.1.8.2.8.6.1.4-.2.8-.6.8l-7.8 1.1h0z"/><path id="E" d="M943 325c25.516 0 46.2-20.684 46.2-46.2s-20.684-46.2-46.2-46.2-46.2 20.685-46.2 46.2S917.485 325 943 325z"/><path id="F" d="M1188.7 1028.6h-583c-7.9 0-14.2-6.4-14.2-14.2v-583c0-7.9 6.4-14.2 14.2-14.2h583c7.9 0 14.2 6.4 14.2 14.2v583c0 7.9-6.3 14.2-14.2 14.2z"/><path id="G" d="M863.5 693.8H666.8c-4.2 0-7.5-3.4-7.5-7.5V489.6c0-4.2 3.4-7.5 7.5-7.5h196.7c4.2 0 7.5 3.4 7.5 7.5v196.7c0 4.2-3.3 7.5-7.5 7.5z"/><path id="H" d="M801.7 626.9h-92.6c-3.3 0-5.9-2.7-5.9-5.9 0-3.3 2.7-5.9 5.9-5.9h92.6c3.3 0 5.9 2.7 5.9 5.9 0 3.3-2.6 5.9-5.9 5.9z"/><path id="I" d="M825.8 650H685a3.12 3.12 0 0 1-3.1-3.1 3.12 3.12 0 0 1 3.1-3.1h140.8a3.12 3.12 0 0 1 3.1 3.1c.1 1.7-1.4 3.1-3.1 3.1z"/><path id="J" d="M797.4 669.2h-83.9a3.12 3.12 0 0 1-3.1-3.101c0-1.7 1.4-3.099 3.1-3.099h83.9c1.7 0 3.1 1.399 3.1 3.099a3.12 3.12 0 0 1-3.1 3.101z"/><path id="K" d="M763.4 506.7h-8v.8c-18.6 3.7-32.7 20.2-32.7 39.9a40.67 40.67 0 0 0 32.7 39.9v.8h8c22.5 0 40.7-18.2 40.7-40.7s-18.2-40.7-40.7-40.7z"/><path id="L" d="M755.4 588c22.478 0 40.7-18.222 40.7-40.7s-18.222-40.7-40.7-40.7-40.7 18.222-40.7 40.7 18.222 40.7 40.7 40.7z"/><path id="M" d="M747.8 564.299l-13.7-13.7c-.7-.7-.7-1.9 0-2.7l3.6-3.6c.7-.7 1.9-.7 2.7 0l8.8 8.8 21.2-21.3c.7-.7 1.9-.7 2.7 0l3.6 3.6c.7.7.7 1.9 0 2.7l-26.2 26.2c-.7.8-1.9.8-2.7 0z"/><path id="N" d="M1127.5 693.8H930.8c-4.2 0-7.5-3.4-7.5-7.5V489.6c0-4.2 3.4-7.5 7.5-7.5h196.7c4.2 0 7.5 3.4 7.5 7.5v196.7c.1 4.2-3.3 7.5-7.5 7.5z"/><path id="O" d="M1065.7 626.9h-92.6c-3.3 0-5.9-2.7-5.9-5.9 0-3.3 2.7-5.9 5.9-5.9h92.6c3.3 0 5.9 2.7 5.9 5.9.1 3.3-2.6 5.9-5.9 5.9z"/><path id="P" d="M1089.8 650H949a3.12 3.12 0 0 1-3.1-3.1 3.12 3.12 0 0 1 3.1-3.1h140.8a3.12 3.12 0 0 1 3.1 3.1c.1 1.7-1.3 3.1-3.1 3.1z"/><path id="Q" d="M1059.6 553.817c3.6-22.188-11.47-43.094-33.66-46.695-22.18-3.601-43.089 11.467-46.69 33.655s11.467 43.094 33.65 46.695c22.19 3.601 43.1-11.467 46.7-33.655z"/><path id="R" d="M1011.9 564.3l-13.7-13.7c-.7-.7-.7-1.9 0-2.7l3.6-3.6c.7-.7 1.9-.7 2.7 0l8.8 8.8 21.2-21.3c.7-.7 1.9-.7 2.7 0l3.6 3.6c.7.7.7 1.9 0 2.7l-26.2 26.2c-.8.8-2 .8-2.7 0z"/><path id="S" d="M863.5 971.6H666.8c-4.2 0-7.5-3.4-7.5-7.5V767.4c0-4.2 3.4-7.5 7.5-7.5h196.7c4.2 0 7.5 3.4 7.5 7.5v196.7c0 4.1-3.3 7.5-7.5 7.5z"/><path id="T" d="M797.4 947h-83.9a3.12 3.12 0 0 1-3.1-3.1 3.12 3.12 0 0 1 3.1-3.1h83.9a3.12 3.12 0 0 1 3.1 3.1 3.12 3.12 0 0 1-3.1 3.1z"/><path id="U" d="M1127.5 971.6H930.8c-4.2 0-7.5-3.4-7.5-7.5V767.4c0-4.2 3.4-7.5 7.5-7.5h196.7c4.2 0 7.5 3.4 7.5 7.5v196.7c.1 4.1-3.3 7.5-7.5 7.5z"/><path id="V" d="M1059.6 831.622c3.6-22.188-11.46-43.094-33.65-46.695s-43.096 11.467-46.697 33.655 11.467 43.094 33.657 46.695 43.09-11.467 46.69-33.655z"/></defs></svg>