<svg xmlns="http://www.w3.org/2000/svg" xmlns:xlink="http://www.w3.org/1999/xlink" width="1600" height="1200" fill="none" xmlns:v="https://vecta.io/nano"><style><![CDATA[.B{fill:#2980b9}.C{fill:#fff}.D{fill:#000}.E{opacity:.15}.F{opacity:.3}.G{fill:#21252b}.H{opacity:.25}.I{opacity:.4}.J{fill:#fc9d9d}.K{opacity:.2}.L{stroke-miterlimit:10}.M{fill:#868a91}.N{opacity:.85}.O{fill:#956363}.P{opacity:.7}.Q{stroke:#000}.R{opacity:.023}.S{fill:#b2b6bb}.T{fill:#f4f4f4}.U{fill:#b1b5ba}.V{fill:#858990}.W{fill:#3f4249}.X{stroke:#868a91}.Y{stroke-width:.57}.Z{stroke-linecap:round}.a{stroke-linejoin:round}]]></style><path d="M735.202 964.75h-567.75l-29.6-299.82c-.672-6.754.679-13.555 3.88-19.54l75.14-140.47c2.773-5.191 6.85-9.571 11.83-12.71l109.13-68.57a33.39 33.39 0 0 1 17.79-5.14h124.62a33.52 33.52 0 0 1 14.03 3.091 33.54 33.54 0 0 1 11.45 8.679L624.472 569c2.013 2.355 4.342 4.421 6.92 6.14l79.52 53.05a34.1 34.1 0 0 1 10.862 11.851c2.624 4.759 4.074 10.076 4.228 15.509l9.2 309.2z" class="T"/><path d="M349.21 746.211h15.33l-30.88 217.63h-6l21.55-217.63z" class="U"/><path d="M327.672 963.841h2.57l24.35-207.61a5 5 0 0 1 4.36-4.55l5-.5.62-4.88h-15.35l-21.55 217.54z" class="V"/><path d="M302.148 746.211h15.33l-30.9 217.63h-6l21.57-217.63z" class="U"/><path d="M280.578 963.84h2.57l15.7-128.84 4.75-2.95 13.18-81 .62-4.88h-15.33l-21.49 217.67z" class="V"/><path d="M469.84 964h-6L437.5 750.17h15.31L469.84 964z" class="U"/><path d="M466 964l-14.58-128.85 6.33-1.51-10.47-83.56h-9.85l26.37 213.79h2.25l-.05.13z" class="V"/><path d="M466.78 734.33H289.44a4.78 4.78 0 0 0-4.78 4.78v9.14a4.78 4.78 0 0 0 4.78 4.78h177.34a4.78 4.78 0 0 0 4.78-4.78v-9.14a4.78 4.78 0 0 0-4.78-4.78z" class="G"/><path d="M590.781 626.84v.09-.09z" class="C L Q"/><path d="M553.92 607l13.08 1.73 28-2.49c2.431.051 4.747 1.045 6.46 2.77l17.26 15.41c.525.475.848 1.133.9 1.839a2.75 2.75 0 0 1-.62 1.951h0a2.74 2.74 0 0 1-1.797.994c-.705.086-1.416-.105-1.983-.534l-16.34-12 10.61 12.55a2.68 2.68 0 0 1 .573 1.138c.097.42.091.856-.017 1.273s-.315.802-.603 1.122-.65.566-1.053.717a2.71 2.71 0 0 1-1.463.108 2.72 2.72 0 0 1-1.307-.668L591.39 619l10.8 10.61c.296.288.515.645.637 1.04a2.46 2.46 0 0 1 .059 1.217 2.47 2.47 0 0 1-.532 1.097 2.46 2.46 0 0 1-.994.706h0c-.39.165-.815.227-1.235.18a2.45 2.45 0 0 1-1.165-.45l-15.14-11.1 10.25 7.57c.279.2.506.464.662.769s.239.643.239.986a2.16 2.16 0 0 1-.239.987 2.15 2.15 0 0 1-.662.768h0c-.302.221-.654.361-1.025.409a2.21 2.21 0 0 1-1.095-.139l-13.76-5.72a5.05 5.05 0 0 0-4.19.07l-5.26 2.59c-3.16 1.49-7.56 1.17-12.27 1.17l-10.47-.49c1.91-7.35 7.92-24.27 7.92-24.27z" class="J"/><g class="D"><path d="M581.29 626.29l10.24 5.26c2.59 1.48 3.33-.46 3.33-.46.094.425.066.867-.081 1.275a2.3 2.3 0 0 1-.749 1.035c-.304.221-.658.361-1.03.409a2.23 2.23 0 0 1-1.1-.139L578.15 628a5.05 5.05 0 0 0-4.15 0l2.67-1.57a5.1 5.1 0 0 1 2.293-.623c.803-.024 1.6.141 2.327.483h0z" class="E"/><path d="M593.213 628.999c-.05.006-.101.002-.15-.014a.35.35 0 0 1-.13-.076l-9.41-6.91a.45.45 0 0 1-.123-.13c-.032-.051-.053-.109-.063-.168a.44.44 0 0 1 .086-.342c.19-.19.47-.28.65-.09l9.42 6.92a.46.46 0 0 1 .177.302c.017.12-.014.241-.087.338a.65.65 0 0 1-.37.17zm7.97-.588c-.1 0-.28 0-.28-.09l-10.15-10c-.045-.041-.082-.092-.106-.148a.45.45 0 0 1-.038-.177.44.44 0 0 1 .038-.178.43.43 0 0 1 .106-.147.44.44 0 0 1 .146-.099.45.45 0 0 1 .347 0c.055.023.105.056.147.099l10.15 10c.045.041.081.091.106.147s.037.117.037.178a.45.45 0 0 1-.037.177c-.025.056-.061.107-.106.148-.106.071-.233.103-.36.09h0z" class="R"/></g><path d="M642.473 929.05l15.53 31.95h42.2l3.55-14.37-14.4-7.35a5.18 5.18 0 0 1-2.56-3l-6.89-20.68-37.43 13.45z" class="J"/><path d="M655.473 937.21l27.12-13.5-2.69-8.06-37.43 13.4 15.53 31.95h9.8l-13.18-20.55a2.27 2.27 0 0 1-.335-.873 2.28 2.28 0 0 1 .046-.934 2.27 2.27 0 0 1 1.139-1.433h0z" class="D E"/><path d="M541.734 946.659L538.184 961h-42.25v-35.57l33.34-2.16v9 6.31a5.18 5.18 0 0 0 2.56 3l9.9 5.079z" class="J"/><path d="M529.294 932.289l-26 4.35a2.5 2.5 0 0 0-2.07 2.76l2.62 21.6h-7.91v-28.71h33.36z" class="D E"/><path d="M735.112 960.769a10.49 10.49 0 0 0-2.028-5.784c-1.236-1.683-2.946-2.959-4.912-3.666l-28.44-8.64a2 2 0 0 0-1.522.115c-.472.238-.831.653-.997 1.155-1.08 3.6-3.791 11.34-9.091 16.83l-30.56-.1a2 2 0 0 0-2 2c0 .531.211 1.039.586 1.415a2 2 0 0 0 1.414.585l75.571.1c.53 0 1.039-.21 1.414-.586a2 2 0 0 0 .586-1.414v-2l-.021-.01zm-164.842-.67v1.9a1.94 1.94 0 0 1-1.93 1.92l-73.74-.1c-.264.019-.53-.017-.78-.105a1.92 1.92 0 0 1-.673-.407c-.195-.181-.349-.399-.455-.643a1.93 1.93 0 0 1-.161-.77c0-.265.055-.527.161-.771s.26-.461.455-.642a1.92 1.92 0 0 1 .673-.407c.25-.088.516-.124.78-.105l29.82.1c5.17-5.37 7.81-12.92 8.87-16.43a1.89 1.89 0 0 1 .363-.669 1.88 1.88 0 0 1 .598-.472 1.9 1.9 0 0 1 .735-.198c.256-.015.513.022.754.109l18.81 5.72 8.94 2.72a10.24 10.24 0 0 1 6.77 9.2h0l.01.05z" class="G"/><path d="M682.131 922.35l-36.72 12.88-94.11-198h-153.86v-69l175.73.921c11.25-.44 16.36 6.739 20.4 18.639l88.56 234.56z" class="W"/><path d="M666.001 928.001l-20.59 7.22-93.89-198h-154.08v-69h131.49c19.14.09 23.75 0 31.19 14.14l105.88 245.64z" class="D E"/><path d="M534.001 932.29h-44.14c-5.91-94-14-175.29-11.84-195.11h-134.48a36.9 36.9 0 0 1-14.128-2.806c-4.479-1.855-8.549-4.573-11.978-8.001s-6.148-7.497-8.003-11.975-2.811-9.28-2.811-14.128v-32.12h197 1.3c14.84.65 26.41 13.18 26.59 28l2.49 236.14z" class="W"/><path d="M492.002 718.73c-2.59-.9-134.49 0-134.49 0-8.66 0-15.72-3-21-8-11.09-10.56-11.51-28.18-1.51-39.8l2.4-2.78h-30.64v32.12a36.92 36.92 0 0 0 36.92 36.92h134.48c-1.79 36.67 6.61 112.13 11.55 190.24h14.43l-12.14-208.7z" class="D E"/><g class="B"><path d="M554.62 606.89l-89.21-20.61-25.66-67c-7.37-19.21-48.54-.16-47.65 2.43L426.68 609c2.13 5.38 5.95 7.71 13.25 8.39l110.29 14.41 4.4-24.91z"/><path d="M452.9 553.631l-37.26 9.16-4.55 1.12-8.59-29 .8-37.69 20.59 3.38c6.14 2.34 10.78 6.38 12.93 11.25l16.08 41.78z"/></g><path d="M443.351 615.139c-7.31-.68-11.13-3-13.26-8.39l-28.95-88.21c-.06-.18-9.22 2.7-9 3.21l34.54 87.25c2.13 5.38 5.95 7.71 13.25 8.39l110.29 14.41.49-2.8-107.36-13.86z" class="D E"/><path d="M423.924 500.639l-7.48 56.06-.8 6.08-1 7.42-2.43 18.37-.18 8.87-.26 13.56-.58 27.57v.69l.84 11 1 13.37a10.86 10.86 0 0 1-.507 4.217c-.444 1.359-1.153 2.617-2.085 3.701a10.86 10.86 0 0 1-3.345 2.618 10.85 10.85 0 0 1-4.093 1.134c-34.51 2.35-76.79-1.38-93.69 1.84a4.99 4.99 0 0 1-3.903-.914c-.552-.413-1.013-.936-1.353-1.536a5 5 0 0 1-.624-1.95l-1.24-17.35-2.07-28.83-8.63-120.49-.15-2 16.46-4.47 2.54-.68.25-.07 26.62-7.23 48.07 2.71 18 3 20.59 3.38.05-.07z" class="B"/><g class="D"><path d="M414.663 570.211l-2.43 18.37-.18 8.87h-94.58v-27.24h97.19z" class="E"/><path d="M416.443 556.711l-1.78 13.5h-97.19v-13.5h98.97zm-4.39 40.769l-.28 13.51h-94.3v-13.51h94.58z" class="F"/><path d="M303.13 668.9l105.35-2.68a7.28 7.28 0 0 0 .09-2.7L302 653.1l1.13 15.8z" class="E"/><path d="M411.29 639.27l1-50.68 5.31-41.41c.013-.126-.001-.254-.041-.374a.9.9 0 0 0-.492-.546.89.89 0 0 0-.367-.08h0c-.212-.001-.417.072-.58.208a.9.9 0 0 0-.31.532l-8.07 41.7-1 50.68 1.84 24.41a10.82 10.82 0 0 1-.518 4.219c-.449 1.358-1.163 2.614-2.1 3.695a10.85 10.85 0 0 1-7.462 3.716c-8.66.59-5.55.69 4.57 0 1.426-.099 2.818-.479 4.096-1.118a10.82 10.82 0 0 0 3.353-2.605 10.84 10.84 0 0 0 2.095-3.693 10.83 10.83 0 0 0 .516-4.214l-1.84-24.44z" class="E"/></g><g class="B"><path d="M416.244 639.429l-4.24 10.86-5.28 13.56-99.63-7.57c-1.676-.127-3.335-.425-4.95-.89-5.005-1.488-9.471-4.394-12.857-8.368a27 27 0 0 1-6.223-14.022l-.93-6.58-12.35-86.9c-1.11-12.36 6.37-26.11 21.68-33.45.91-.44 1.85-.86 2.82-1.25l13.52-5.27 2.54-.68 15.87 125 85 14.65 5.03.91z"/><path d="M326.212 623.911l-26.12 2.65-17.66 1.8-.3-1.94-13-82.58a35.77 35.77 0 0 1 15.42-36.16 48.33 48.33 0 0 1 6.74-3.65h0l16.46-4.47 2.54-.68.25-.07 15.67 125.1z"/></g><path d="M447.562 658.551v.09-.09z" class="C L Q"/><path d="M410.693 638.689l13.109 1.75 28-2.49c2.431.056 4.745 1.048 6.461 2.77l17.259 15.41c.525.476.845 1.135.895 1.841s-.173 1.404-.624 1.949c-.449.55-1.094.905-1.798.99s-1.415-.104-1.982-.53l-16.34-12 10.62 12.55c.279.329.475.719.571 1.14a2.69 2.69 0 0 1-.019 1.274 2.68 2.68 0 0 1-1.663 1.836h0a2.71 2.71 0 0 1-1.463.108c-.488-.099-.94-.33-1.306-.668l-14.21-13.93 10.8 10.61c.296.288.514.645.636 1.04a2.45 2.45 0 0 1 .059 1.217c-.082.405-.265.782-.532 1.097a2.46 2.46 0 0 1-.993.706c-.39.166-.815.229-1.236.181s-.822-.202-1.165-.451l-15.169-11.09 10.239 7.57c.279.2.506.464.663.769s.238.643.238.986a2.16 2.16 0 0 1-.901 1.755 2.2 2.2 0 0 1-2.119.27l-13.72-5.71a5.07 5.07 0 0 0-2.09-.401c-.717.015-1.423.183-2.071.491l-5.26 2.59c-3.16 1.49-7.559 1.16-12.27 1.16l-10.75.09c1.93-7.34 8.131-24.88 8.131-24.88z" class="J"/><g class="D"><path d="M438.063 658.001l10.25 5.26c2.58 1.48 3.32-.46 3.32-.46a2.25 2.25 0 0 1-.074 1.277c-.147.41-.409.768-.756 1.033a2.21 2.21 0 0 1-1.025.408c-.37.047-.747 0-1.095-.138l-13.75-5.72a5.06 5.06 0 0 0-2.089-.402c-.717.016-1.423.183-2.071.492l2.68-1.57a5.08 5.08 0 0 1 4.61-.18z" class="E"/><path d="M450.004 660.729c-.049.006-.099.001-.146-.014s-.089-.042-.124-.076l-9.42-6.93c-.18-.18-.28-.46-.09-.64a.45.45 0 0 1 .133-.124.47.47 0 0 1 .171-.063.46.46 0 0 1 .181.009c.06.015.116.041.165.078l9.41 6.93c.18.18.28.46.09.64-.099.103-.229.17-.37.19h0zm7.996-.608c-.09 0-.28 0-.28-.1l-10.15-10c-.045-.042-.082-.093-.108-.149s-.039-.118-.04-.18.01-.124.033-.181.058-.11.102-.154a.46.46 0 0 1 .153-.101.45.45 0 0 1 .181-.033c.062.001.123.015.18.04s.107.062.149.108l10.15 10c.042.042.076.092.099.146a.45.45 0 0 1 0 .347.46.46 0 0 1-.099.147.52.52 0 0 1-.37.11h0z" class="R"/></g><path d="M536.153 933.43h-48.94l-.33-7.44h49.27v7.44z" class="B"/><path d="M504.143 933.43h-16.89l-.37-7.44h17.26v7.44z" class="D E"/><path d="M687.352 920.62l-46.26 15.99-2.74-6.92 46.57-16.1 2.43 7.03z" class="B"/><path d="M665.522 928.171l-24.31 8.4-2.86-6.88 24.74-8.55 2.43 7.03z" class="D E"/><path d="M388.174 451.59l1.22-7.49c.746-4.524-.232-9.163-2.74-13l-2.74-4.1a18.29 18.29 0 0 0-23.9-6.14l-1.3.68c-2.361 1.256-4.418 3.013-6.028 5.148s-2.734 4.597-3.292 7.212h0a26.39 26.39 0 0 0-1.22 5.21l-1.29 7.89-1.39 9.78-5.65 37.89h46l-.05-27.76c.686-2.229 1.103-4.532 1.24-6.86l1.14-8.46z" class="J"/><path d="M409.658 423.862c.659-6.617-4.482-12.546-11.484-13.244s-13.212 4.101-13.871 10.718 4.482 12.546 11.484 13.244 13.211-4.101 13.871-10.718z" class="G"/><path d="M398.002 416.469s8.33 61.41-22.87 62.39c-27 .9-25.8-40.93-25.8-40.93l4-26.81 44.67 5.35z" class="J"/><path d="M394.772 390.14c-3.95 0-8.15-.06-11.88 0l-7 .09c-3.79.088-7.473 1.276-10.6 3.42-.78.546-1.688.881-2.636.972a5.53 5.53 0 0 1-2.774-.452c-.992-.45-2.042-.76-3.12-.92-.53-.072-1.064-.109-1.6-.11a11.24 11.24 0 0 0-7.055 2.471c-2 1.604-3.392 3.844-3.945 6.349h0s-.38 2.58-4.11 4.5l-.49.23-.46.22-.27.13c-5 2.71-8.43 8.56-8.43 15.35 0 9.37 6.58 17 14.71 17 1.953-.001 3.881-.442 5.64-1.29l.12 1.17c.044.328.201.63.444.855a1.42 1.42 0 0 0 .886.375h.05c.186.017.374-.006.551-.067a1.3 1.3 0 0 0 .785-.747c.07-.173.102-.359.094-.546l.1-3 .1-3a1.83 1.83 0 0 1 .58-1.134 1.82 1.82 0 0 1 1.18-.476h.11c.679.003 1.354-.101 2-.31 1.227-.384 2.303-1.143 3.075-2.172a6.13 6.13 0 0 0 1.225-3.558c.088-1.629.8-3.161 1.988-4.279a6.34 6.34 0 0 1 4.392-1.721l17.28.47h1.12l9 .25c1.033-.056 2.047-.289 3-.69h0a14.89 14.89 0 0 0 10.593-16.391c-.504-3.55-2.271-6.798-4.977-9.15a14.89 14.89 0 0 0-9.756-3.649l.08-.19z" class="G"/><path d="M347.301 449.179s2.55.46 4-.49l-5 6.27 1-5.78z" class="D E"/><path d="M350.382 433.35s-1.41-5.82-7.59-3.84c-7 2.28-7.13 17.62 4.12 19.64 5.87 1.09 5-2.48 4.51-7.22l-1.04-8.58z" class="J"/><g class="D"><path d="M342.101 433.42c.491-.311 1.04-.522 1.613-.618a4.37 4.37 0 0 1 1.727.058c.536.196 1.024.505 1.431.905s.724.883.929 1.415c.598 1.332.833 2.799.68 4.25v1.29c-.017.183-.107.352-.248.469s-.324.174-.507.156a.69.69 0 0 1-.469-.248c-.117-.141-.173-.324-.156-.507v-1.3a8.43 8.43 0 0 0-.54-3.54c-.319-.71-.869-1.291-1.56-1.65-.764-.14-1.553-.009-2.23.37-.173.086-.371.104-.556.05a.77.77 0 0 1-.444-.34c-.13-.11.01-.49.33-.76z" class="F"/><path d="M385.813 485.06l-.07-9.66c-2.83 2.41-10.4 5.38-18.59 2.58a20.63 20.63 0 0 1-10.09-7.78.61.61 0 0 0-.168-.183c-.067-.048-.144-.083-.226-.101s-.166-.018-.248-.002-.159.049-.228.096a.62.62 0 0 0-.183.17.63.63 0 0 0-.102.229.64.64 0 0 0-.002.25.61.61 0 0 0 .097.231 22.4 22.4 0 0 0 13.45 9 21.91 21.91 0 0 0 7.653 4.253 21.92 21.92 0 0 0 8.707.917z" class="E"/><path opacity=".09" d="M378.623 466.849c0 .1-.11.09 0 0l-3.78-.08a.87.87 0 0 1-.8-.87c-.002-.112.02-.223.064-.326a.81.81 0 0 1 .191-.273c.082-.076.179-.134.285-.171s.218-.05.33-.04l3.68.07c.5 0 .86.38.82.77-.05.6-.41.96-.79.92zm1.738-3.42c-6.8.32-9.5-3.64-10.41-5.52-.082-.192-.086-.41-.011-.605a.81.81 0 0 1 .411-.445.83.83 0 0 1 .609-.009c.197.075.358.221.451.409.81 1.87 3.78 6.06 12.13 4.2a.79.79 0 0 1 .306-.006c.101.017.198.055.285.11a.78.78 0 0 1 .221.211.79.79 0 0 1 .123.28.77.77 0 0 1 .007.306c-.018.101-.055.198-.11.285a.77.77 0 0 1-.212.221.78.78 0 0 1-.28.123 17.45 17.45 0 0 1-3.52.44h0z"/></g><path d="M373.101 444.771a2.48 2.48 0 1 0 0-4.96 2.48 2.48 0 1 0 0 4.96z" class="G"/><path d="M374.273 442.109a.5.5 0 1 0 0-1 .5.5 0 1 0 0 1z" class="C"/><path d="M392.632 446.81a2.48 2.48 0 1 0 0-4.96 2.48 2.48 0 0 0 0 4.96z" class="G"/><path d="M393.793 444.16a.5.5 0 1 0 0-1 .5.5 0 1 0 0 1z" class="C"/><g class="D"><path opacity=".09" d="M382.732 457.601l-3.27-.13a.83.83 0 0 1-.72-.76.84.84 0 0 1 .77-.72l3.27.13c.197.006.394-.026.578-.095a1.52 1.52 0 0 0 .498-.309c.143-.135.259-.297.341-.476a1.5 1.5 0 0 0 .038-1.148 1.49 1.49 0 0 0-.309-.498 1.48 1.48 0 0 0-.476-.341c-.179-.082-.373-.127-.57-.133a.84.84 0 0 1-.72-.76c-.06-.4.36-.66.76-.72a3 3 0 0 1 2.89 3 3.08 3.08 0 0 1-.943 2.1c-.575.552-1.34.86-2.137.86z"/><path d="M319.18 543.33l6.5 22.6 7.47 51.17 73.62 20.7-80.56-13.89-10-80a1.52 1.52 0 0 1 .294-1.056c.226-.303.557-.511.928-.584a1.52 1.52 0 0 1 1.079.192c.323.196.562.505.669.868h0z" class="E"/><path d="M410.692 638.689l-8.16 24.88-14.77-1.16 9.15-27.38 13.78 3.66z" class="F"/></g><path d="M387.823 484.196l-49.053-3.086a3.28 3.28 0 0 0-3.48 3.068l-.434 6.906a3.28 3.28 0 0 0 3.067 3.48l49.053 3.086a3.28 3.28 0 0 0 3.48-3.068l.434-6.906a3.28 3.28 0 0 0-3.067-3.48z" class="B"/><path d="M570.259 960.08h-20.7c2.79-2.56 4.13-6.94 5-11.92l8.94 2.72a10.24 10.24 0 0 1 4.781 3.571c1.204 1.638 1.892 3.598 1.979 5.629h0zm164.863.44h-20.7c2.79-2.56 4.13-6.94 5-11.92l8.94 2.72a10.24 10.24 0 0 1 6.76 9.2h0z" class="J"/><g class="D"><path d="M735.109 960.77a10.51 10.51 0 0 0-4.59-8.28c3.51 2.52 2.88 5-2.16 4.87l-36.28-1.54a.33.33 0 0 0 .074-.12c.016-.045.021-.092.016-.14-1.151 1.845-2.492 3.564-4 5.13h-30.61a2 2 0 0 0-1.415 3.414c.375.376.884.586 1.415.586h75.65c.53 0 1.039-.21 1.414-.586a2 2 0 0 0 .586-1.414v-1.89h-.09l-.01-.03zm-164.941-.701a10.42 10.42 0 0 0-1.301-4.691 10.43 10.43 0 0 0-3.289-3.589c3.51 2.52 2.88 5-2.16 4.86l-35-1.53c.037-.034.065-.076.083-.123a.32.32 0 0 0 .017-.147 31.66 31.66 0 0 1-4 5.13h-29.87a2 2 0 1 0 0 4h73.63a2 2 0 0 0 2-2v-1.9l-.11-.01zM372.369 495.431h-.05l-37.39-2.43c-.21-.016-.406-.114-.545-.273a.8.8 0 0 1-.195-.577c.02-.209.12-.402.278-.539a.82.82 0 0 1 .572-.201l37.39 2.45c.212.008.413.1.557.255a.8.8 0 0 1 .213.575c-.008.212-.1.412-.255.557a.8.8 0 0 1-.575.213v-.03z" class="E"/></g><path d="M438.288 661.6h79.6a1.23 1.23 0 0 1 1.21 1.21v4c-.007.318-.137.622-.363.847a1.24 1.24 0 0 1-.847.363h-79.6a1.25 1.25 0 0 1-1.21-1.21v-4a1.2 1.2 0 0 1 .087-.466c.06-.148.149-.283.262-.396a1.19 1.19 0 0 1 .395-.262 1.2 1.2 0 0 1 .466-.086h0z" class="C L Q"/><path d="M438.261 661.6h79.6a1.23 1.23 0 0 1 1.21 1.21v4c-.008.318-.138.622-.363.847s-.529.355-.847.363h-79.6a1.25 1.25 0 0 1-1.21-1.21v-4a1.18 1.18 0 0 1 .087-.466c.059-.148.148-.283.261-.396s.248-.202.396-.262.306-.089.466-.086h0z" class="D"/><path d="M491.839 661.939h138.78c.318.008.622.138.847.363s.355.529.363.847v4a1.25 1.25 0 0 1-.366.845c-.224.225-.526.355-.844.365h-138.78a1.25 1.25 0 0 1-.845-.365c-.224-.225-.355-.527-.365-.845v-4a1.3 1.3 0 0 1 .378-.832c.222-.222.518-.356.832-.378h0z" class="G"/><path d="M629.002 662.41h-141.3c-.097-.015-.185-.064-.248-.138a.41.41 0 0 1-.099-.267c0-.097.035-.192.099-.266a.41.41 0 0 1 .248-.139h141.3a.38.38 0 0 1 .156.025c.05.019.095.048.133.086s.067.083.086.133a.38.38 0 0 1 .025.156c-.005.106-.048.206-.122.281a.43.43 0 0 1-.278.129h0z" class="L Q"/><path d="M491.66 661.601h20.9c.787.001 1.549-.273 2.153-.776s1.015-1.201 1.157-1.974l17.52-92.11a3.31 3.31 0 0 0-.026-1.478 3.32 3.32 0 0 0-.665-1.319c-.318-.385-.719-.692-1.172-.901s-.948-.311-1.447-.302h-20.91a3.38 3.38 0 0 0-2.146.776c-.604.5-1.015 1.194-1.164 1.964l-17.51 92.11c-.094.488-.079.99.043 1.472a3.38 3.38 0 0 0 1.83 2.217c.45.211.94.321 1.437.321z" class="D"/><path d="M494.64 661.601h134.25c.787.001 1.549-.273 2.153-.776s1.015-1.201 1.157-1.974l17.52-92.11a3.31 3.31 0 0 0-.026-1.478 3.32 3.32 0 0 0-.665-1.319c-.318-.385-.719-.692-1.172-.901s-.948-.311-1.447-.302H512.24a3.37 3.37 0 0 0-3.31 2.74l-17.52 92.11c-.11.483-.109.985.002 1.467a3.28 3.28 0 0 0 .642 1.32c.311.386.705.697 1.153.909s.938.319 1.433.314h0z" class="G"/><path opacity=".6" d="M571.339 609.61c-.81 1.86.08 3.47 1.93 3.47h.33c-2.18 2.42-5.49 4.12-8.4 4-4-.08-5.81-3.31-4-7.27s6.38-7 10.34-6.94c2.5.08 4.19 1.37 4.6 3.39a5.82 5.82 0 0 0-2.853 1.026c-.843.589-1.515 1.391-1.947 2.324h0z" class="D"/><path d="M699.33 668.381h-297.9v12.84h297.9v-12.84z" class="S"/><path d="M496.03 668.381h-94.6v12.84h94.6v-12.84z" class="M"/><g fill="#65676b"><path d="M687.348 741.691h-269.7v-60.47h265.35l4.35 60.47z"/><path d="M417.649 681.221l-14.77 282.74h7.74l34.66-282.74h-27.63zm59.031 0l-7.34 282.74h7.73l27.23-282.74h-27.62z"/><path d="M686.958 689.461h-193.22v-8.24h192.69l.53 8.24z"/></g><path d="M393.9 433.449c-1.101-.064-2.205.092-3.245.459a8.3 8.3 0 0 0-2.815 1.681 10.84 10.84 0 0 0-3.38 6.21 3.56 3.56 0 0 0-1.529-.423c-.535-.024-1.068.073-1.561.283-.32-5.08-3.84-9.23-8.38-9.54a8.31 8.31 0 0 0-3.245.461c-1.04.367-1.997.938-2.815 1.679a10.71 10.71 0 0 0-3.24 5.5l-2.1-.45a.81.81 0 0 0-.325-.022.78.78 0 0 0-.307.11.79.79 0 0 0-.368.522.81.81 0 0 0 .61.95l2.18.47c0 .19 0 .37-.05.55-.34 5.72 3.43 10.64 8.39 11 .177.01.354.01.53 0 2.047-.015 4.015-.784 5.53-2.16a10.99 10.99 0 0 0 3.52-7.25c.424-.343.961-.515 1.505-.481s1.057.269 1.435.661c-.13 5.53 3.56 10.22 8.4 10.54.177.01.354.01.53 0 2.044-.016 4.009-.785 5.52-2.16 1.068-.975 1.932-2.15 2.545-3.459s.961-2.727 1.025-4.171c.37-5.7-3.4-10.62-8.36-10.96zm-17.14 16.07a6.68 6.68 0 0 1-2.268 1.37 6.66 6.66 0 0 1-2.622.38c-4.09-.28-7.19-4.44-6.91-9.29 0-.31.06-.63.1-.94a.56.56 0 0 0 .06-.14c.01-.059.01-.12 0-.18a9.17 9.17 0 0 1 2.86-5.26c1.225-1.113 2.815-1.739 4.47-1.76h.42c4.09.27 7.19 4.44 6.9 9.28a9.38 9.38 0 0 1-.854 3.57 9.39 9.39 0 0 1-2.156 2.97h0zm23.94-5.19a9.4 9.4 0 0 1-3 6.52 6.68 6.68 0 0 1-2.272 1.371c-.842.301-1.735.43-2.628.379-4.09-.28-7.18-4.44-6.9-9.29.1-2.484 1.178-4.828 3-6.52.659-.603 1.433-1.067 2.274-1.366s1.735-.426 2.626-.374c4.09.27 7.2 4.44 6.9 9.28z" class="B"/><path d="M395.911 421.35h-3.18c-.3 0-.67-.27-.63-.65s.27-.67.66-.63h3.18c.401.024.805-.003 1.2-.08 1.333-.293 2.621-.764 3.83-1.4a.65.65 0 0 1 .242-.067.64.64 0 0 1 .249.031c.08.026.155.068.219.124s.117.122.155.197.061.158.067.243a.64.64 0 0 1-.154.468.66.66 0 0 1-.198.154c-1.298.7-2.694 1.199-4.14 1.48l-1.5.13z" class="J"/><path d="M380.93 470.67c-.047-.138-.123-.264-.223-.369s-.222-.187-.358-.241a1.01 1.01 0 0 0-.425-.068 1 1 0 0 0-.414.118c-1.27.669-2.731.885-4.14.61a7.03 7.03 0 0 1-2-.68c-.114-.067-.239-.11-.37-.128s-.263-.01-.39.023-.247.092-.352.172-.192.179-.258.293c-1.32 2.19-3.4 4.65-6.33 5.27a1.21 1.21 0 0 0-.645.332c-.177.173-.296.396-.343.639a1.22 1.22 0 0 0 .558 1.269c3.82 2.32 10.79 4.73 19.05-.73a1.26 1.26 0 0 0 .384-.43 1.25 1.25 0 0 0 .028-1.122 1.24 1.24 0 0 0-.362-.448 9.25 9.25 0 0 1-3.41-4.51h0z" class="G"/><path d="M168.84 797.34c20 37.86 28.58 107.21 28.58 107.21m3.05-24.821C198.39 840.999 212 785.27 212 785.27" class="L X Y"/><path d="M137.77 761c32.74 2.22 32.88 39.67 32.88 39.67C135 794 137.64 761.14 137.77 761zm158.822 6.099c-38.7-10-47.58 25.52-47.58 25.52 40.23.69 47.58-25.52 47.58-25.52zm-74.354-5.958c-26.77 16-15.25 46.18-15.25 46.18 27.01-16.5 15.39-46.18 15.25-46.18z" class="B"/><g class="L X Y"><path d="M213.371 904.549c0-71.15 35.64-111.93 35.64-111.93M202.13 904.55c-4.58-79.33-7.9-86.13-15.81-117.48"/><path d="M221.689 903.169c-8.18-100.7 41.19-152.439 56.87-159.649m-17.9 66.849c-43.13 23.17-32.87 92.93-32.87 92.93m-47.43-29.68c11.92 9.3 15.64 20.38 15.64 20.38m-40.608-46.729c12.2 3.61 36.62 25.1 36.62 25.1"/></g><path d="M288.819 800c-38.14-8.6-47.71 28-47.71 28 41.33 3.18 47.89-28 47.71-28z" class="B"/><path d="M288.819 800c-38.14-8.6-47.71 28-47.71 28 41.33 3.18 47.89-28 47.71-28z" class="C I"/><path d="M263.161 848.101c-34.81-8.6-41.47 17.34-41.47 17.34 29.96 8.56 41.31-17.34 41.47-17.34zm-110.96-45.222c42.58 5 45.77 45.78 45.77 45.78-47.85-5.97-45.77-45.91-45.77-45.78z" class="B"/><path d="M209.62 904.55l-1.94-180.45" class="L X Y"/><path d="M237.781 799.42c0 40.22-36.34 38.28-36.34 38.28 1.11-37.87 36.34-38.28 36.34-38.28z" class="B"/><path d="M237.781 799.42c0 40.22-36.34 38.28-36.34 38.28 1.11-37.87 36.34-38.28 36.34-38.28z" class="C I"/><path d="M125.852 832.709c31.34-7.08 41.19 20.66 41.19 20.66-35.92 2.63-41.04-20.66-41.19-20.66z" class="B"/><path d="M125.852 832.709c31.34-7.08 41.19 20.66 41.19 20.66-35.92 2.63-41.04-20.66-41.19-20.66z" class="C I"/><g class="M"><path d="M181.461 911.9h64.36v-8h-64.36v8z"/><path d="M186.18 911.9h55.2l-3.6 52.85h-48l-3.6-52.85z"/><path d="M186.18 911.9h55.2l-3.6 52.85h-48l-3.6-52.85z"/></g><path d="M181.602 911.9h4.58l3.61 52.85h11.65l.14-50.63h39.53l.27-2.22h-49.38v-8h-10.4v8z" fill="#61656d"/><path d="M202.82 702.6c23.17 25.8 5.41 52.71 5.41 52.71-20.8-26.49-5.41-52.71-5.41-52.71z" class="B"/><path d="M202.82 702.6c23.17 25.8 5.41 52.71 5.41 52.71-20.8-26.49-5.41-52.71-5.41-52.71z" class="C I"/><path d="M176.612 742c34.95 25.65 15.39 67.4 15.39 67.4-39.38-29.68-15.25-67.4-15.39-67.4z" class="B"/><path d="M176.612 742c34.95 25.65 15.39 67.4 15.39 67.4-39.38-29.68-15.25-67.4-15.39-67.4z" class="C I"/><path d="M157.75 866.411c24.82-3.88 29.54 14.29 29.54 14.29-25.52 4.16-29.54-14.29-29.54-14.29zm36.752-16.641c32.18 4.16 26.77 39.389 26.77 39.389-34.4-8.88-26.77-39.389-26.77-39.389z" class="B"/><path d="M194.502 849.77c32.18 4.16 26.77 39.389 26.77 39.389-34.4-8.88-26.77-39.389-26.77-39.389z" class="C I"/><path d="M264.129 754.889c3.75-18.58 23.16-16.64 23.16-16.64-5.54 18.75-23.16 16.51-23.16 16.64z" class="B"/><path d="M264.129 754.889c3.75-18.58 23.16-16.64 23.16-16.64-5.54 18.75-23.16 16.51-23.16 16.64z" class="C F"/><path d="M240.551 788.741c23.58-27.33-.55-52.43-.55-52.43-23.17 25.69.55 52.43.55 52.43z" class="B"/><path d="M240.551 788.741c23.58-27.33-.55-52.43-.55-52.43-23.17 25.69.55 52.43.55 52.43z" class="C I"/><path opacity=".05" d="M313.07 650c-1.676-.127-3.335-.426-4.95-.89a27 27 0 0 1-12.893-8.38c-3.395-3.984-5.558-8.869-6.227-14.06l-.93-6.58-13-82.58c-.878-4.986-.697-10.102.531-15.014A36.1 36.1 0 0 1 282.2 509c-5.09 4.026-8.992 9.357-11.29 15.426s-2.906 12.647-1.76 19.034l13 82.58.93 6.58c.677 5.175 2.839 10.044 6.225 14.016s7.852 6.877 12.855 8.364c1.615.464 3.274.763 4.95.89l99.63 7.57 2.42-6.23-96.09-7.23z" class="D"/><path d="M227.439 516.891h-91.56v116.61h91.56v-116.61z" fill="#e0e0e0"/><path d="M215.222 528.619h-67.12v93.15h67.12v-93.15z" class="C"/><path d="M133.27 633.459h2.64v-116.6h-2.64v116.6z" fill="#c1c1c1"/><path d="M195.84 571.49a14.58 14.58 0 0 0-2.453-8.103c-1.6-2.399-3.877-4.269-6.541-5.374s-5.596-1.395-8.425-.834a14.59 14.59 0 0 0-7.467 3.988 14.58 14.58 0 0 0-3.993 7.465 14.57 14.57 0 0 0 .828 8.426 14.58 14.58 0 0 0 13.471 9.002 14.58 14.58 0 0 0 10.306-4.266c2.734-2.733 4.271-6.439 4.274-10.304h0z" class="B"/><g class="D"><path d="M209.648 563.56L195.098 541l-14.61 22.82 29.16-.26zm-29.159 15.879h-25.36v25.35h25.36v-25.35z" class="K"/></g><path d="M814.931 966.419l-10.74-305.54a50.66 50.66 0 0 1 13.13-36.14l147.07-158.52c4.466-4.847 9.955-8.639 16.07-11.1l106.719-42.58c4.91-1.971 10.14-2.99 15.43-3H1228a43.18 43.18 0 0 1 18.35 4.271 43.19 43.19 0 0 1 14.79 11.679l67.55 81c3.6 4.352 7.99 7.989 12.94 10.72l68.11 37.43c15 8.24 24.46 24.92 24.46 43.14v368.64H814.931z" class="T"/><path d="M912.449 844.281v-120.12a.49.49 0 0 1 .175-.329c.099-.083.227-.123.355-.111.13-.012.259.028.359.11a.5.5 0 0 1 .181.33v120.12a.5.5 0 0 1-.54.44.49.49 0 0 1-.53-.44h0z" class="M"/><path d="M1312.59 678.939H989.078v287.52h323.512v-287.52z" class="T"/><path d="M1071.27 712.809v-162.65c0-5.46 3.62-9.88 8.1-9.88h251.76v172.53c0 5.45-3.63 9.87-8.11 9.87h-243.65c-4.48 0-8.1-4.42-8.1-9.87z" class="S"/><path d="M1312.59 712.809v-162.74a9.99 9.99 0 0 1 .75-3.779c.5-1.198 1.23-2.287 2.14-3.203a9.89 9.89 0 0 1 3.21-2.139 9.86 9.86 0 0 1 3.78-.749h45.2a9.86 9.86 0 0 1 3.78.749 9.89 9.89 0 0 1 3.21 2.139c.91.916 1.64 2.005 2.14 3.203a9.99 9.99 0 0 1 .75 3.779v162.74a10 10 0 0 1-.75 3.78c-.5 1.198-1.23 2.286-2.14 3.203-.92.917-2.01 1.643-3.21 2.139a9.86 9.86 0 0 1-3.78.748h-45.2a9.86 9.86 0 0 1-3.78-.748c-1.2-.496-2.29-1.222-3.21-2.139-.91-.917-1.64-2.005-2.14-3.203a10 10 0 0 1-.75-3.78h0zm-271.36-23.99a9.89 9.89 0 0 0-2.89-6.986 9.9 9.9 0 0 0-6.99-2.894H905.249a9.87 9.87 0 0 0-3.78.753c-1.198.496-2.286 1.224-3.203 2.142a9.89 9.89 0 0 0-2.139 3.205c-.495 1.199-.749 2.483-.748 3.78v277.55h145.851v-277.55z" class="M"/><g class="S"><path d="M927.938 688.819c.002-1.297-.253-2.581-.748-3.78s-1.222-2.288-2.139-3.205-2.005-1.646-3.203-2.142-2.483-.753-3.78-.753h-45.21a9.86 9.86 0 0 0-3.779.753c-1.198.496-2.287 1.224-3.203 2.142s-1.644 2.007-2.139 3.205-.75 2.483-.749 3.78v277.55h65l-.05-277.55z"/><path d="M1246.88 839v-65H927.879v65h319.001z"/></g><path d="M1221.39 839v-65h-9.18v65h9.18z" class="D K"/><path d="M927.941 848.09V731.77a.53.53 0 0 1 .5-.354.53.53 0 0 1 .5.354v116.32a.53.53 0 0 1-.193.257c-.09.063-.197.097-.307.097s-.216-.034-.306-.097-.157-.153-.194-.257h0z" class="M"/><path d="M1241.14 513.379a3.35 3.35 0 0 1 1.5 1.763c.28.746.29 1.567.02 2.317l-.07.19c-4.51 12.143-13.33 22.201-24.78 28.25l-.51.27c-.93.47-1.88.93-2.84 1.35-6.79 2.976-14.13 4.482-21.54 4.418s-14.72-1.696-21.46-4.788c-1.46-.666-2.87-1.396-4.24-2.19a52.34 52.34 0 0 1-9.47-7c-5.25-4.85-11.08-16.27-13.41-21.1-.12-.243-.18-.51-.17-.78a1.73 1.73 0 0 1 .19-.774c.13-.24.31-.447.52-.606.22-.159.47-.265.74-.31 2.18-.35 5.37-1.15 7.43-2.94a17.57 17.57 0 0 0 6-9.24c.13-.533.23-1.074.29-1.62v-.05a19.53 19.53 0 0 0 0-2.65h0v-.59-.05c-.08-.943-.24-1.876-.49-2.79 0-.18-.08-.29-.09-.34-.26-.62-.49-1.26-.7-1.93a23.88 23.88 0 0 1-.91-4.43c-.77-7.8 3.21-11.09 5.38-12.3.37-.223.68-.54.89-.919a2.56 2.56 0 0 0 .32-1.241c-.26-24.43 32.56-32.74 51.09-19.58 11.17 8 14.38 17.5 14.21 26.77-.01.177-.01.354 0 .53a62.88 62.88 0 0 0 .13 7l.13-.07c.24 2.788.66 5.557 1.26 8.29h0c1.11 5 3 10 6.21 13.38l.09.1c1.2 1.464 2.65 2.703 4.28 3.66z" class="G"/><path d="M968 867.64l19.25 56.18a7.62 7.62 0 0 1-.029 4.724c-.511 1.531-1.495 2.861-2.811 3.796-3.88 2.84-8.79 3.23-14.47 5.16l-40.16 13.44c-3.88 1.29.64 8.78.64 8.78a3.87 3.87 0 0 0 1.367 1.141 3.86 3.86 0 0 0 1.733.409c1.26-.027 2.462-.535 3.36-1.42.13-.13.13-.13.26-.13h.77c.13 0 .26.13.39.26.352.408.788.734 1.278.957a3.72 3.72 0 0 0 1.562.333 5.12 5.12 0 0 0 3.26-1.27.87.87 0 0 1 .313-.184c.116-.038.239-.052.361-.039a.87.87 0 0 1 .616.353c.292.327.651.585 1.054.758a2.99 2.99 0 0 0 1.276.242c.97-.046 1.909-.361 2.71-.91a1 1 0 0 1 1.29.13c.335.306.735.532 1.17.66a3 3 0 0 0 1.342.083c.447-.074.872-.249 1.243-.511a3 3 0 0 0 .895-1.002h.39l56.18-.9h-2.72c1.6-.02 3.18-.36 4.65-1 2.87-1.201 5.19-3.428 6.5-6.246 1.32-2.818 1.53-6.024.61-8.994l-4.14-13.17-9.81-63.27-40.33 1.64z" class="O"/><path d="M1021.89 942.671l-4.13-13.17-9.82-63.29-39.392 1.55 14 3.36c4.073.999 7.818 3.034 10.872 5.908a24.31 24.31 0 0 1 6.558 10.492l11.632 37.84 4.13 13.18c.96 2.955.77 6.164-.52 8.987a12.38 12.38 0 0 1-6.48 6.253 15.29 15.29 0 0 1-4.65 1h2.71l-56.182.9h-.39c-.248.468-.62.86-1.074 1.133s-.975.417-1.506.417a3 3 0 0 1-2.07-.9 1 1 0 0 0-1.16-.13 5.2 5.2 0 0 1-2.71.91 3 3 0 0 1-2.33-1c-.072-.099-.164-.182-.27-.242s-.224-.099-.346-.111-.244.001-.36.039-.223.101-.314.184a5.07 5.07 0 0 1-3.23 1.29 3.68 3.68 0 0 1-1.571-.317c-.494-.219-.934-.545-1.289-.953-.13-.13-.26-.26-.39-.26h-.77a.45.45 0 0 0-.26.13c-.512.407-1.077.743-1.68 1 .397 1.035.872 2.037 1.42 3a3.88 3.88 0 0 0 1.367 1.141c.538.269 1.132.409 1.733.409a4.92 4.92 0 0 0 3.36-1.42c.13-.13.13-.13.26-.13h.77c.13 0 .26.13.39.26a3.73 3.73 0 0 0 1.263.938 3.72 3.72 0 0 0 1.537.332c1.195-.04 2.337-.496 3.23-1.29.09-.083.196-.146.312-.186a.88.88 0 0 1 .36-.042.86.86 0 0 1 .618.348 3 3 0 0 0 2.33 1 5.23 5.23 0 0 0 2.71-.91.83.83 0 0 1 .607-.173c.217.024.416.133.553.303a3 3 0 0 0 2.07.91 3 3 0 0 0 1.499-.428c.453-.272.826-.659 1.081-1.122h.39l56.182-.91h-2.71a12.01 12.01 0 0 0 4.64-1 12.43 12.43 0 0 0 6.47-6.251 12.44 12.44 0 0 0 .55-8.979h0z" class="D E"/><path d="M921.542 958.431c.095-2.712 1.005-5.333 2.61-7.522a13.52 13.52 0 0 1 6.39-4.748l37.07-11.37a2.41 2.41 0 0 1 1.009-.158 2.42 2.42 0 0 1 .984.27 2.43 2.43 0 0 1 .787.651c.213.27.367.583.45.917 1.42 4.65 4.9 14.85 11.88 22h36.928c.69 0 1.34.272 1.83.755.48.484.75 1.141.75 1.825a2.59 2.59 0 0 1-.75 1.824c-.49.484-1.14.756-1.83.756h-95.648a2.59 2.59 0 0 1-2.58-2.58v-2.58l.12-.04z" class="G"/><g class="D"><path d="M921.539 958.431c.066-2.145.654-4.242 1.711-6.11a13.24 13.24 0 0 1 4.359-4.61c-4.65 3.36.91 6.58 7.62 6.33l42.62-1.94a.49.49 0 0 1-.109-.18c-.022-.068-.03-.139-.021-.21 1.493 2.408 3.225 4.66 5.17 6.72h36.931a2.57 2.57 0 0 1 1.82.756c.49.483.76 1.14.76 1.824a2.56 2.56 0 0 1-.76 1.824 2.57 2.57 0 0 1-1.82.756h-95.701a2.59 2.59 0 0 1-2.58-2.58v-2.58z" class="I"/><path d="M921.539 957.65h60.57l.78.78h-61.35v-.78z" class="I"/><path d="M1003.94 946.549c1.27.065 2.52-.198 3.66-.764a7.29 7.29 0 0 0 2.8-2.466c.7-1.259 1.03-2.688.96-4.125a7.71 7.71 0 0 0-1.35-4.015c-.15-.223-.39-.375-.65-.424-.27-.049-.55.01-.77.164a1.03 1.03 0 0 0-.26 1.42c.62.827.99 1.816 1.06 2.847s-.17 2.06-.67 2.963c-1 1.68-3.1 2.46-5.82 2.2-.13-.023-.27-.017-.41.017a1.06 1.06 0 0 0-.37.179 1.2 1.2 0 0 0-.26.312c-.07.121-.11.255-.12.392-.02.138-.02.279.02.414.03.136.09.263.18.373a.95.95 0 0 0 .31.267c.13.066.26.106.4.116.35 0 .77.13 1.29.13z" class="R"/></g><path d="M1044.59 867.64l19.25 56.18c.49 1.539.48 3.194-.03 4.726s-1.5 2.861-2.82 3.794c-3.87 2.84-8.78 3.23-14.46 5.16l-40.17 13.44c-3.87 1.29.65 8.78.65 8.78a3.85 3.85 0 0 0 1.37 1.141 3.83 3.83 0 0 0 1.73.409 4.99 4.99 0 0 0 3.36-1.42c.13-.13.13-.13.26-.13h.77c.13 0 .26.13.39.26.35.408.79.735 1.28.958a3.69 3.69 0 0 0 1.56.332c1.2-.027 2.36-.476 3.27-1.27a.91.91 0 0 1 .31-.184.87.87 0 0 1 .36-.039.86.86 0 0 1 .35.111c.11.061.2.143.27.242a3.01 3.01 0 0 0 1.05.756 2.98 2.98 0 0 0 1.27.244 5.23 5.23 0 0 0 2.72-.91.99.99 0 0 1 .67-.172c.23.023.45.131.62.302a2.91 2.91 0 0 0 2.06.78 2.96 2.96 0 0 0 1.5-.426 3 3 0 0 0 1.09-1.124h.39l56.17-.9h-2.71c1.6-.02 3.18-.36 4.65-1 5.94-2.32 8.91-9 7.11-15.24l-4.14-13.17-9.85-63.27-40.3 1.64z" class="O"/><path d="M1098.45 942.671l-4.14-13.17-9.81-63.29-39.39 1.55 14 3.36c4.07.999 7.82 3.034 10.87 5.908s5.31 6.488 6.56 10.492l11.63 37.84 4.13 13.18c.96 2.955.77 6.164-.52 8.987a12.38 12.38 0 0 1-6.48 6.253 15.26 15.26 0 0 1-4.64 1h2.71l-56.18.9h-.39a2.9 2.9 0 0 1-1.08 1.131c-.45.273-.97.418-1.5.419a2.99 2.99 0 0 1-2.07-.9 1.01 1.01 0 0 0-.56-.252.99.99 0 0 0-.6.122 5.23 5.23 0 0 1-2.71.91 3.01 3.01 0 0 1-1.28-.242 2.99 2.99 0 0 1-1.05-.758c-.07-.099-.17-.182-.27-.242-.11-.061-.23-.099-.35-.111a.87.87 0 0 0-.36.039.91.91 0 0 0-.31.184c-.89.796-2.04 1.253-3.23 1.29-.54.005-1.07-.107-1.56-.33a3.62 3.62 0 0 1-1.28-.96c-.13-.13-.26-.26-.39-.26h-.77c-.1.013-.19.059-.26.13-.51.407-1.08.743-1.68 1 .39 1.035.87 2.037 1.42 3a3.86 3.86 0 0 0 1.37 1.141c.53.269 1.13.409 1.73.409 1.26-.033 2.46-.541 3.36-1.42.13-.13.13-.13.26-.13h.77c.13 0 .26.13.39.26.35.408.79.734 1.28.957a3.71 3.71 0 0 0 1.56.333 5.12 5.12 0 0 0 3.23-1.29c.09-.083.19-.146.31-.186a.89.89 0 0 1 .36-.042.91.91 0 0 1 .62.348 2.99 2.99 0 0 0 1.05.758 3.01 3.01 0 0 0 1.28.242 5.23 5.23 0 0 0 2.71-.91.83.83 0 0 1 .61-.173c.21.024.41.133.55.303.54.562 1.29.888 2.07.91a3.02 3.02 0 0 0 1.5-.428 3.05 3.05 0 0 0 1.08-1.122h.39l56.18-.91h-2.72c1.6-.02 3.18-.36 4.65-1a12.48 12.48 0 0 0 6.42-6.271 12.49 12.49 0 0 0 .53-8.959h0z" class="D E"/><path d="M998.1 958.431a13.48 13.48 0 0 1 2.61-7.524 13.46 13.46 0 0 1 6.39-4.746l37.07-11.37a2.4 2.4 0 0 1 1.01-.158c.34.019.68.111.98.27s.57.381.78.652c.22.27.37.582.45.916 1.42 4.65 4.91 14.85 11.89 22h36.93c.68 0 1.34.272 1.82.755a2.56 2.56 0 0 1 0 3.649 2.57 2.57 0 0 1-1.82.756h-95.7a2.59 2.59 0 0 1-1.794-.801c-.469-.492-.726-1.149-.716-1.829v-2.58l.1.01z" class="G"/><g class="D"><path d="M998.102 958.431c.066-2.145.653-4.242 1.711-6.11a13.27 13.27 0 0 1 4.357-4.61c-4.648 3.36.9 6.58 7.62 6.33l42.62-1.94c-.05-.051-.08-.113-.11-.18-.02-.068-.03-.139-.02-.21 1.49 2.406 3.22 4.657 5.16 6.72h36.94c.69 0 1.34.272 1.83.756a2.59 2.59 0 0 1 0 3.648c-.49.484-1.14.756-1.83.756h-95.7a2.59 2.59 0 0 1-2.578-2.59v-2.57z" class="I"/><path d="M998.102 957.65h60.568l.77.78h-61.338v-.78z" class="I"/><path d="M1080.5 946.549c1.26.066 2.52-.196 3.65-.763s2.1-1.416 2.8-2.467a7.71 7.71 0 0 0-.38-8.14 1.01 1.01 0 0 0-.66-.424c-.26-.049-.54.01-.76.164a1.03 1.03 0 0 0-.26 1.42c.62.827.99 1.817 1.05 2.849a5.28 5.28 0 0 1-.67 2.961c-1 1.68-3.09 2.46-5.81 2.2-.14-.023-.27-.017-.41.017a1.06 1.06 0 0 0-.37.179c-.11.085-.2.191-.26.312-.07.121-.11.255-.12.392a1.14 1.14 0 0 0 .01.412c.04.135.1.261.18.371a.99.99 0 0 0 .32.268.96.96 0 0 0 .39.119c.39 0 .8.13 1.3.13z" class="R"/></g><path d="M1176.52 709.169v33.83c0 8.241-3.27 16.144-9.1 21.97s-13.73 9.101-21.97 9.101H994.249c13.921 30.22 16.481 76.069 24.171 127.169 0 .24.07.5.11.74h-43.061l-48.8-151.44c-1.581-4.872-1.982-10.05-1.17-15.107a32.32 32.32 0 0 1 17.412-23.765c4.578-2.299 9.636-3.477 14.758-3.438l218.851.94z" class="B"/><path d="M1133.88 731.341v-23.12h-114.44a24.57 24.57 0 0 0-12.68 3.521c-3.83 2.304-6.96 5.609-9.051 9.559h0c-1.609 3.023-4.011 5.551-6.948 7.313s-6.298 2.69-9.722 2.687h-13.71c-1.829-.002-3.633.427-5.266 1.25s-3.05 2.019-4.137 3.49-1.813 3.176-2.12 4.979-.186 3.653.353 5.401l47.711 155.58h13.25l1.3-.74c-7.69-51.1-10.25-97-24.171-127.17h151.201c4.08 0 8.12-.805 11.89-2.367s7.2-3.853 10.09-6.741c2.88-2.887 5.17-6.314 6.73-10.086s2.36-7.814 2.36-11.896v-11.66h-42.64z" class="D K"/><path d="M1252.29 709.171v33.83a31.08 31.08 0 0 1-9.09 21.966 31.09 31.09 0 0 1-21.97 9.104H1070c14 30.36 16.5 76.52 24.28 127.91h-43.07l-48.8-151.44c-1.57-4.872-1.96-10.046-1.14-15.099a32.35 32.35 0 0 1 5.84-13.969 32.43 32.43 0 0 1 11.56-9.783c4.57-2.302 9.62-3.488 14.74-3.459l218.88.94z" class="B"/><path d="M1252.29 731.34V743a31.05 31.05 0 0 1-31.06 31.07H1070c14 30.36 16.5 76.52 24.28 127.91h-13.77l-45.61-150.42c-.71-2.342-.87-4.819-.45-7.231s1.4-4.693 2.86-6.659c1.45-1.967 3.35-3.563 5.54-4.663s4.6-1.67 7.05-1.667h202.39z" class="D K"/><path d="M1287 597.001l-12.65 81.24c-.17 1.3-10 17.58-22.69 30.23h-157.33l37.42-127.92a30.48 30.48 0 0 1 10.13-16c3.56-2.935 7.73-5.033 12.21-6.14l20.18-4.85 58.72 1.91 31 7.36c7.43 1.759 13.92 6.252 18.19 12.585 4.26 6.332 5.98 14.039 4.82 21.585h0z" class="G"/><g class="D"><path d="M1142.14 695.33l.17-.17.09.08-.26.09z" class="K"/><path opacity=".5" d="M1142.31 586.551l-22 69.46-.09 15.93 7.31 37.68 17.81-66.69a6.49 6.49 0 0 0-.87-4.59l-4.07-6.75c-4.59-8.15-5.54-16.37-3-24.69l6.33-20.09c.27-.87-1.16-1.13-1.42-.26z"/></g><g class="O"><path d="M1181.29 505.23l-1.47 44.42a3.68 3.68 0 0 1-.84 2.152A3.63 3.63 0 0 1 1177 553l-2.85.7-1.15 18.35a11.77 11.77 0 0 0 .59 4.562c.5 1.466 1.28 2.82 2.31 3.982a11.7 11.7 0 0 0 3.65 2.793c1.39.681 2.9 1.079 4.45 1.173l14.93.86a19.84 19.84 0 0 0 9.33-1.742 19.83 19.83 0 0 0 7.45-5.878l17.22-22.17-12.65-2.77a3.62 3.62 0 0 1-2.77-3.29l-2.25-40.36-33.97-3.98z"/><path d="M1167 516.569l-1-30.4c-.05-1.331.16-2.66.63-3.908.46-1.249 1.17-2.394 2.08-3.368a10.13 10.13 0 0 1 3.21-2.308 10.15 10.15 0 0 1 3.86-.896l30.58-1c1.02-.031 2.04.14 2.99.503.96.362 1.83.909 2.57 1.609.75.7 1.34 1.54 1.76 2.472a7.74 7.74 0 0 1 .68 2.956l1.13 32.74a23.33 23.33 0 0 1-6.26 16.712 23.32 23.32 0 0 1-16.23 7.408l-1.82.09c-3.07.11-6.14-.389-9.02-1.467s-5.52-2.715-7.77-4.815a23.47 23.47 0 0 1-5.32-7.427 23.4 23.4 0 0 1-2.07-8.901z"/></g><path d="M1194.37 506.35a2.58 2.58 0 0 0-.42-1.402c-.28-.416-.67-.741-1.13-.933s-.97-.244-1.46-.147-.94.335-1.29.687-.59.801-.69 1.29-.05.996.14 1.457.51.856.93 1.133c.41.277.9.425 1.4.425.33.002.66-.062.96-.188.31-.125.59-.31.82-.543s.42-.511.55-.816a2.64 2.64 0 0 0 .19-.963h0z" class="G"/><path d="M1191.42 507.479c.02-.077.02-.159.01-.238-.02-.079-.05-.153-.1-.218-.04-.064-.11-.116-.18-.152s-.15-.055-.23-.055-.16.019-.23.055c-.08.036-.14.088-.19.152s-.08.139-.09.218a.48.48 0 0 0 .01.238.47.47 0 0 0 .19.273c.09.068.2.104.31.104s.22-.036.31-.104a.52.52 0 0 0 .19-.273h0z" class="C"/><path d="M1174.88 508.17a2.55 2.55 0 0 0-.42-1.394c-.28-.413-.67-.735-1.13-.925s-.96-.239-1.45-.143a2.55 2.55 0 0 0-1.29.687 2.46 2.46 0 0 0-.68 1.285c-.1.487-.05.992.14 1.451a2.52 2.52 0 0 0 .92 1.126c.42.276.9.423 1.4.423a2.49 2.49 0 0 0 1.77-.735c.48-.471.74-1.109.74-1.775h0z" class="G"/><path d="M1171.76 509.209a.5.5 0 0 0-.09-.288.55.55 0 0 0-.23-.192c-.1-.039-.2-.05-.3-.03a.53.53 0 0 0-.41.409c-.02.101-.01.205.03.3s.1.177.19.234.19.087.29.087c.14 0 .27-.054.37-.152a.55.55 0 0 0 .15-.368h0z" class="C"/><path d="M1229.15 488l-1 .51a90.71 90.71 0 0 1-2.55 10l-2.47 8.18c-.33 1.31-2.23-1.46-4-3.89l-1-1.27a6.36 6.36 0 0 0-1.81-1.77c-.11 0-.43.36-.84 1l-.08.13-.33.49-1.44 2.32a1.45 1.45 0 0 1-.54.526 1.44 1.44 0 0 1-.74.175c-.26-.009-.51-.088-.72-.227-.22-.139-.4-.334-.51-.564-1.56-4.011-2.44-8.257-2.59-12.56l-.18-3.89c-6.47-.4-10.27-5-11.74-7.21-.27-.382-.52-.783-.73-1.2l-.09.11c-7.64 9.85-21.66 9.93-27.44 9.5-.46-.041-.91.057-1.31.282s-.72.566-.92.978a2.08 2.08 0 0 0-.2 1.07l.28 7.85v1.38l.19 5.41a29.04 29.04 0 0 1-3.18-3.38 26.31 26.31 0 0 1-.83-1.06l-.67-.93-2.66 2.22-.08.07c.13-.533.23-1.074.29-1.62v-.05a19.53 19.53 0 0 0 0-2.65h0v-.59-.05c0-.968-.15-1.93-.46-2.85 0-.1-.08-.18-.12-.28-.26-.62-.49-1.26-.7-1.93a23.88 23.88 0 0 1-.91-4.43c-.77-7.8 3.21-11.09 5.38-12.3.37-.223.68-.54.89-.919a2.56 2.56 0 0 0 .32-1.241c-.26-24.43 32.56-32.74 51.09-19.58 11.17 8 14.38 17.5 14.21 26.77-.01.177-.01.354 0 .53h0a61.82 61.82 0 0 0 .19 6.94h0z" class="G"/><path d="M1212.64 516.401l1.56-12.13c2-11.08 15.67-8.92 13.25 2.08s-13.6 10-13.6 10l-1.21.05z" class="O"/><path d="M1224.24 501.589c-.05.078-.12.144-.2.195a.72.72 0 0 1-.26.1.71.71 0 0 1-.28-.008.7.7 0 0 1-.26-.117 2.72 2.72 0 0 0-1.05-.602c-.39-.119-.81-.149-1.21-.088a2.71 2.71 0 0 0-1.03.545c-.3.253-.54.569-.7.925a8.49 8.49 0 0 0-1 3.55l-.08 1.3c0 .95-1.56.69-1.48-.17l.09-1.22a8.85 8.85 0 0 1 1.3-4.33c.26-.537.63-1.009 1.1-1.383.46-.373 1-.639 1.58-.777.6-.077 1.21-.032 1.79.131s1.12.442 1.59.819c.13.156.21.348.23.55.01.201-.03.404-.13.58h0z" class="D F"/><path d="M1192.72 495.699c-1.89.004-3.74.531-5.34 1.523-1.61.992-2.9 2.411-3.75 4.097-2.07-.598-4.28-.442-6.24.44-.94-1.191-2.14-2.153-3.5-2.813a10.01 10.01 0 0 0-4.38-.997c-1.06.001-2.12.17-3.13.5l-.23.07c-1.42.489-2.71 1.292-3.77 2.35a9.89 9.89 0 0 0-2.23 3.3 9.91 9.91 0 0 0-.77 3.91 10.13 10.13 0 0 0 2.97 7.163c1.9 1.9 4.47 2.967 7.16 2.967s5.26-1.067 7.16-2.967a10.13 10.13 0 0 0 2.97-7.163c.01-1.862-.5-3.691-1.47-5.28a8 8 0 0 1 5-.34 8.61 8.61 0 0 0-.6 2.92v.45c.01 2.516.96 4.938 2.65 6.795a10.14 10.14 0 0 0 6.53 3.256c2.5.239 5.01-.463 7.02-1.967 2.02-1.505 3.4-3.705 3.89-6.174.12-.629.18-1.269.18-1.91a10.12 10.12 0 0 0-2.97-7.156 10.13 10.13 0 0 0-7.15-2.974h0zm-14.38 12.38a8.86 8.86 0 0 1-2.6 6.239c-1.65 1.656-3.89 2.591-6.23 2.601a9.04 9.04 0 0 1-2.51-.36 8.89 8.89 0 0 1-4.41-3.033c-1.12-1.441-1.76-3.192-1.85-5.015a8.83 8.83 0 0 1 1.37-5.171c.97-1.541 2.4-2.743 4.09-3.441l.22-.09c.99-.366 2.03-.556 3.09-.56a8.84 8.84 0 0 1 6.23 2.595 8.85 8.85 0 0 1 2.6 6.235zm14.38 6.59a8.89 8.89 0 0 1-8.83-8.84c-.01-.096-.01-.193 0-.29.1-2.294 1.1-4.458 2.77-6.03 1.68-1.573 3.9-2.432 6.19-2.394a8.82 8.82 0 0 1 6.11 2.596c1.63 1.627 2.55 3.821 2.58 6.118a8.57 8.57 0 0 1-.18 1.75 8.89 8.89 0 0 1-3.06 5.079 8.88 8.88 0 0 1-5.58 2.011h0z" class="C"/><path d="M1219.13 512.5a2.23 2.23 0 0 0-.38-1.25c-.25-.37-.6-.658-1.01-.829s-.86-.215-1.3-.128a2.21 2.21 0 0 0-1.15.616c-.32.315-.53.716-.62 1.152a2.31 2.31 0 0 0 .13 1.3 2.25 2.25 0 0 0 .83 1.01 2.24 2.24 0 0 0 2.84-.28 2.26 2.26 0 0 0 .66-1.591z" class="B"/><path d="M1215.58 514.32a2.34 2.34 0 0 0 1.3.43 2.23 2.23 0 0 0 .86-.166 2.21 2.21 0 0 0 .74-.487 2.34 2.34 0 0 0 .48-.733c.11-.274.17-.568.17-.864 0-.364-.09-.722-.27-1.04-.17-.319-.42-.587-.73-.78.2.406.32.848.35 1.3 0 .319-.06.635-.19.93a2.48 2.48 0 0 1-.52.788 2.53 2.53 0 0 1-.79.527 2.45 2.45 0 0 1-.93.185 1.11 1.11 0 0 1-.47-.09z" class="D E"/><path d="M1227.62 702.431l-40.18 3.9c-4.51.6-8.84 1.3-13.08-.18l-5.2-1.81c-.64-.226-1.31-.312-1.98-.254a4.68 4.68 0 0 0-1.91.594l-12.13 7a2.09 2.09 0 0 1-1 .257 2.06 2.06 0 0 1-1-.257c-.29-.147-.55-.363-.74-.63s-.31-.576-.35-.901a1.97 1.97 0 0 1 .11-.962c.11-.307.3-.581.55-.797l8.66-8.23-12.74 12.12c-.27.286-.62.493-1 .601s-.78.11-1.16.009-.72-.296-1-.564a2.35 2.35 0 0 1-.61-.97c-.12-.369-.15-.762-.08-1.144s.24-.74.48-1.042l8.84-11.17-11.6 14.64c-.28.382-.68.669-1.13.824s-.93.171-1.39.046c-1.64-.35-1.38-2-.43-3.47l8.4-12.64-15.07 12.47c-1 1-1.82 1.47-2.86.52s-.69-2.17.18-3.21l12.47-12.38c1.9-2.17 3.2-2.95 5.89-3.12l25.55-.87 47.11-11 8.4 22.62z" class="O"/><g class="D"><path d="M1165.27 704.6c.58-.334 1.24-.538 1.91-.598a4.7 4.7 0 0 1 1.98.248l5.2 1.82c4.24 1.38 8.66.78 13.08.17l26-2.51-7.1-21.22-.26 16.63-26.94 4.16c-4.5.6-8.83 1.3-13.08-.18l-.79 1.48zm-14.73 4.151c-.04-.039-.07-.086-.09-.138a.46.46 0 0 1-.04-.162c0-.056.02-.111.04-.163a.39.39 0 0 1 .09-.137l8-7.54c.04-.04.09-.072.14-.094a.43.43 0 0 1 .17-.033c.05 0 .11.012.16.033a.45.45 0 0 1 .14.094.39.39 0 0 1 .09.14c.03.052.04.108.04.165s-.01.112-.04.165a.4.4 0 0 1-.09.14l-8 7.53c-.09 0-.18.09-.26.09s-.26-.09-.35-.09zm-7.54.778c-.05-.032-.09-.074-.12-.122s-.05-.102-.06-.158c0-.056 0-.114.01-.169a.45.45 0 0 1 .08-.151l8.31-10.48c.18-.18.44-.26.61-.09.09.07.15.173.17.287.01.114-.01.23-.08.323l-8.32 10.48c-.08.08-.17.17-.26.17s-.25-.09-.34-.09z" class="E"/><path d="M1166.56 703.12l2.69 1.13c-.64-.224-1.32-.309-1.99-.248a4.73 4.73 0 0 0-1.91.598l-12.12 7c-.31.176-.65.268-1 .268s-.7-.092-1-.268c-.35-.212-.63-.521-.81-.891s-.24-.782-.19-1.189c.08.09 1 1.73 3.2.09 1.56-1.13 6.24-4.25 8.92-6.06.62-.381 1.33-.618 2.06-.693.72-.074 1.46.016 2.15.263h0z" class="E"/></g><path d="M1213.51 703.731l42.61-3.81c11.34-1.47 16.45-11.17 18.27-22.61l-35.86-2.59-32.21 7.79 7.19 21.22z" class="G"/><g class="D"><path d="M1211.43 697.839l2 6 42.57-3.84c11-1.39 16.11-10.57 18.1-21.48v-.09l12.65-81.24a30.37 30.37 0 0 0-4.84-21.551c-4.26-6.321-10.74-10.808-18.16-12.569l-3.46-.87c6.44 2.64 11.82 7.353 15.29 13.392s4.82 13.063 3.85 19.958l-12.64 81.23c-2.78 8.32-7.19 16.29-16.55 17.5l-38.81 3.56z" class="E"/><path opacity=".5" d="M1193.24 685.2c-.01.089.01.178.04.26.04.082.09.155.15.214.07.058.15.1.24.122.08.022.17.023.26.004l44.69-11 11.87-79.5a.7.7 0 0 0-.17-.457c-.1-.129-.25-.216-.42-.247-.16-.031-.33-.003-.48.078-.14.081-.26.211-.32.366l-22.17 81-33.17 8.48c-.08-.004-.17.013-.24.048a.51.51 0 0 0-.2.156c-.05.067-.08.145-.1.228-.01.083-.01.168.02.248h0z"/><path d="M1216.1 523.85l-3.72-7.45h3.12l.6 7.45z" class="E"/><path opacity=".35" d="M1180 544.63a23.96 23.96 0 0 0 5 .17c4.25-.28 8.28-1.989 11.43-4.85 3.59-.612 7-2.002 10-4.07a.63.63 0 0 0 .18-.165c.05-.067.09-.144.1-.225a.51.51 0 0 0 0-.246c-.02-.081-.05-.158-.1-.224a.55.55 0 0 0-.17-.183.57.57 0 0 0-.23-.1c-.08-.017-.16-.017-.24.001a.57.57 0 0 0-.23.102 25.14 25.14 0 0 1-7.62 3.47c-.17.09-.43.09-.61.17-.51.159-1.03.276-1.56.35h-.26c-.34.09-.69.09-1 .17a26.6 26.6 0 0 1-2.68.18c-4.02.236-8.04-.541-11.69-2.26l-.32 7.71z"/></g><g class="B"><path d="M1154 653.42l-.5-.5c.31-.298.55-.655.72-1.051a3.16 3.16 0 0 0 .26-1.249 3.16 3.16 0 0 0-.26-1.249 3.22 3.22 0 0 0-.72-1.051l.5-.5a3.27 3.27 0 0 0 1.05.722 3.23 3.23 0 0 0 2.5 0 3.27 3.27 0 0 0 1.05-.722l.5.5a3.22 3.22 0 0 0-.72 1.051 3.16 3.16 0 0 0-.26 1.249 3.16 3.16 0 0 0 .26 1.249c.17.396.41.753.72 1.051l-.5.5a3.28 3.28 0 0 0-1.05-.721 3.23 3.23 0 0 0-2.5 0 3.28 3.28 0 0 0-1.05.721z"/><use xlink:href="#B"/><path d="M1142.14 569.491l-.5.5a3.25 3.25 0 0 0-1.05-.721 3.21 3.21 0 0 0-1.25-.254c-.43 0-.86.086-1.25.254-.4.167-.75.412-1.05.721l-.14-.14a30.21 30.21 0 0 1 5-5.22l.26.26c-.31.297-.56.653-.73 1.048s-.25.818-.26 1.248c0 .429.09.854.25 1.25a3.23 3.23 0 0 0 .72 1.054h0zm93.11-1.68l-.5-.5a3.21 3.21 0 0 0 .72-1.051 3.16 3.16 0 0 0 .26-1.249 3.16 3.16 0 0 0-.26-1.249 3.21 3.21 0 0 0-.72-1.051l.5-.5c.3.308.66.554 1.05.721a3.21 3.21 0 0 0 2.5 0c.39-.167.75-.413 1.05-.721l.5.5a3.21 3.21 0 0 0-.72 1.051 3.16 3.16 0 0 0-.26 1.249 3.16 3.16 0 0 0 .26 1.249 3.21 3.21 0 0 0 .72 1.051l-.5.5a3.25 3.25 0 0 0-1.05-.721 3.21 3.21 0 0 0-2.5 0 3.25 3.25 0 0 0-1.05.721h0zm32.08 21.01l-.5-.5a3.22 3.22 0 0 0 .72-1.051c.17-.395.25-.82.25-1.249s-.08-.854-.25-1.249a3.21 3.21 0 0 0-.72-1.051l.5-.5c.3.308.65.553 1.05.721.39.168.82.254 1.25.254a3.21 3.21 0 0 0 1.25-.254 3.28 3.28 0 0 0 1.05-.721l.5.5c-.31.298-.56.656-.72 1.051a3.16 3.16 0 0 0-.26 1.249 3.16 3.16 0 0 0 .26 1.249c.16.395.41.752.72 1.051l-.5.5a3.27 3.27 0 0 0-1.05-.722 3.23 3.23 0 0 0-1.25-.253 3.19 3.19 0 0 0-1.25.253c-.4.168-.75.413-1.05.722h0z"/><use xlink:href="#C"/><path d="M1179.13 628.581l-.5-.5a3.22 3.22 0 0 0 .72-1.051c.17-.396.25-.82.25-1.249s-.08-.855-.25-1.25a3.22 3.22 0 0 0-.72-1.051l.5-.5c.3.309.65.554 1.05.722.39.167.82.254 1.25.254a3.23 3.23 0 0 0 1.25-.254 3.27 3.27 0 0 0 1.05-.722l.5.5a3.22 3.22 0 0 0-.72 1.051c-.17.395-.26.82-.26 1.25a3.16 3.16 0 0 0 .26 1.249 3.22 3.22 0 0 0 .72 1.051l-.5.5a3.27 3.27 0 0 0-1.05-.722 3.23 3.23 0 0 0-1.25-.254c-.43 0-.86.087-1.25.254-.4.168-.75.413-1.05.722h0zm-20.63 61.25l-.5-.5a3.22 3.22 0 0 0 .72-1.051c.17-.396.26-.82.26-1.249s-.09-.855-.26-1.25a3.22 3.22 0 0 0-.72-1.051l.5-.5a3.27 3.27 0 0 0 1.05.722 3.23 3.23 0 0 0 2.5 0 3.27 3.27 0 0 0 1.05-.722l.5.5a3.22 3.22 0 0 0-.72 1.051c-.17.395-.26.82-.26 1.25a3.16 3.16 0 0 0 .26 1.249 3.22 3.22 0 0 0 .72 1.051l-.5.5a3.27 3.27 0 0 0-1.05-.722 3.23 3.23 0 0 0-2.5 0 3.27 3.27 0 0 0-1.05.722h0z"/><use xlink:href="#C" x="-27.91" y="-76"/><path d="M1198.9 665l-.5-.5c.31-.298.55-.655.72-1.051a3.15 3.15 0 0 0 .25-1.249c0-.429-.08-.854-.25-1.249a3.22 3.22 0 0 0-.72-1.051l.5-.5c.3.309.65.554 1.05.722a3.19 3.19 0 0 0 1.25.253 3.23 3.23 0 0 0 1.25-.253 3.27 3.27 0 0 0 1.05-.722l.5.5c-.31.299-.56.656-.72 1.051a3.16 3.16 0 0 0-.26 1.249 3.16 3.16 0 0 0 .26 1.249c.16.396.41.753.72 1.051l-.5.5a3.28 3.28 0 0 0-1.05-.721 3.23 3.23 0 0 0-1.25-.254c-.43 0-.86.087-1.25.254-.4.168-.75.413-1.05.721zm31.71-13.439l-.5-.5a3.21 3.21 0 0 0 .72-1.051c.17-.395.25-.82.25-1.249s-.08-.854-.25-1.249a3.21 3.21 0 0 0-.72-1.051l.5-.5c.3.308.66.554 1.05.721a3.21 3.21 0 0 0 2.5 0c.39-.167.75-.413 1.05-.721l.5.5a3.21 3.21 0 0 0-.72 1.051 3.16 3.16 0 0 0-.26 1.249 3.16 3.16 0 0 0 .26 1.249 3.21 3.21 0 0 0 .72 1.051l-.5.5a3.25 3.25 0 0 0-1.05-.721 3.21 3.21 0 0 0-2.5 0 3.25 3.25 0 0 0-1.05.721zm30.11-24.631l-.5-.5a3.21 3.21 0 0 0 .72-1.051c.17-.395.25-.82.25-1.249s-.08-.854-.25-1.249a3.21 3.21 0 0 0-.72-1.051l.5-.5c.3.309.65.554 1.05.721.39.168.82.254 1.25.254a3.21 3.21 0 0 0 1.25-.254 3.25 3.25 0 0 0 1.05-.721l.5.5a3.21 3.21 0 0 0-.72 1.051 3.16 3.16 0 0 0-.26 1.249 3.16 3.16 0 0 0 .26 1.249 3.21 3.21 0 0 0 .72 1.051l-.5.5c-.3-.308-.66-.554-1.05-.721a3.21 3.21 0 0 0-1.25-.254c-.43 0-.86.086-1.25.254a3.16 3.16 0 0 0-1.05.721h0z"/><use xlink:href="#B" x="-37" y="28"/><path d="M1114.07 684.231l-.5-.5a3.22 3.22 0 0 0 .72-1.051 3.16 3.16 0 0 0 .26-1.249 3.16 3.16 0 0 0-.26-1.249 3.21 3.21 0 0 0-.72-1.051l.5-.5c.3.308.66.554 1.05.721a3.21 3.21 0 0 0 2.5 0c.39-.167.75-.413 1.05-.721l.5.5a3.21 3.21 0 0 0-.72 1.051c-.17.395-.25.82-.25 1.249s.08.854.25 1.249a3.22 3.22 0 0 0 .72 1.051l-.5.5a3.25 3.25 0 0 0-1.05-.721 3.21 3.21 0 0 0-2.5 0 3.25 3.25 0 0 0-1.05.721z"/></g><g fill="#3a3b3f"><path d="M1184.06 711.611v2.17c-.01.341-.15.666-.39.908s-.57.382-.91.392h-85.39c-.34-.008-.67-.147-.91-.39a1.35 1.35 0 0 1-.39-.91v-2.17a1.35 1.35 0 0 1 .39-.911c.24-.242.57-.382.91-.389h85.39a1.4 1.4 0 0 1 .89.409c.24.238.39.554.41.891h0z"/><path d="M1129 706.071l-18.79-98.82c-.16-.828-.6-1.575-1.25-2.111s-1.47-.83-2.31-.829h-22.45a3.54 3.54 0 0 0-1.53.326 3.5 3.5 0 0 0-1.25.952c-.34.406-.59.882-.72 1.394s-.15 1.048-.05 1.568l18.8 98.82c.15.828.59 1.575 1.24 2.112s1.47.83 2.31.828h22.43c.53.002 1.05-.112 1.53-.334s.91-.547 1.25-.951.58-.879.72-1.389a3.6 3.6 0 0 0 .07-1.566h0z"/></g><g fill="#595c63"><path d="M1126.38 711.611v2.17c-.01.341-.15.666-.39.908-.25.241-.57.382-.91.392H976.198c-.341-.01-.666-.151-.908-.392s-.382-.567-.392-.908v-2.17c.01-.342.151-.667.392-.909s.567-.381.908-.391h148.882c.34.01.66.15.91.391.24.242.38.567.39.909h0z"/><path d="M1125.77 706.071l-18.77-98.82c-.16-.826-.6-1.572-1.25-2.108-.64-.537-1.46-.831-2.3-.832H959.449a3.56 3.56 0 0 0-2.78 1.278 3.57 3.57 0 0 0-.718 1.394c-.134.512-.151 1.048-.052 1.568l18.79 98.82c.159.828.601 1.574 1.251 2.111a3.62 3.62 0 0 0 2.309.829h144.001c.52-.003 1.04-.122 1.52-.346.47-.225.89-.551 1.23-.955a3.62 3.62 0 0 0 .71-1.384c.13-.508.15-1.038.06-1.555z"/></g><path d="M1048 660.501c-3.87 0-4.88-4.42-3.06-6.76-3.09-3-7.26-4.08-9.82-2.27-2.85 2-2.62 6.8.52 10.68s8 5.39 10.83 3.38a5.28 5.28 0 0 0 1.7-2.257 5.2 5.2 0 0 0 .3-2.813c-.17.01-.3.04-.47.04z" fill="#7b7e84"/><path d="M1021.1 898.77h-48.991v6.839h48.991v-6.839z" class="G"/><path d="M1021.1 905.599h-16.11l-2.07-6.829h18.18v6.829z" class="D E"/><path d="M1097.66 898.77h-48.99v6.839h48.99v-6.839z" class="G"/><path d="M1097.65 905.599h-16.11l-2.06-6.829h18.17v6.829z" class="D E"/><path d="M1158.73 494.09l-.7-1.93a13.28 13.28 0 0 1 .7 1.93zm.53 6.47a19.53 19.53 0 0 0 0-2.65h0v-.59l.06 1.32a15.38 15.38 0 0 1-.06 1.92zm71.28-4.34a38.19 38.19 0 0 1-1.39-8.22l.13-.07a64.48 64.48 0 0 0 1.26 8.29h0zm-71.28 4.389c-.04.521-.11 1.039-.21 1.55a13.49 13.49 0 0 1-2 5.299c-1.03 1.605-2.4 2.972-4 4.011 3.03-2.277 5.15-5.549 6-9.24.11-.535.18-1.076.21-1.62z" class="G"/><g class="D"><path d="M1184.06 528.35a.87.87 0 0 1 .86-.87h3.82c.23 0 .45.092.61.255.17.163.26.385.26.615a.85.85 0 0 1-.26.616c-.16.163-.38.254-.61.254h-3.9c-.21-.044-.39-.153-.53-.309s-.23-.352-.25-.561z" class="E"/><path opacity=".255" d="M1181.72 525.14c-.21-.057-.38-.193-.49-.379-.1-.186-.13-.405-.07-.611s.19-.38.38-.485c.18-.105.4-.132.61-.075 8.14 1.81 11.09-2.26 12-4.16.1-.163.26-.282.45-.335a.76.76 0 0 1 .55.053c.18.086.31.233.38.412s.08.379.01.56c-1 2-3.81 6-10.83 5.46-1.01-.028-2.02-.176-2.99-.44h0z"/><path d="M1178.52 515.619a3.08 3.08 0 0 1 .9-2.104c.56-.559 1.31-.88 2.1-.896.1 0 .2.02.3.06a.78.78 0 0 1 .25.169.83.83 0 0 1 .17.253c.04.094.06.196.06.298a.77.77 0 0 1-.06.299c-.04.094-.1.18-.17.253s-.16.13-.25.169a.82.82 0 0 1-.3.059c-.21-.017-.43.01-.63.081a1.52 1.52 0 0 0-.55.328 1.45 1.45 0 0 0-.37.52c-.09.198-.13.411-.13.626a1.5 1.5 0 0 0 .13.626 1.45 1.45 0 0 0 .37.52c.16.147.34.258.55.329a1.55 1.55 0 0 0 .63.08h3.48c.21 0 .41.082.55.229.15.146.23.344.23.551a.77.77 0 0 1-.23.552.76.76 0 0 1-.55.228h-3.46a3.06 3.06 0 0 1-1.2-.257 3 3 0 0 1-1-.71c-.28-.302-.5-.658-.64-1.047s-.2-.803-.18-1.216h0z" class="E"/></g><path d="M1402.4 688.819a9.89 9.89 0 0 0-2.89-6.986 9.9 9.9 0 0 0-6.99-2.894h-126.1c-1.3 0-2.58.256-3.78.753a9.75 9.75 0 0 0-3.2 2.142c-.92.917-1.65 2.007-2.14 3.205a9.81 9.81 0 0 0-.75 3.78v267.77c0 2.618 1.04 5.129 2.89 6.98s4.36 2.89 6.98 2.89h136l-.02-277.64z" class="M"/><path d="M1286.34 688.819a9.81 9.81 0 0 0-.75-3.78c-.49-1.198-1.22-2.288-2.14-3.205a9.75 9.75 0 0 0-3.2-2.142c-1.2-.497-2.48-.753-3.78-.753h-45.21c-1.3 0-2.58.256-3.78.753a9.75 9.75 0 0 0-3.2 2.142c-.92.917-1.65 2.007-2.14 3.205a9.81 9.81 0 0 0-.75 3.78v277.64h64.95v-277.64zm26.75-10.919h64a.59.59 0 0 1 .26.194.55.55 0 0 1 .09.306.55.55 0 0 1-.09.307.59.59 0 0 1-.26.193h-64a.54.54 0 0 1-.26-.193.56.56 0 0 1-.1-.307.56.56 0 0 1 .1-.306.54.54 0 0 1 .26-.194h0z" class="S"/><path d="M978.199 710.311H1123.99" stroke="#3a3b3f" stroke-width=".75" class="Z a"/><path d="M1377.86 722.389c-8.46 6.38-7.58 11.43-7.48 11.56s12.44 2.23 20.9-4.16 12.81-14.86 9.73-18.95-14.7 5.16-23.15 11.55zm-29.25-12.839c5.88 4.43 6.86 13.09 6.76 13.18s-8.65 1.55-14.53-2.89-7.09-8.37-4.94-11.21 6.84-3.52 12.71.92zm32.78-16.944c2.42-12.555-.23-23.619-5.91-24.711s-12.24 8.2-14.65 20.755c-2.42 12.555.23 23.618 5.9 24.711 5.68 1.092 12.24-8.2 14.66-20.755z" fill="#606060"/><g class="D"><path d="M1371.06 684.229l-10.26 69h-.17c.22-2.222.68-4.414 1.37-6.54a34.85 34.85 0 0 1 6.46-11.61c1.46-1.682 3.05-3.25 4.76-4.69l3.42-2.49 3.67-2.1 2.25-1a21.83 21.83 0 0 1 2.27-.93l4.66-1.56v.12l-4.65 1.57c-.78.269-1.53.583-2.27.94l-2.24 1-3.66 2.1-3.4 2.49c-1.69 1.437-3.27 3.001-4.72 4.68-1.43 1.694-2.69 3.527-3.76 5.47a33.76 33.76 0 0 0-2.65 6.08 29.99 29.99 0 0 0-1.35 6.49v.08h-.28v-.1l10.51-69.09.04.09zm0 .12l-10.3 68.86-.08-.1h.1l-.09.08a30.91 30.91 0 0 1 1.37-6.52c1.39-4.243 3.58-8.18 6.45-11.6a42.24 42.24 0 0 1 4.74-4.69h0c1.11-.86 2.27-1.67 3.41-2.5l3.67-2.09 2.25-1c.74-.35 1.5-.66 2.27-.93l4.66-1.57v.12l-4.66 1.55c-.77.27-1.53.58-2.27.93l-2.25 1-3.63 2.11c-1.14.82-2.3 1.62-3.41 2.48-1.7 1.43-3.29 2.992-4.75 4.67-1.44 1.699-2.71 3.534-3.79 5.48-1.09 1.943-1.99 3.985-2.68 6.1a32.24 32.24 0 0 0-1.37 6.52v-.05h.09l10.34-69-.07.15z"/><path d="M1360.78 753.079c.74-3.954.98-7.986.71-12a35.28 35.28 0 0 0-2.44-11.83c-1.46-3.787-3.82-7.166-6.86-9.85a29.76 29.76 0 0 0-10.54-5.82v-.12a29.98 29.98 0 0 1 10.63 5.79c3.09 2.689 5.49 6.08 7 9.89 1.47 3.8 2.27 7.826 2.36 11.9.06 2.028.01 4.058-.15 6.08-.07 1-.16 2-.26 3l-.16 1.51-.08.76c-.04.239-.11.471-.21.69h0zm0 .22a3.17 3.17 0 0 1 0-.87l.08-.75.17-1.51.27-3c.17-2.015.22-4.039.16-6.06a35.01 35.01 0 0 0-2.31-11.84 25.53 25.53 0 0 0-6.88-9.83c-3.09-2.624-6.69-4.594-10.56-5.79v-.12c3.88 1.218 7.47 3.216 10.56 5.87 3.05 2.7 5.4 6.096 6.86 9.9 1.48 3.779 2.29 7.784 2.41 11.84.27 4.046.01 8.109-.76 12.09v.07z"/></g><g fill="#61656d"><path d="M1405.93 790.621h-86.2a2.72 2.72 0 0 1-1.91-.791c-.5-.506-.79-1.193-.79-1.909s.29-1.403.79-1.909c.51-.507 1.2-.791 1.91-.791h86.2a2.7 2.7 0 0 1 1.91.791c.51.506.79 1.193.79 1.909s-.28 1.403-.79 1.909-1.19.791-1.91.791h0z"/><path d="M1402.33 790.619l14.3 175.8h-2.8l-21.5-175.8h10zm-79.5 0l-14.3 175.8h2.9l21.4-175.8h-10z"/></g><path d="M1322.83 790.619l-.4 3.4h4.9l-17.2 172.4h1.3l21.4-175.8h-10zm83.4 67.381h-2.5l-11.4-67.4h10l14.3 175.8h-1.4l-9-108.4zm-49.8-67.381l2.3 175.8h2.9l4.8-175.8h-10z" class="W"/><path d="M1387.93 741.32h-46.4v5.8h46.4v-5.8z" class="B"/><path d="M1381.93 785.219h-34.6l-2.6-38.1h39.8l-2.6 38.1z" class="M"/><path d="M1381.93 785.219h-34.6l-2.6-38.1h39.8l-2.6 38.1z" class="B"/><path d="M1387.83 741.32h-7.5v5.8h-35.6l.2 1.6h28.5l.1 36.5h8.4l2.6-38.1h3.3v-5.8z" class="D K"/><g class="B"><path d="M579.672 552h-2v-64.17a13 13 0 0 1 13-13h112.69v2h-112.69a11 11 0 0 0-11 11V552z"/><path d="M579.671 541.55h-2v-11a11 11 0 0 0-3.222-7.779c-2.063-2.062-4.861-3.221-7.778-3.221h-7.37a13 13 0 0 1-13-13v-30.7h2v30.7a11 11 0 0 0 11 11h7.37a13 13 0 0 1 13 13v11zM595 476.831h-2.09v-2H595a11 11 0 0 0 11-11v-10.2a20.18 20.18 0 0 1 20.16-20.16h23.54v2h-23.59c-4.805.021-9.407 1.942-12.8 5.345a18.19 18.19 0 0 0-5.31 12.815v10.2a13 13 0 0 1-13 13h0z"/><use xlink:href="#D"/><use xlink:href="#D" x="-102.352" y="41.362"/><use xlink:href="#D" x="-70.82" y="117.481"/><path d="M1035.46 585.451h-2v-262.07a11.01 11.01 0 0 0-3.22-7.778c-2.06-2.063-4.86-3.222-7.78-3.222H785.621v-2h236.839a12.98 12.98 0 0 1 9.19 3.807c2.44 2.438 3.81 5.745 3.81 9.193v262.07z"/><path d="M1034.44 590.05c1.67 0 3.03-1.356 3.03-3.03s-1.36-3.03-3.03-3.03-3.03 1.357-3.03 3.03 1.36 3.03 3.03 3.03zm1.02-67.74h-2v-11c0-3.448 1.37-6.755 3.81-9.193s5.74-3.807 9.19-3.807h11.43a16.99 16.99 0 0 0 11.95-4.979c3.17-3.171 4.96-7.467 4.98-11.951v-74.79h2v74.77c-.02 5.015-2.02 9.819-5.56 13.365a19.01 19.01 0 0 1-13.37 5.565h-11.43a11.01 11.01 0 0 0-11 11v11.02zM918.822 353.741h-61.65v-2h61.65a16.7 16.7 0 0 0 16.68-16.68v-11.68a13 13 0 0 1 13-13h69.728v2h-69.728a11 11 0 0 0-11 11v11.68a18.7 18.7 0 0 1-18.68 18.68h0z"/><use xlink:href="#D" x="263.828" y="-164.459"/><use xlink:href="#D" x="207.52" y="-81.728"/><path d="M1075.82 409.621c1.67 0 3.03-1.357 3.03-3.03s-1.36-3.03-3.03-3.03-3.03 1.356-3.03 3.03 1.36 3.03 3.03 3.03zm-40.36 59.16h-2v-11a11.01 11.01 0 0 0-3.22-7.779c-2.06-2.063-4.86-3.221-7.78-3.221H1011a19.01 19.01 0 0 1-13.365-5.565c-3.546-3.546-5.546-8.351-5.565-13.365v-44.79h2v44.77a17 17 0 0 0 4.979 11.95 17.01 17.01 0 0 0 11.951 4.98h11.44c3.45 0 6.75 1.369 9.19 3.807s3.81 5.745 3.81 9.193l.02 11.02z"/><use xlink:href="#D" x="343.438" y="-51.41"/><path d="M970.26 312.38h-2.08a13 13 0 0 1-13-13v-11.69A16.7 16.7 0 0 0 938.5 271h-25v-2h25a18.7 18.7 0 0 1 18.68 18.68v11.69a11 11 0 0 0 11 11h2.08v2.01z"/><use xlink:href="#E"/></g><use xlink:href="#E" opacity=".6" class="C"/><use xlink:href="#F" class="B"/><use xlink:href="#F" class="C K"/><use xlink:href="#E" x="-2.461" class="B"/><use xlink:href="#E" x="-2.461" opacity=".9" class="C"/><use xlink:href="#G" class="B"/><use xlink:href="#G" class="C P"/><path d="M912.491 413.111v-5.32a5.58 5.58 0 0 0-1.638-3.939c-1.046-1.045-2.464-1.631-3.942-1.631h-206.7a5.57 5.57 0 0 0-5.57 5.57v5.32h217.85z" class="B"/><use xlink:href="#H" class="C"/><use xlink:href="#I" class="B"/><g class="C"><use xlink:href="#I" class="F"/><use xlink:href="#H" y="11.84"/></g><use xlink:href="#I" y="11.83" class="B"/><use xlink:href="#I" y="11.83" class="C F"/><g class="B"><use xlink:href="#J"/><use xlink:href="#J" y="18.34"/><use xlink:href="#J" y="61.219"/></g><path d="M722.721 513.271a3.19 3.19 0 1 0 0-6.38 3.19 3.19 0 0 0 0 6.38z" class="C"/><use xlink:href="#I" y="42.881" class="B"/><g class="C"><use xlink:href="#I" y="42.881" class="F"/><path d="M722.721 525.101a3.19 3.19 0 1 0 0-6.38 3.19 3.19 0 0 0 0 6.38z"/></g><use xlink:href="#I" y="54.721" class="B"/><use xlink:href="#I" y="54.721" class="C F"/><use xlink:href="#K" class="B"/><use xlink:href="#K" class="C F"/><use xlink:href="#K" y="-18.34" class="B"/><use xlink:href="#K" y="-18.34" class="C F"/><use xlink:href="#K" y="42.07" class="B"/><use xlink:href="#K" y="42.07" class="C F"/><g class="B"><use xlink:href="#L"/><use xlink:href="#M"/><use xlink:href="#L" y="60.791"/><use xlink:href="#M" y="60.791"/><use xlink:href="#N"/><use xlink:href="#M" y="75.961"/><use xlink:href="#N" y="11.811"/><use xlink:href="#M" y="87.772"/><use xlink:href="#L" y="18.221"/><use xlink:href="#M" y="18.221"/><use xlink:href="#N" y="-42.56"/><use xlink:href="#M" y="33.401"/><use xlink:href="#N" y="-30.76"/><use xlink:href="#M" y="45.201"/></g><g class="C"><use xlink:href="#N" class="H"/><use xlink:href="#M" y="75.961" class="H"/><use xlink:href="#N" y="11.811" class="H"/><use xlink:href="#M" y="87.772" class="H"/><use xlink:href="#N" y="-42.56" class="H"/><use xlink:href="#M" y="33.401" class="H"/><use xlink:href="#N" y="-30.76" class="H"/><use xlink:href="#M" y="45.201" class="H"/><use xlink:href="#O" class="N"/><use xlink:href="#O" x="8.867" class="N"/><use xlink:href="#O" x="17.738" class="N"/><g class="F"><use xlink:href="#J" class="F"/><use xlink:href="#J" y="18.34" class="F"/><use xlink:href="#J" y="61.221" class="F"/></g></g><use xlink:href="#E" x="-119.641" y="-168.682" class="B"/><use xlink:href="#E" x="-119.641" y="-168.682" opacity=".6" class="C"/><use xlink:href="#P" class="B"/><use xlink:href="#P" class="C K"/><use xlink:href="#Q" class="B"/><use xlink:href="#Q" opacity=".9" class="C"/><use xlink:href="#R" class="B"/><use xlink:href="#R" class="C P"/><path d="M792.85 244.429v-5.32c0-1.477-.587-2.894-1.631-3.939s-2.462-1.631-3.939-1.631h-206.7c-.732-.001-1.458.142-2.135.421a5.58 5.58 0 0 0-1.81 1.207c-.518.517-.93 1.132-1.21 1.808s-.425 1.402-.425 2.134v5.32h217.85z" class="B"/><use xlink:href="#H" x="-119.64" y="-168.68" class="C"/><use xlink:href="#I" x="-119.641" y="-168.679" class="B"/><g class="C"><use xlink:href="#I" x="-119.641" y="-168.679" class="F"/><use xlink:href="#H" x="-119.64" y="-156.84"/></g><use xlink:href="#I" x="-119.641" y="-156.849" class="B"/><use xlink:href="#I" x="-119.641" y="-156.849" class="C F"/><g class="B"><use xlink:href="#J" x="-119.637" y="-168.679"/><use xlink:href="#J" x="-119.637" y="-150.349"/><use xlink:href="#J" x="-119.637" y="-107.461"/></g><use xlink:href="#H" x="-119.64" y="-125.789" class="C"/><use xlink:href="#I" x="-119.641" y="-125.798" class="B"/><g class="C"><use xlink:href="#I" x="-119.641" y="-125.798" class="F"/><use xlink:href="#H" x="-119.64" y="-113.961"/></g><use xlink:href="#I" x="-119.641" y="-113.959" class="B"/><use xlink:href="#I" x="-119.641" y="-113.959" class="C F"/><use xlink:href="#K" x="-119.629" y="-168.68" class="B"/><use xlink:href="#K" x="-119.629" y="-168.68" class="C F"/><use xlink:href="#K" x="-119.629" y="-187.019" class="B"/><use xlink:href="#K" x="-119.629" y="-187.019" class="C F"/><use xlink:href="#K" x="-119.629" y="-126.609" class="B"/><use xlink:href="#K" x="-119.629" y="-126.609" class="C F"/><g class="B"><use xlink:href="#S"/><use xlink:href="#M" x="-119.629" y="-168.679"/><use xlink:href="#S" y="60.791"/><use xlink:href="#M" x="-119.629" y="-107.888"/><use xlink:href="#N" x="-119.629" y="-168.679"/><use xlink:href="#M" x="-119.629" y="-92.718"/><use xlink:href="#N" x="-119.629" y="-156.871"/><use xlink:href="#M" x="-119.629" y="-80.91"/><use xlink:href="#S" y="18.22"/><use xlink:href="#M" x="-119.629" y="-150.459"/><use xlink:href="#N" x="-119.629" y="-211.25"/><use xlink:href="#M" x="-119.629" y="-135.289"/><use xlink:href="#N" x="-119.629" y="-199.439"/><use xlink:href="#M" x="-119.629" y="-123.478"/></g><g class="C"><use xlink:href="#N" x="-119.629" y="-168.679" class="H"/><use xlink:href="#M" x="-119.629" y="-92.718" class="H"/><use xlink:href="#N" x="-119.629" y="-156.871" class="H"/><use xlink:href="#M" x="-119.629" y="-80.91" class="H"/><use xlink:href="#N" x="-119.629" y="-211.25" class="H"/><use xlink:href="#M" x="-119.629" y="-135.289" class="H"/><use xlink:href="#N" x="-119.629" y="-199.439" class="H"/><use xlink:href="#M" x="-119.629" y="-123.478" class="H"/><use xlink:href="#O" x="-119.633" y="-168.679" class="N"/><use xlink:href="#O" x="-110.774" y="-168.679" class="N"/><use xlink:href="#O" x="-101.903" y="-168.679" class="N"/><g class="F"><use xlink:href="#J" x="-119.637" y="-168.679" class="F"/><use xlink:href="#J" x="-119.637" y="-150.349" class="F"/><use xlink:href="#J" x="-119.637" y="-107.459" class="F"/></g></g><g class="G"><use xlink:href="#T"/><use xlink:href="#T" x="-4.379"/></g><use xlink:href="#T" x="-4.379" class="C K"/><g stroke="#fff" class="a"><path d="M788.278 413.5c-4.969.002-9.827-1.47-13.959-4.23a25.11 25.11 0 0 1-9.256-11.273c-1.903-4.59-2.401-9.642-1.432-14.515a25.12 25.12 0 0 1 6.875-12.865c3.514-3.513 7.99-5.906 12.864-6.875s9.926-.471 14.516 1.432 8.514 5.124 11.273 9.256a25.12 25.12 0 0 1 4.229 13.96c-.007 6.657-2.656 13.039-7.363 17.746s-11.089 7.356-17.747 7.364h0z"/><path d="M774.262 389.2l8.56 8.56 17.84-17.84" stroke-width="5" class="Z"/></g><use xlink:href="#U" class="B"/><use xlink:href="#U" opacity=".45" class="C"/><g class="B"><use xlink:href="#V"/><use xlink:href="#W"/><use xlink:href="#V" y="7.98"/><use xlink:href="#X"/><path d="M572.139 427.66h-48.47c-.618-.001-1.23.12-1.8.355s-1.09.582-1.527 1.019-.782.955-1.018 1.526-.357 1.183-.355 1.8V434h57.88v-1.62c.002-.62-.117-1.234-.353-1.807a4.71 4.71 0 0 0-1.02-1.533c-.438-.438-.958-.786-1.531-1.023a4.7 4.7 0 0 0-1.806-.357h0z"/><use xlink:href="#U" x="-1.5"/></g><use xlink:href="#U" x="-1.5" class="C P"/><g class="B"><use xlink:href="#V" x="-1.488"/><use xlink:href="#W" x="-1.488"/><use xlink:href="#V" x="-1.488" y="7.98"/><use xlink:href="#X" x="-1.488"/><path d="M570.649 427.66h-48.47a4.7 4.7 0 0 0-1.802.355c-.571.236-1.091.582-1.528 1.018a4.68 4.68 0 0 0-1.021 1.526 4.7 4.7 0 0 0-.359 1.801V434h57.88v-1.62a4.68 4.68 0 0 0-.35-1.806c-.234-.573-.58-1.094-1.017-1.533s-.956-.787-1.528-1.024a4.7 4.7 0 0 0-1.805-.357z"/><use xlink:href="#U" x="326.98" y="-173.15"/></g><use xlink:href="#U" x="326.98" y="-173.15" opacity=".45" class="C"/><g class="B"><use xlink:href="#Y"/><use xlink:href="#W" x="326.981" y="-173.151"/><use xlink:href="#Y" y="7.99"/><use xlink:href="#X" x="326.981" y="-173.141"/><path d="M899.119 254.51h-48.47c-.618 0-1.23.122-1.801.358a4.7 4.7 0 0 0-1.526 1.022c-.436.437-.782.957-1.018 1.528a4.7 4.7 0 0 0-.355 1.802v1.62h57.88v-1.62c0-1.249-.496-2.447-1.379-3.331s-2.082-1.379-3.331-1.379z"/><use xlink:href="#U" x="325.48" y="-173.15"/></g><use xlink:href="#U" x="325.48" y="-173.15" class="C P"/><g class="B"><use xlink:href="#Y" x="-1.5"/><use xlink:href="#W" x="325.492" y="-173.151"/><use xlink:href="#Y" x="-1.5" y="7.99"/><use xlink:href="#X" x="325.492" y="-173.141"/><path d="M897.629 254.51h-48.47a4.72 4.72 0 0 0-1.802.358 4.71 4.71 0 0 0-1.528 1.021 4.7 4.7 0 0 0-1.021 1.528 4.71 4.71 0 0 0-.359 1.803v1.62h57.89v-1.62c0-1.249-.496-2.447-1.379-3.331s-2.082-1.379-3.331-1.379h0z"/><use xlink:href="#Z"/></g><use xlink:href="#Z" opacity=".45" class="C"/><g class="B"><use xlink:href="#V" x="444.934" y="-94.811"/><path d="M1013.07 345.539h-26.191a.91.91 0 0 0-.91.91v.91a.91.91 0 0 0 .91.91h26.191a.91.91 0 0 0 .91-.91v-.91a.91.91 0 0 0-.91-.91z"/><use xlink:href="#V" x="444.934" y="-86.83"/><path d="M1003.07 353.52h-16.191a.91.91 0 0 0-.91.91v.91a.91.91 0 0 0 .91.91h16.191a.91.91 0 0 0 .91-.91v-.91a.91.91 0 0 0-.91-.91zm14-20.67h-48.472a4.7 4.7 0 0 0-3.323 1.376c-.881.882-1.377 2.077-1.377 3.324v1.62h57.882v-1.62c0-1.248-.5-2.443-1.38-3.324a4.72 4.72 0 0 0-3.33-1.376h0z"/><use xlink:href="#Z" x="-1.5"/></g><use xlink:href="#Z" x="-1.5" class="C P"/><g class="B"><use xlink:href="#V" x="443.442" y="-94.811"/><path d="M1011.58 345.539h-26.189a.91.91 0 0 0-.911.91v.91a.91.91 0 0 0 .911.91h26.189a.91.91 0 0 0 .91-.91v-.91a.91.91 0 0 0-.91-.91z"/><use xlink:href="#V" x="443.442" y="-86.83"/><path d="M1001.58 353.52h-16.189a.91.91 0 0 0-.911.91v.91a.91.91 0 0 0 .911.91h16.189a.91.91 0 0 0 .91-.91v-.91a.91.91 0 0 0-.91-.91zm14-20.67h-48.472a4.71 4.71 0 0 0-4.71 4.7v1.62h57.882v-1.62a4.71 4.71 0 0 0-1.38-3.324 4.7 4.7 0 0 0-3.32-1.376h0z"/></g><path d="M109.75 966.42h1380.5" stroke="#b2b6bb" class="L"/><defs ><path id="B" d="M1162.93 588.581l-.5-.5a3.22 3.22 0 0 0 .72-1.051c.17-.396.25-.82.25-1.249s-.08-.855-.25-1.25a3.22 3.22 0 0 0-.72-1.051l.5-.5a3.27 3.27 0 0 0 1.05.722 3.23 3.23 0 0 0 2.5 0 3.27 3.27 0 0 0 1.05-.722l.5.5a3.22 3.22 0 0 0-.72 1.051c-.17.395-.26.82-.26 1.25s.09.853.26 1.249a3.22 3.22 0 0 0 .72 1.051l-.5.5a3.27 3.27 0 0 0-1.05-.722 3.23 3.23 0 0 0-2.5 0 3.27 3.27 0 0 0-1.05.722h0z"/><path id="C" d="M1247 687l-.5-.5c.31-.298.55-.655.72-1.051a3.16 3.16 0 0 0 .26-1.249 3.16 3.16 0 0 0-.26-1.249 3.22 3.22 0 0 0-.72-1.051l.5-.5a3.27 3.27 0 0 0 1.05.722 3.23 3.23 0 0 0 2.5 0 3.27 3.27 0 0 0 1.05-.722l.5.5a3.22 3.22 0 0 0-.72 1.051 3.16 3.16 0 0 0-.26 1.249 3.16 3.16 0 0 0 .26 1.249c.17.396.41.753.72 1.051l-.5.5a3.28 3.28 0 0 0-1.05-.721 3.23 3.23 0 0 0-2.5 0 3.28 3.28 0 0 0-1.05.721h0z"/><path id="D" d="M649.651 437.499a3.03 3.03 0 1 0 0-6.06 3.03 3.03 0 1 0 0 6.06z"/><path id="E" d="M909.382 402.221h-206.71a5.57 5.57 0 0 0-5.57 5.57v138.93a5.57 5.57 0 0 0 5.57 5.57h206.71a5.57 5.57 0 0 0 5.57-5.57v-138.93a5.57 5.57 0 0 0-5.57-5.57z"/><path id="F" d="M905.25 402.221h4.13c1.477 0 2.894.587 3.939 1.631a5.57 5.57 0 0 1 1.631 3.939v5.33h-9.69v-10.9h-.01z"/><path id="G" d="M700.211 402.221h61.29v150.07h-61.29a5.57 5.57 0 0 1-3.939-1.632c-1.045-1.044-1.631-2.461-1.631-3.938v-138.93a5.57 5.57 0 0 1 5.57-5.57h0z"/><path id="H" d="M722.721 470.38a3.19 3.19 0 1 0 0-6.38 3.19 3.19 0 1 0 0 6.38z"/><path id="I" d="M749.02 465.859h-18.79a.8.8 0 0 0-.8.8v1.13a.8.8 0 0 0 .8.8h18.79a.8.8 0 0 0 .8-.8v-1.13a.8.8 0 0 0-.8-.8z"/><path id="J" d="M709.559 438.9a4.75 4.75 0 1 0 0-9.5 4.75 4.75 0 1 0 0 9.5z"/><path id="K" d="M749.01 451.119h-28.69a.8.8 0 0 0-.8.8v1.13a.8.8 0 0 0 .8.8h28.69a.8.8 0 0 0 .8-.8v-1.13a.8.8 0 0 0-.8-.8z"/><path id="L" d="M840.83 432.779H782.8a.8.8 0 0 0-.8.8v1.13a.8.8 0 0 0 .8.8h58.03a.8.8 0 0 0 .8-.8v-1.13a.8.8 0 0 0-.8-.8z"/><path id="M" d="M890.359 432.779h-43.36a.8.8 0 0 0-.8.8v1.13a.8.8 0 0 0 .8.8h43.36a.8.8 0 0 0 .8-.8v-1.13a.8.8 0 0 0-.8-.8z"/><path id="N" d="M840.82 508.74h-25.75a.8.8 0 0 0-.8.8v1.13a.8.8 0 0 0 .8.8h25.75a.8.8 0 0 0 .8-.8v-1.13a.8.8 0 0 0-.8-.8z"/><path id="O" d="M704.812 409.559a1.89 1.89 0 1 0 0-3.78 1.89 1.89 0 1 0 0 3.78z"/><path id="P" d="M785.621 233.539h4.13c1.477 0 2.894.587 3.939 1.631s1.631 2.462 1.631 3.939v5.33h-9.69v-10.9h-.01z"/><path id="Q" d="M787.28 233.539H580.57a5.57 5.57 0 0 0-5.57 5.57v138.93a5.57 5.57 0 0 0 5.57 5.57h206.71a5.57 5.57 0 0 0 5.57-5.57v-138.93a5.57 5.57 0 0 0-5.57-5.57z"/><path id="R" d="M580.58 233.539h61.29v150.07h-61.29c-.736.001-1.464-.143-2.144-.425s-1.296-.695-1.815-1.217a5.56 5.56 0 0 1-1.621-3.968v-138.89c0-.732.145-1.457.425-2.134a5.58 5.58 0 0 1 1.21-1.808c.518-.517 1.134-.927 1.811-1.207s1.402-.422 2.134-.421z"/><path id="S" d="M721.201 264.1h-58.03a.8.8 0 0 0-.8.8v1.13a.8.8 0 0 0 .8.8h58.03a.8.8 0 0 0 .8-.8v-1.13a.8.8 0 0 0-.8-.8z"/><path id="T" d="M792.659 418.51c16.635 0 30.12-13.486 30.12-30.12s-13.485-30.12-30.12-30.12-30.12 13.485-30.12 30.12 13.485 30.12 30.12 30.12z"/><path id="U" d="M572.139 427.66h-48.46a4.71 4.71 0 0 0-4.71 4.71v22.58a4.71 4.71 0 0 0 4.71 4.71h48.46a4.71 4.71 0 0 0 4.71-4.71v-22.58a4.71 4.71 0 0 0-4.71-4.71z"/><path id="V" d="M537.088 440.35h-7.69a.91.91 0 0 0-.91.91v.91a.91.91 0 0 0 .91.91h7.69a.91.91 0 0 0 .91-.91v-.91a.91.91 0 0 0-.91-.91z"/><path id="W" d="M568.139 440.35h-26.19a.91.91 0 0 0-.91.91v.91a.91.91 0 0 0 .91.91h26.19a.91.91 0 0 0 .91-.91v-.91a.91.91 0 0 0-.91-.91z"/><path id="X" d="M558.139 448.33h-16.19a.91.91 0 0 0-.91.91v.91a.91.91 0 0 0 .91.91h16.19a.91.91 0 0 0 .91-.91v-.91a.91.91 0 0 0-.91-.91z"/><path id="Y" d="M864.081 267.199h-7.69a.91.91 0 0 0-.911.91v.91a.91.91 0 0 0 .911.91h7.69a.91.91 0 0 0 .909-.91v-.91a.91.91 0 0 0-.909-.91z"/><path id="Z" d="M1017.07 332.85h-48.462a4.71 4.71 0 0 0-4.71 4.71v22.58a4.71 4.71 0 0 0 4.71 4.71h48.462a4.71 4.71 0 0 0 4.71-4.71v-22.58a4.71 4.71 0 0 0-4.71-4.71z"/></defs></svg>